<?xml version="1.0" standalone="no"?>
<!DOCTYPE svg PUBLIC "-//W3C//DTD SVG 1.1//EN" "http://www.w3.org/Graphics/SVG/1.1/DTD/svg11.dtd" >
<svg>
<metadata>
Created by FontForge 20090914 at Wed Oct  7 18:10:30 2020
 By www-data
Typeface &#194;&#169; (your company). 2014. All Rights Reserved
</metadata>
<defs>
<font id="TedescaLamont" horiz-adv-x="2190" >
  <font-face 
    font-family="TedescaLamont"
    font-weight="400"
    font-stretch="normal"
    units-per-em="2048"
    panose-1="2 0 5 0 0 0 0 0 0 0"
    ascent="1638"
    descent="-410"
    x-height="935"
    cap-height="1438"
    bbox="43.6016 -628 3116 3132"
    underline-thickness="150"
    underline-position="-142"
    unicode-range="U+0020-U+F002"
  />
<missing-glyph horiz-adv-x="1024" 
d="M100 0v1434h824v-1434h-824zM150 50h724v1334h-724v-1334zM325 1148c20.667 18.667 40.002 32.998 58.002 42.998c35.333 20 72.666 30 111.999 30c61.333 0 110.666 -15.833 147.999 -47.5s56 -74.167 56 -127.5c0 -32.667 -7.66699 -65.5 -23 -98.5
s-44.333 -76.167 -87 -129.5c-42 -53.333 -75 -97.333 -99 -132s-36 -67.667 -36 -99c0 -25.333 8 -69.666 24 -132.999h-32c-23.333 64.667 -35 114 -35 148c0 50.667 27.167 123.334 81.5 218.001s81.5 167 81.5 217c0 38 -11 68 -33 90s-52.333 33 -91 33
c-25.333 0 -48.333 -5.66699 -69 -17c-17.333 -10 -36 -23.333 -56 -40v45zM389.002 333.998l57 57.999c7.33301 6.66699 14 10 20 10c6.66699 0 14 -3.66699 22 -11l56 -60c6 -7.33301 9 -14 9 -20c0 -7.33301 -3.33301 -14.666 -10 -21.999l-56 -62
c-9.33301 -9.33301 -16.333 -14 -21 -14c-7.33301 0 -14 3.33301 -20 10l-61 71c-4.66699 6 -7 12 -7 18c0 6.66699 3.66699 14 11 22z" />
    <glyph glyph-name=".notdef" horiz-adv-x="1024" 
d="M100 0v1434h824v-1434h-824zM150 50h724v1334h-724v-1334zM325 1148c20.667 18.667 40.002 32.998 58.002 42.998c35.333 20 72.666 30 111.999 30c61.333 0 110.666 -15.833 147.999 -47.5s56 -74.167 56 -127.5c0 -32.667 -7.66699 -65.5 -23 -98.5
s-44.333 -76.167 -87 -129.5c-42 -53.333 -75 -97.333 -99 -132s-36 -67.667 -36 -99c0 -25.333 8 -69.666 24 -132.999h-32c-23.333 64.667 -35 114 -35 148c0 50.667 27.167 123.334 81.5 218.001s81.5 167 81.5 217c0 38 -11 68 -33 90s-52.333 33 -91 33
c-25.333 0 -48.333 -5.66699 -69 -17c-17.333 -10 -36 -23.333 -56 -40v45zM389.002 333.998l57 57.999c7.33301 6.66699 14 10 20 10c6.66699 0 14 -3.66699 22 -11l56 -60c6 -7.33301 9 -14 9 -20c0 -7.33301 -3.33301 -14.666 -10 -21.999l-56 -62
c-9.33301 -9.33301 -16.333 -14 -21 -14c-7.33301 0 -14 3.33301 -20 10l-61 71c-4.66699 6 -7 12 -7 18c0 6.66699 3.66699 14 11 22z" />
    <glyph glyph-name="space" unicode=" " horiz-adv-x="508" 
 />
    <glyph glyph-name="space" unicode="&#xa0;" horiz-adv-x="508" 
 />
    <glyph glyph-name="exclam" unicode="!" horiz-adv-x="338" 
d="M150 328l-49 1036c0 30.667 7 53.667 21 69s34.667 23 62 23c28 0 48.833 -7.66699 62.5 -23s20.5 -38.333 20.5 -69l-80 -1036h-37zM60 167l82.001 84c10 9.33301 19.667 14 29 14c8.66699 0 19 -5.33301 31 -16l80 -86c8 -10.667 12 -20.334 12 -29.001
c0 -10 -4.66699 -20.333 -14 -31l-80 -88c-13.333 -13.333 -23 -20 -29 -20c-10.667 0 -20.334 4.66699 -29.001 14l-88 101c-6.66699 8.66699 -10 17.334 -10 26.001c0 10 5.33301 20.333 16 31z" />
    <glyph glyph-name="quotedbl" unicode="&#x22;" horiz-adv-x="562" 
d="M140 1108l-30 -0.000976562l-62 359c-2.66699 15.333 -4 26.333 -4 33c0 24.667 6.83301 43.667 20.5 57s33.5 20 59.5 20s46.167 -6.5 60.5 -19.5s21.5 -31.833 21.5 -56.5c0 -5.33301 -1.33301 -16.666 -4 -33.999zM452 1108l-30 -0.000976562l-62 359
c-2.66699 15.333 -4 26.333 -4 33c0 24.667 6.83301 43.667 20.5 57s33.5 20 59.5 20s46.167 -6.5 60.5 -19.5s21.5 -31.833 21.5 -56.5c0 -5.33301 -1.33301 -16.666 -4 -33.999z" />
    <glyph glyph-name="numbersign" unicode="#" horiz-adv-x="1190" 
d="M523 859l-85 -290h242l86 290h-243zM600 1434h93l-141 -477h242l142 477h92l-141 -477h259l-29 -97h-259l-83 -290h279l-30 -98h-280l-140 -472h-92l139 472h-240l-142 -472h-92l140 472h-273l30 98h271l86 290h-295l29 97h295z" />
    <glyph glyph-name="dollar" unicode="$" horiz-adv-x="956" 
d="M508 1552l0.00195312 -102c45.333 -5.33301 92.333 -17 141 -35c6.66699 -4 13 -6 19 -6c16.667 0 30.334 15 41.001 45h50l103 -282h-49c-40 89.333 -96 149 -168 179c-49.333 20 -95 33 -137 39v-540c160.667 -62 268.167 -123 322.5 -183s81.5 -148 81.5 -264
c0 -131.333 -39.833 -231.333 -119.5 -300s-174.5 -108.667 -284.5 -120v-239h-73v237c-125.333 2 -214 14.667 -266 38c-6.66699 4 -13 6 -19 6c-16.667 0 -30.334 -15 -41.001 -45h-50v331h49c33.333 -122 84.166 -197.333 152.499 -226s126.5 -43 174.5 -43v635
c-142.667 44.667 -242.334 95.667 -299.001 153c-61.333 60.667 -92 143.667 -92 249c0 110.667 41.667 201 125 271c70 58.667 158.667 92.667 266 102v100h73zM508.002 655l-0.000976562 -609.999c83.333 11.333 153.833 43.333 211.5 96s86.5 125.667 86.5 219
c0 77.333 -23 138.333 -69 183c-41.333 39.333 -117.666 76.666 -228.999 111.999zM435.001 873.001l-0.00195312 520.001c-79.333 -3.33301 -145.666 -27.333 -198.999 -72c-57.333 -48.667 -86 -109.334 -86 -182.001c0 -65.333 18.333 -116.333 55 -153
c34.667 -36 111.334 -73.667 230.001 -113z" />
    <glyph glyph-name="percent" unicode="%" horiz-adv-x="1574" 
d="M431 1459c65.333 0 128.833 -16.333 190.5 -49s109.834 -79.167 144.501 -139.5s52 -123.833 52 -190.5c0 -66 -16.833 -128.833 -50.5 -188.5s-81.334 -106.334 -143.001 -140.001s-126.167 -50.5 -193.5 -50.5c-66.667 0 -130.834 16.833 -192.501 50.5
s-109.5 80.334 -143.5 140.001s-51 122.5 -51 188.5c0 66.667 17.333 130.167 52 190.5s82.834 106.833 144.501 139.5s125.167 49 190.5 49zM188 1066c8.66699 -61.333 27.168 -119.165 55.501 -173.498s63.833 -95.833 106.5 -124.5c38 -26.667 76 -40 114 -40
c4.66699 0 9 0.333008 13 1c42 2 80.333 19.667 115 53s59 78.666 73 135.999c8.66699 36 13 73 13 111c0 21.333 -1.33301 43 -4 65c-8 62 -26.667 120.5 -56 175.5s-65 96.5 -107 124.5c-38.667 25.333 -77 38 -115 38h-11c-40.667 -2 -78.334 -19.333 -113.001 -52
s-59 -77.667 -73 -135c-10 -38.667 -15 -77.667 -15 -117c0 -20.667 1.33301 -41.334 4 -62.001zM279.001 -28.999l940 1461h84l-938 -1461h-86zM1143 738.001c64.667 0 127.999 -16.5 189.999 -49.5s110.333 -79.667 145 -140s52 -123.5 52 -189.5
c0 -66.667 -16.833 -129.834 -50.5 -189.501s-81.334 -106.167 -143.001 -139.5s-126.167 -50 -193.5 -50s-131.666 16.667 -192.999 50s-109 79.833 -143 139.5s-51 122.834 -51 189.501c0 66 17.333 129.167 52 189.5s82.834 107 144.501 140s125.167 49.5 190.5 49.5z
M900 344.001c8.66699 -61.333 27.168 -119.165 55.501 -173.498s63.833 -95.833 106.5 -124.5c39.333 -26 78 -39 116 -39h11c42 2 80.333 19.667 115 53s59 78.666 73 135.999c8.66699 36 13 73 13 111c0 21.333 -1.33301 43 -4 65c-8 62 -26.667 120.5 -56 175.5
s-65 96.5 -107 124.5c-38.667 25.333 -77 38 -115 38h-11c-40.667 -2 -78.334 -19.333 -113.001 -52s-59 -77.667 -73 -135c-10 -38.667 -15 -77.667 -15 -117c0 -20.667 1.33301 -41.334 4 -62.001z" />
    <glyph glyph-name="ampersand" unicode="&#x26;" horiz-adv-x="1593" 
d="M943 196l-554 682.998c-78.667 0 -138.5 -28.667 -179.5 -86s-61.5 -125.333 -61.5 -204c0 -60.667 11.833 -121.167 35.5 -181.5s57.5 -115.166 101.5 -164.499c48 -55.333 103 -97.666 165 -126.999s126.667 -44 194 -44c58.667 0 115 11.167 169 33.5
s97.333 52.5 130 90.5zM1286 -0.00195312c-37.333 0 -83.666 8.33398 -138.999 25.001s-111 60.667 -167 132c-44.667 -49.333 -103 -90.5 -175 -123.5s-152.333 -49.5 -241 -49.5c-152.667 0 -277.5 50.167 -374.5 150.5s-145.5 228.833 -145.5 385.5
c0 107.333 25.333 196.166 76 266.499s125.667 120.833 225 151.5c-28 40.667 -48.833 79.334 -62.5 116.001s-20.5 73.667 -20.5 111c0 70 25.667 135.667 77 197s112 92 182 92c45.333 0 92.666 -13 141.999 -39c6 -4 12 -6 18 -6c15.333 0 28 15 38 45h46l96 -281h-46
c-36.667 88.667 -88.334 148 -155.001 178c-56.667 24.667 -103.667 37 -141 37c-43.333 0 -78.666 -15.167 -105.999 -45.5s-41 -69.5 -41 -117.5c0 -87.333 34 -176.333 102 -267l531 -670c65.333 97.333 105.666 178.666 120.999 243.999c11.333 52 17 95.333 17 130
c0 64.667 -20.667 97 -62 97h-90v50h443v-50h-90c-63.333 0 -111.666 -75.667 -144.999 -227c-20.667 -88 -72.334 -185.333 -155.001 -292c72.667 -90.667 155.334 -136 248.001 -136h16c95.333 11.333 159.333 54 192 128l49 -1l-103 -231h-160z" />
    <glyph glyph-name="quotesingle" unicode="'" horiz-adv-x="250" 
d="M140 1108l-30 -0.000976562l-62 359c-2.66699 15.333 -4 26.333 -4 33c0 24.667 6.83301 43.667 20.5 57s33.5 20 59.5 20s46.167 -6.5 60.5 -19.5s21.5 -31.833 21.5 -56.5c0 -5.33301 -1.33301 -16.666 -4 -33.999z" />
    <glyph glyph-name="parenleft" unicode="(" horiz-adv-x="536" 
d="M44 601c1.33301 184.667 34.5 361.333 99.5 530s154.5 316 268.5 442h80c-114.667 -161.333 -191.334 -307.333 -230.001 -438c-38 -128.667 -57 -303 -57 -523v-22c0 -220 19 -394 57 -522c38.667 -130.667 115.334 -276.667 230.001 -438h-80
c-114 126 -203.5 273.167 -268.5 441.5s-98.167 344.833 -99.5 529.5z" />
    <glyph glyph-name="parenright" unicode=")" horiz-adv-x="536" 
d="M124 -370l-80 0.000976562c114.667 161.333 191.334 307.333 230.001 438c38 128 57 302 57 522v22c0 220 -19 394.333 -57 523c-38.667 130.667 -115.334 276.667 -230.001 438h80c114 -126 203.5 -273.333 268.5 -442s98.167 -345.334 99.5 -530.001
c-1.33301 -184.667 -34.5 -361.167 -99.5 -529.5s-154.5 -315.5 -268.5 -441.5z" />
    <glyph glyph-name="asterisk" unicode="*" horiz-adv-x="675" 
d="M324 1294c-2.66699 47.333 -14.9971 90.667 -36.9971 130c-24.667 44 -37 72 -37 84c0 21.333 7.83301 38.5 23.5 51.5s36.5 19.5 62.5 19.5c24.667 0 45.167 -6 61.5 -18s24.5 -27.667 24.5 -47c0 -14 -12 -43.667 -36 -89c-22 -40.667 -34.333 -84 -37 -130
c44 16.667 81.667 41.667 113 75c34 36.667 57 57 69 61c7.33301 2 14.333 3 21 3c12 0 23.667 -3.33301 35 -10c17.333 -11.333 30 -29 38 -53c4 -12.667 6 -24.667 6 -36c0 -10 -1.33301 -19.333 -4 -28c-6.66699 -20 -19.334 -32.667 -38.001 -38
c-4 -1.33301 -10.333 -2 -19 -2c-16.667 0 -42 3 -76 9c-18.667 3.33301 -37 5 -55 5c-27.333 0 -54.333 -3.66699 -81 -11c29.333 -36.667 64.333 -64.334 105 -83.001c45.333 -21.333 71.666 -37 78.999 -47c8.66699 -12 13 -24.667 13 -38c0 -6 -0.666992 -11.667 -2 -17
c-5.33301 -20 -18.333 -37.667 -39 -53c-19.333 -14.667 -39 -22 -59 -22c-0.666992 0 -1 0.333008 -1 1c-20.667 0 -36.667 7.66699 -48 23c-8 11.333 -15.333 42.666 -22 93.999c-6.66699 44.667 -22.334 86.334 -47.001 125.001
c-25.333 -38.667 -40.666 -80 -45.999 -124c-6 -50 -12.667 -80 -20 -90c-12.667 -16.667 -29 -25.667 -49 -27h-5c-18.667 0 -37.667 7 -57 21c-20 14 -33 31 -39 51c-2.66699 6.66699 -4 13.334 -4 20.001c0 11.333 3.66699 22 11 32
c8.66699 11.333 36.334 28.333 83.001 51c40.667 19.333 75.667 46.666 105 81.999c-27.333 7.33301 -54 11 -80 11c-18 0 -35.667 -1.66699 -53 -5c-36 -7.33301 -62 -11 -78 -11c-6 0 -10.667 0.666992 -14 2c-20 6 -33.667 18.667 -41 38c-4 8.66699 -6 18.334 -6 29.001
c0 11.333 2 23.333 6 36c7.33301 23.333 19.333 41 36 53c11.333 8 22.666 12 33.999 12c6 0 12 -1 18 -3c13.333 -4 38 -24.667 74 -62c31.333 -32.667 68.666 -57.667 111.999 -75z" />
    <glyph glyph-name="plus" unicode="+" horiz-adv-x="928" 
d="M394 647h-350v140h350v369l1 1h139v-370h349l1 -1v-139h-350v-370h-140v370z" />
    <glyph glyph-name="comma" unicode="," horiz-adv-x="340" 
d="M163 258c29.333 0 58.832 -21.833 88.499 -65.5s44.5 -94.167 44.5 -151.5c0 -72.667 -23.667 -148.167 -71 -226.5s-93.666 -117.5 -138.999 -117.5v43c48.667 28.667 77.667 92 87 190c0 79.333 -43 133 -129 161v42z" />
    <glyph glyph-name="hyphen" unicode="-" horiz-adv-x="526" 
d="M84 409c-26.667 0 -40 9.33301 -40 28v83c0 19.333 13.667 29 41 29h356c27.333 0 41 -9.66699 41 -29v-83c0 -18.667 -13.333 -28 -40 -28h-358z" />
    <glyph glyph-name="hyphen" unicode="&#xad;" horiz-adv-x="526" 
d="M84 409c-26.667 0 -40 9.33301 -40 28v83c0 19.333 13.667 29 41 29h356c27.333 0 41 -9.66699 41 -29v-83c0 -18.667 -13.333 -28 -40 -28h-358z" />
    <glyph glyph-name="period" unicode="." horiz-adv-x="338" 
d="M60 167l82.001 84c10 9.33301 19.667 14 29 14c8.66699 0 19 -5.33301 31 -16l80 -86c8 -10.667 12 -20.334 12 -29.001c0 -10 -4.66699 -20.333 -14 -31l-80 -88c-13.333 -13.333 -23 -20 -29 -20c-10.667 0 -20.334 4.66699 -29.001 14l-88 101
c-6.66699 8.66699 -10 17.334 -10 26.001c0 10 5.33301 20.333 16 31z" />
    <glyph glyph-name="slash" unicode="/" horiz-adv-x="709" 
d="M124 -50h-80l541 1484h80z" />
    <glyph glyph-name="zero" unicode="0" horiz-adv-x="925" 
d="M463 1462c166 -97.333 291.666 -258.666 376.999 -483.999c27.333 -76 41 -130.667 41 -164h-8l8 -8v-50c0 -220.667 -98.333 -431.334 -295 -632.001l-107 -139c-290 184.667 -435 431 -435 739c0 196.667 115 412.667 345 648c32.667 60 57.334 90 74.001 90z
M412.999 1249c-136.667 -165.333 -204.999 -318.667 -204.999 -460l8 -8v-8l-8 -25c0 -144 63 -294.333 189 -451l74 -66l49 -33c105.333 130.667 165.666 256.667 180.999 378v156c0 180.667 -93 353 -279 517h-9z" />
    <glyph glyph-name="one" unicode="1" horiz-adv-x="688" 
d="M570 1438l16 -25c-22 -11.333 -43.667 -41.333 -65 -90l8 -8l-8 -58v-214l8 -115l-8 -8v-8l8 -90v-132l-8 -49l8 -25h-8l8 -8v-312l8 -41h-8c0 -92 38.333 -171.667 115 -239l-25 -16l-57 8l-9 -8l-24 8l-206 -8v8l-8 -8h-74v25c76.667 37.333 115 125 115 263v829
c-104.667 -109.333 -184 -164 -238 -164h-33c-27.333 14 -41 36 -41 66v24c10 20 26.333 34 49 42l50 -33c36 20 88 83 156 189l65 189h124z" />
    <glyph glyph-name="two" unicode="2" horiz-adv-x="890" 
d="M110 1431l596.001 0.00390625l16 -17c-33.333 -24.667 -50 -49.334 -50 -74.001c116 -122.667 174 -241.334 174 -356.001v-74c0 -153.333 -162.667 -338 -488 -554c-93.333 -94 -140 -152 -140 -174h165c226 0 339 24.667 339 74h17l41 -157l66 -82l-8 -9v-8l-108 8
l-231 -8l-8 8h-9l-33 -8h-74l-8 8l-9 -8h-16l-9 8l-8 -8h-264l-17 17v8c24 127.333 131.667 295.333 323 504c187.333 161.333 281 318.666 281 471.999c0 126.667 -55.333 220.334 -166 281.001l-49 16h-58c-104 0 -167.333 -63.333 -190 -190v-50
c0 -69.333 46.667 -113.333 140 -132h17c49.333 8.66699 74 30.667 74 66c-55.333 0 -83 19.333 -83 58c12.667 29.333 37.667 48.666 75 57.999c60.667 -26.667 91 -62.334 91 -107.001c0 -76 -49.667 -131.333 -149 -166h-50c-112.667 0 -192.334 69 -239.001 207l-9 58
v16c0 81.333 36 161.333 108 240v17l-50 33v25z" />
    <glyph glyph-name="three" unicode="3" horiz-adv-x="907" 
d="M160 1431l8.00195 -9l8 9h265l25 -17l16 17h199l16 -17l-41 -41v-33c77.333 -93.333 116 -168 116 -224v-33c0 -127.333 -74.667 -218.333 -224 -273l-8 -8v-8c65.333 0 145.333 -47 240 -141c55.333 -90 83 -167 83 -231c0 -104.667 -44.333 -209.334 -133 -314.001v-9
c0 -32 25 -54 75 -66v-8l-17 -17h-124l-124 -8l-66 8l-25 -8l-8 8l-33 -8l-50 8l-74 -8v8l-25 -8l-50 8l-8 -8h-8l-33 8l-99 -8l-9 8v9l58 49l8 33c-49.333 112 -74 183.667 -74 215c20 171.333 102.667 257 248 257h17c104.667 -19.333 157 -69 157 -149
c0 -46 -30.333 -73.667 -91 -83c-33.333 0 -50 19.333 -50 58v16c9.33301 22.667 28.666 34 57.999 34v8l-50 41h-57c-72 0 -108 -52.333 -108 -157c0 -96.667 74.333 -165.667 223 -207l9 9h8l8 -9c104.667 30.667 157 58.334 157 83.001c20.667 0 51 58 91 174
c0 159.333 -60.667 269.333 -182 330l-99 17l-107 -25l-17 17v33l8 33l-8 33v16l17 17c49.333 -3.33301 74 -9 74 -17c128.667 0 214 71.667 256 215c-18.667 166 -87.334 249 -206.001 249h-9c-110 -24 -165 -76.667 -165 -158v-49c23.333 -50 59 -75 107 -75
c25.333 10.667 39.333 21.667 42 33v9c-24 0 -40.667 11 -50 33v8l42 41h24c33.333 -23.333 50 -45.333 50 -66c0 -68.667 -44 -107 -132 -115c-106.667 0 -175.667 60.333 -207 181v9c0 60 27.667 126 83 198l-58 66l8 9h25z" />
    <glyph glyph-name="four" unicode="4" horiz-adv-x="1017" 
d="M809 1431l8.00098 -8v-9c-49.333 -35.333 -74 -82 -74 -140l-8 -65l8 -33v-8l-8 -9l8 -24l-8 -91l8 -33h-8l8 -8v-74l-8 -8l8 -8v-329h8c66.667 0 116 22 148 66c11.333 0 19.666 -35.667 24.999 -107l49 -91l-8 -8h-156l-9 8l-8 -8h-49v-90l8 -99h-8l8 -8v-33l-8 -8
c26.667 -110 67.667 -165 123 -165l17 -25l-25 -16l-41 8h-280l-82 -8l-16 25c87.333 60.667 131 121 131 181l8 238h-123l-8 8l-8 -8h-379c-10.667 0 -16 8.33301 -16 25l477 814l25 74c-6 27.333 -17 41 -33 41v25h156zM233.001 584h148l41 8v-8l8 8l99 -8h41v74l8 8l-8 8
v74l8 8l-8 9v148l8 246c-20 -20 -83 -126.667 -189 -320z" />
    <glyph glyph-name="five" unicode="5" horiz-adv-x="922" 
d="M771 1438l7.99902 -8v-17c-33.333 -35.333 -58 -87.666 -74 -156.999h-438v-363h8c62 38.667 122.667 58 182 58c192 0 326.667 -113 404 -339c11.333 -23.333 17 -67.333 17 -132v-8c0 -98.667 -55 -211.667 -165 -339l-8 -33v-24l66 -58v-8h-42l-66 -9l-24 9l-240 -9
h-289l-16 17l49 49l-82 165l-17 108c0 94.667 63.333 169 190 223l66 8h8c104.667 -14.667 157 -61.334 157 -140.001v-25c-24 -44 -54.333 -66 -91 -66c-32.667 14 -49 36 -49 66c14 27.333 33.333 41 58 41v8c-14.667 28 -37 42 -67 42h-41c-44.667 0 -83 -36 -115 -108
l8 -8v-8l-8 -8l8 -9v-8l-8 -8c44.667 -138 127 -207 247 -207c176.667 39.333 265 166 265 380c0 174 -74.333 284.333 -223 331h-33c-43.333 0 -98.666 -27.667 -165.999 -83l-82 -8l-8 8v405c0 159.333 -25 239 -75 239v8l17 17h421z" />
    <glyph glyph-name="six" unicode="6" horiz-adv-x="983" 
d="M627 1428c136.667 -29.333 205.001 -70.3311 205.001 -122.998c15.333 0 26.333 -27.333 33 -82c-8.66699 -76.667 -38.667 -115 -90 -115l-9 8v25c22 22.667 33 44.334 33 65.001c0 65.333 -60 103.666 -180 114.999c-102.667 0 -195.667 -71 -279 -213
c-66 -109.333 -99 -249 -99 -419l16 -156h-8c53.333 -262.667 138.333 -394 255 -394h24c111.333 0 190.666 90.333 237.999 271l-8 25l8 24c0 102.667 -35.333 193 -106 271l-99 41c-76.667 -12.667 -115 -56.334 -115 -131.001c18.667 -49.333 46 -74 82 -74h9l-9 58
l58 24c22.667 -7.33301 39 -21 49 -41v-24c0 -66 -38.333 -99 -115 -99c-75.333 0 -124.666 57.333 -147.999 172c0 114 74 182.667 222 206c148 -33.333 222 -69 222 -107c40.667 0 81.667 -87.667 123 -263v-49c0 -104.667 -52 -216.667 -156 -336l-8 -33l49 -50v-8l-8 -8
v-8l-82 8h-165l-57 -8v8l-8 -8h-66l-33 8l-33 -8v8l-8 -8h-189l-16 16c0 8.66699 22 25 66 49l8 9v41c0 14.667 -27.333 63.667 -82 147c-71.333 134.667 -107 280 -107 436c0 187.333 74 378.666 222 573.999c91.333 104 211.666 156 360.999 156z" />
    <glyph glyph-name="seven" unicode="7" horiz-adv-x="909" 
d="M857 1436l7.99902 -8.00098v-8c-72 -39.333 -165 -242 -279 -608c-120.667 -308.667 -200 -543.667 -238 -705c6.66699 -28 25.667 -55.667 57 -83l-16 -16h-8l-115 8l-9 -8h-8l-57 8l-33 -8l-8 8h-8l-50 -8h-8l-16 16v25l517 1133l33 82h-312l-41 -8v8
c-48 -11.333 -86.333 -30.666 -115 -57.999h-25c-7.33301 69.333 -34.666 135 -81.999 197v9l16 16h739z" />
    <glyph glyph-name="eight" unicode="8" horiz-adv-x="933" 
d="M561 1421l8.00195 -8h9l32 8h17l8 -8l8 8h17l8 -8l8 8h58l24 -24l-41 -41v-33c66 -76 99 -147.333 99 -214h-9l9 -8c0 -103.333 -93 -207.333 -279 -312c147.333 -54.667 256.666 -142 327.999 -262l24 -99v-98c0 -51.333 -35.333 -128 -106 -230v-17l49 -57v-17l-33 -8
v8l-8 -8h-25v8l-57 -8h-452l-123 -8l-8 8v17l49 65l-106 173l-25 106c0 176 109.333 313 328 411v8c-2.66699 12.667 -24.334 26.334 -65.001 41.001c-126 87.333 -189 177.666 -189 270.999v57c0 21.333 30 84.333 90 189v25c-22 0 -33 8 -33 24v9l17 16h49l8 -8l8 8h230z
M290.002 1085c65.333 -164.667 125.667 -247 181 -247c109.333 97.333 164 177 164 239v24c0 126 -60.333 189 -181 189h-8c-81.333 0 -133.333 -68.333 -156 -205zM241.003 387l-0.000976562 -8c0 -134.667 65.667 -216.667 197 -246h74c52 6.66699 104 44.667 156 114
l33 148c-15.333 97.333 -64.666 190.333 -147.999 279l-82 58h-17c-142 -105.333 -213 -220.333 -213 -345z" />
    <glyph glyph-name="nine" unicode="9" horiz-adv-x="999" 
d="M487 1438l-0.000976562 -7.99902l25 8l25 -8l49 8l8 -8l8 8h25l8 -8l8 8h25l8 -8l8 8h115l17 -17c-44 -36 -66 -66 -66 -90c0 -16 32.667 -73.333 98 -172c71.333 -146.667 107 -275.334 107 -386.001c0 -257.333 -98.333 -484.333 -295 -681
c-100.667 -66 -185.667 -99 -255 -99l-8 8h-8l-41 -8v8l-8 -8c-148 47.333 -222 115.666 -222 204.999c14.667 98.667 50.334 148 107.001 148l16 -25v-8c-27.333 -26 -41 -56 -41 -90c20.667 -76.667 72.667 -115 156 -115c86.667 11.333 166 52.333 238 123
c104 148.667 156 304.667 156 468l-8 8l8 58c0 134.667 -38.333 279.667 -115 435c-35.333 39.333 -76.333 69.333 -123 90h-41c-107.333 0 -181.333 -63 -222 -189l-16 -115v-41c24 -180.667 87 -271 189 -271v-8c76.667 12 115 45 115 99v24c0 30 -16.667 54.667 -50 74
h-33l9 -8v-8c0 -29.333 -11 -48.666 -33 -57.999h-17c-38 0 -57 19.333 -57 58v33c27.333 43.333 63 65 107 65c83.333 0 135.333 -57.333 156 -172h-9l9 -8v-9c0 -88 -71.333 -150.667 -214 -188l-8 8h-8l-8 -8h-9c-62 0 -135.667 41 -221 123
c-71.333 88.667 -107 176 -107 262c0 135.333 54.667 264 164 386v17c0 12 -19 31 -57 57l16 17h279z" />
    <glyph glyph-name="colon" unicode=":" horiz-adv-x="338" 
d="M60 167l82.001 84c10 9.33301 19.667 14 29 14c8.66699 0 19 -5.33301 31 -16l80 -86c8 -10.667 12 -20.334 12 -29.001c0 -10 -4.66699 -20.333 -14 -31l-80 -88c-13.333 -13.333 -23 -20 -29 -20c-10.667 0 -20.334 4.66699 -29.001 14l-88 101
c-6.66699 8.66699 -10 17.334 -10 26.001c0 10 5.33301 20.333 16 31zM60.001 860l82.001 84c10 9.33301 19.667 14 29 14c8.66699 0 19 -5.33301 31 -16l80 -86c8 -10.667 12 -20.334 12 -29.001c0 -10 -4.66699 -20.333 -14 -31l-80 -88c-13.333 -13.333 -23 -20 -29 -20
c-10.667 0 -20.334 4.66699 -29.001 14l-88 101c-6.66699 8.66699 -10 17.334 -10 26.001c0 10 5.33301 20.333 16 31z" />
    <glyph glyph-name="semicolon" unicode=";" horiz-adv-x="348" 
d="M70 859l82.001 84c10 9.33301 19.667 14 29 14c8.66699 0 19 -5.33301 31 -16l80 -86c8 -10.667 12 -20.334 12 -29.001c0 -10 -4.66699 -20.333 -14 -31l-80 -88c-13.333 -13.333 -23 -20 -29 -20c-10.667 0 -20.334 4.66699 -29.001 14l-88 101
c-6.66699 8.66699 -10 17.334 -10 26.001c0 10 5.33301 20.333 16 31zM163.001 258c29.333 0 58.832 -21.833 88.499 -65.5s44.5 -94.167 44.5 -151.5c0 -72.667 -23.667 -148.167 -71 -226.5s-93.666 -117.5 -138.999 -117.5v43c48.667 28.667 77.667 92 87 190
c0 79.333 -43 133 -129 161v42z" />
    <glyph glyph-name="semicolon" unicode="&#x37e;" horiz-adv-x="348" 
d="M70 859l82.001 84c10 9.33301 19.667 14 29 14c8.66699 0 19 -5.33301 31 -16l80 -86c8 -10.667 12 -20.334 12 -29.001c0 -10 -4.66699 -20.333 -14 -31l-80 -88c-13.333 -13.333 -23 -20 -29 -20c-10.667 0 -20.334 4.66699 -29.001 14l-88 101
c-6.66699 8.66699 -10 17.334 -10 26.001c0 10 5.33301 20.333 16 31zM163.001 258c29.333 0 58.832 -21.833 88.499 -65.5s44.5 -94.167 44.5 -151.5c0 -72.667 -23.667 -148.167 -71 -226.5s-93.666 -117.5 -138.999 -117.5v43c48.667 28.667 77.667 92 87 190
c0 79.333 -43 133 -129 161v42z" />
    <glyph glyph-name="less" unicode="&#x3c;" horiz-adv-x="928" 
d="M884 1074l-625 -359l625 -355v-167l-840 481v83l840 484v-167z" />
    <glyph glyph-name="equal" unicode="=" horiz-adv-x="928" 
d="M44 631h840v-140h-840v140zM44 943h840v-140h-840v140z" />
    <glyph glyph-name="greater" unicode="&#x3e;" horiz-adv-x="928" 
d="M44 1241l840 -484v-83l-840 -481v167l625 355l-625 359v167z" />
    <glyph glyph-name="question" unicode="?" horiz-adv-x="622" 
d="M44 1330c85.333 69.333 165.999 104 241.999 104c88 0 158.667 -22.667 212 -68s80 -106 80 -182c0 -46 -10.833 -92.667 -32.5 -140s-63.167 -109.333 -124.5 -186c-60 -75.333 -107.167 -137.833 -141.5 -187.5s-51.5 -97.167 -51.5 -142.5c0 -42 11.667 -105 35 -189
h-47c-33.333 92 -50 162.333 -50 211c0 72.667 38.833 176.667 116.5 312s116.5 238.333 116.5 309c0 54.667 -15.667 97.667 -47 129s-74.666 47 -129.999 47c-56 0 -115.333 -27 -178 -81v64zM134.999 167l82.001 84c10 9.33301 19.667 14 29 14
c8.66699 0 19 -5.33301 31 -16l80 -86c8 -10.667 12 -20.334 12 -29.001c0 -10 -4.66699 -20.333 -14 -31l-80 -88c-13.333 -13.333 -23 -20 -29 -20c-10.667 0 -20.334 4.66699 -29.001 14l-88 101c-6.66699 8.66699 -10 17.334 -10 26.001c0 10 5.33301 20.333 16 31z" />
    <glyph glyph-name="at" unicode="@" horiz-adv-x="1870" 
d="M916 622c-55.333 -6.66699 -105.667 -33.333 -151 -80s-68 -113 -68 -199c0 -71.333 21.333 -136 64 -194s103.667 -87 183 -87c64.667 3.33301 106.667 59 126 167v476c-36 -42 -87.333 -69.667 -154 -83zM1304 29.001c-42 0.666992 -75.5107 6.66895 -100.511 18.002
s-45.5 29.333 -61.5 54c-19.333 -24.667 -46.666 -46.167 -81.999 -64.5s-79.666 -27.5 -132.999 -27.5c-96 0 -181.5 33.5 -256.5 100.5s-112.5 144.833 -112.5 233.5c0.666992 58 18.334 113.5 53.001 166.5s78.834 91.333 132.501 115s111.5 40.167 173.5 49.5
c44.667 10.667 81.334 24.834 110.001 42.501s43 42.5 43 74.5c-1.33301 46 -15 87.667 -41 125s-69 56 -129 56c-48 0 -88.5 -19.667 -121.5 -59s-49.833 -81 -50.5 -125h-45v159c0 13.333 24 26.666 72 39.999c48.667 13.333 108 20 178 20
c72.667 -1.33301 137.167 -22.833 193.5 -64.5s84.5 -94.167 84.5 -157.5v-589c0 -78 31.333 -117 94 -117c123.333 23.333 212.333 87.166 267 191.499s82 231.833 82 382.5c-13.333 223.333 -90.666 403.333 -231.999 540c-131.333 125.333 -291.333 188 -480 188
c-136.667 0 -267.5 -45.833 -392.5 -137.5s-214.833 -210.167 -269.5 -355.5c-44.667 -118.667 -67 -239 -67 -361c0 -208.667 43.167 -379.167 129.5 -511.5s188 -229.166 305 -290.499s223.167 -92 318.5 -92c182.667 0 374.334 69.333 575.001 208v-75
c-175.333 -122.667 -365.666 -184 -570.999 -184c-160 0 -313.667 40.833 -461 122.5s-261.666 195.667 -342.999 342s-122 300.166 -122 461.499s41.333 316.166 124 464.499s197.834 262.333 345.501 342s299.834 119.5 456.501 119.5c241.333 0 444.333 -76.667 609 -230
s247 -342 247 -566c0 -180 -58.667 -326.333 -176 -439c-116.667 -112 -232 -168.667 -346 -170z" />
    <glyph glyph-name="A" unicode="A" horiz-adv-x="1164" 
d="M814 1430l7.99902 -8v-7l-103 -63l-39 -71c0 -55.333 94.333 -411.333 283 -1068c50.667 -115.333 100.334 -173 149.001 -173l8 -8v-15l-16 -16h-94l-8 8l-8 -8l-157 8l-78 -8v8l-8 -8h-55l-16 16v7c54 29.333 88 55.666 102 78.999l8 39
c-14 100.667 -29.667 168.667 -47 204h8l-24 79h-322c-36.667 -153.333 -55 -247.666 -55 -282.999c0 -34 34 -75.667 102 -125v-16h-141l-8 8l-8 -8h-23l-8 8l-24 -8l-31 8l-8 -8l-47 8l-102 -8l-8 8v8c100 70 152.333 127.333 157 172c84 256.667 175.667 613 275 1069v31
c0 52 -34 88.667 -102 110v8l16 15h7l8 -7l8 7h283zM444.999 566v-7h251c-52.667 154 -94.667 308.333 -126 463c-14 -10 -55.667 -162 -125 -456z" />
    <glyph glyph-name="B" unicode="B" horiz-adv-x="1017" 
d="M750 1438v-7.99902l8 8h64l16 -16v-8l-48 -79c0.666992 -14.667 43 -78 127 -190l24 -96c0 -121.333 -58.333 -206 -175 -254c-14 -2 -24.667 -15 -32 -39c56 -17.333 114.333 -57 175 -119c42.667 -88.667 64 -160.334 64 -215.001c0 -51.333 -45 -149 -135 -293v-16
c22.667 -53.333 51.667 -80 87 -80v-15l-16 -24l-40 8h-611l-47 -8l-8 8l-40 -8h-95l-16 16c79.333 53.333 119 106 119 158v802l-8 48l8 39l-8 135h8c-14 138 -53.667 207 -119 207l-8 7v8l16 16h651zM338 1264l0.000976562 -437h39l24 8l32 -8
c160.667 0 258.667 26.333 294 79c20.667 46 33.667 99 39 159c-16.667 98 -40.334 167 -71.001 207h-24l-40 -8v8l-8 -8h-23l-8 8l-8 -8h-246zM338.001 676.001l8.00098 -39h-8l8 -24l-8 -8l8 -40v-405l23 8l8 -8h8l32 8l8 -8l8 8h317l40 207
c-16.667 211.333 -85.334 317 -206.001 317l-167 8h-63c-10.667 0 -16 -8 -16 -24z" />
    <glyph glyph-name="C" unicode="C" horiz-adv-x="948" 
d="M730 1437l23.999 -7.99707l8 8l31 -8l103 8l8 -8v-8c-142 -174.667 -213 -335 -213 -481v-47l8 -8v-8l7 8h32c36.667 0 55 -18.333 55 -55v-40c-22 -31.333 -45.667 -47 -71 -47c-72.667 0 -114.667 44.667 -126 134l-8 32c0 117.333 31.667 233 95 347h-316
c-46 -48.667 -93.333 -167 -142 -355l-8 -150v-95c0 -220.667 63.333 -378.334 190 -473.001l110 -32c96.667 0 170.334 58 221.001 174c21.333 61.333 32 129.666 32 204.999v8l15 16h95l16 -16c0 -288.667 -97.333 -470 -292 -544l-126 -16c-220 0 -362 165.667 -426 497
l-8 126v39c0 171.333 73.667 397.666 221 678.999l16 47l-24 55l8 8h418z" />
    <glyph glyph-name="D" unicode="D" horiz-adv-x="1034" 
d="M60 1430l39 -8l24 8v-8l8 8l55 -8h8l31 8l8 -8h8l40 8v-8l7 8h56l8 -8l7 8h229l8 -8l8 8h142v-16c-31.333 -26 -47 -49.667 -47 -71l197 -300c62.667 -116 94 -234 94 -354v-40c0 -170 -71 -346 -213 -528v-24c0 -20.667 16 -47 48 -79v-8c0 -10 -8 -15 -24 -15l-8 7h-8
l-23 -7v7l-8 -7l-40 7h-512l-95 -7v7l-8 -7h-39l-16 15l95 79c26 41.333 39 107 39 197v300l-8 32l8 31l-8 32l8 78v229l-8 32l8 31v32l-8 31l8 8v8l-8 8v8l8 31l-8 87v24c-20.667 50 -62.667 89.333 -126 118v8zM344 1264v-378l8 -95h-8l8 -8v-71l-8 -8l8 -8v-236l-8 -8
l8 -8v-260l15 -16h134l150 8l32 -8c84 175.333 126 338.333 126 489c0 200.667 -65.667 403 -197 607h-268z" />
    <glyph glyph-name="E" unicode="E" horiz-adv-x="1105" 
d="M935 1439l0.000976562 -7.99902l8 8h71l16 -16c-138.667 -133.333 -215 -225.333 -229 -276c36.667 -10 55 -28.333 55 -55c0 -46 -26.333 -72.333 -79 -79c-52 15.333 -78 44 -78 86v8c0 38 23.667 90.667 71 158v8c-50 36.667 -116 55 -198 55h-15
c-136.667 0 -205 -60.333 -205 -181l7 -158h-7l7 -8v-23l-7 -32l7 -8l-7 -39l7 -32l119 8h236v-16l-71 -205h8c23.333 0 41.666 -13 54.999 -39v-16c0 -42 -21 -63 -63 -63h-8c-47.333 0 -73.333 31.667 -78 95l23 102h-8l-142 -8v8l-7 -8h-16l-8 8l-47 -24l7 -7v-8l-7 -8
v-8l7 -40h-7l7 -7v-371c0 -89.333 52.667 -134 158 -134h40c84 0 176 23.667 276 71c-42 77.333 -63 145.666 -63 204.999v24c6.66699 78.667 46 118 118 118c42 -14 63 -37.667 63 -71c0 -42 -31.667 -63 -95 -63c0 -90.667 68.333 -211.667 205 -363l-15 -16h-127l-31 -8
l-32 8h-16l-55 -8v8l-8 -8h-7l-8 8l-8 -8h-142l-8 8l-8 -8h-339l-197 -8l-8 8v16c89.333 50.667 134 119 134 205v32l8 8l-8 7v142l8 8l-8 8v32l8 110l-8 24h8l-8 8v15h8l-8 95v497c0 98 -47.333 161 -142 189v8l24 24l55 -8h79l134 8v-8l8 8h181z" />
    <glyph glyph-name="F" unicode="F" horiz-adv-x="1105" 
d="M1046 1446l14.9971 -23c-133.333 -126 -214.666 -223.333 -243.999 -292c-84 -147.333 -126 -271 -126 -371c18.667 -89.333 34.334 -134 47.001 -134l32 24h47l39 -39v-56c-15.333 -36.667 -46.666 -55 -93.999 -55h-8c-100 34 -150 107.667 -150 221h-252v-71l7 -47
l-7 -48l7 -8v-7l-7 -8v-8l7 -24h-7l7 -24l-7 -7l7 -40v-189c0 -108 26.333 -173.667 79 -197c26.667 -4 40 -12 40 -24l-16 -16h-63l-8 8l-8 -8l-24 8l-63 -8l-8 8h-7l-32 -8l-8 8l-8 -8h-23l-134 -8l-16 24c84 40 126 95.333 126 166l8 47l-8 39v852l-8 32l8 8
c0 125.333 -42 204 -126 236l-16 16l16 16h134l8 -8l8 8h63l8 -8l7 8h135l71 8l7 -8l79 8h190zM351.997 1226v-150l-8 -8l8 -8v-221l39 8h221c0 124 60.333 266 181 426c0 23.333 -71 44.333 -213 63h-63c-110 -18 -165 -54.667 -165 -110z" />
    <glyph glyph-name="G" unicode="G" horiz-adv-x="1045" 
d="M977 1440l8 -8.00391v-15c-135.333 -121.333 -216.333 -241.666 -243 -360.999l-16 -63h32c41.333 -5.33301 62 -26 62 -62c-14 -42 -40 -63 -78 -63c-55.333 0 -89.333 34 -102 102v23c0 100 31.333 186.333 94 259v8h-321c-136 -214.667 -204 -395 -204 -541l8 -31h-8
l8 -8v-55c0 -171.333 88.667 -317.666 266 -438.999l63 -32c94 58.667 141 166 141 322l-8 23h8l-8 8v24l8 8l-8 7v8l8 8v8l-8 31l8 8l-8 8h-165l-7 8c-22 0 -45.667 -55 -71 -165c31.333 -16.667 47 -37.667 47 -63v-23c-15.333 -26 -36.333 -39 -63 -39
c-43.333 0 -69.333 31.333 -78 94v39l71 259l-8 23l8 8h62l39 -8l48 8h125l8 -8l8 8h109l8 -8l8 8h86l79 8l8 -8v-16c-89.333 -46.667 -134 -91 -134 -133l-15 -63l7 -7v-8l-7 -8l7 -55v-16l-7 -47l7 -8v-7l-7 -8l7 -39v-48l-7 -7l7 -8v-8l-7 -8l7 -8v-8l8 -133l-8 -8h-7
c-15.333 0.666992 -44.333 45.334 -87 134.001c0 -11.333 -91.333 -105.666 -274 -282.999h-8c-292.667 168.667 -439 385.667 -439 651c0 216 94 456.667 282 722l8 31l-16 63v7h526z" />
    <glyph glyph-name="H" unicode="H" horiz-adv-x="1089" 
d="M1045 1430v-8.00098c-84.667 -46 -127 -109.333 -127 -190v-715l8 -32l-8 -8v-8l8 -31l-8 -8l8 -8v-159c6.66699 -148 41 -222 103 -222l16 -24l-16 -16h-40l-31 8l-32 -8h-16l-8 8l-8 -8h-24l-8 8l-8 -8h-16l-8 8l-7 -8h-143l-40 -8l-16 24c1.33301 12 25 27.667 71 47
c37.333 28.667 56 89.667 56 183v453l-24 8l-39 -8h-342v-445c0 -119.333 31.667 -193.333 95 -222c16 0 24 -5.33301 24 -16v-16h-397v16c74 38.667 111 107.334 111 206.001v564l-8 32l8 24l-8 31l8 32l-8 64h8l-8 8v143c0 169.333 -26.333 254 -79 254l-48 39l16 16h80
l47 -8l32 8v-8l8 8h227l11 -16c-84.667 -31.333 -127 -100 -127 -206v-365c0 -10.667 8 -16 24 -16l87 8l96 -8l95 8l103 -8l8 8v23l-8 96h8l-8 8v254c0 66.667 -16 117 -48 151l-7 8l-72 47c0 3.33301 2 6 6 8h423z" />
    <glyph glyph-name="I" unicode="I" horiz-adv-x="549" 
d="M489 1445l8 -7.99805v-8c-95.333 -65.333 -143 -126 -143 -182v-405l8 -48l-8 -24l8 -48v-15h-8l8 -80v-222c0 -238.667 31.667 -358 95 -358c0 -10 13.333 -15 40 -15l8 -8v-8l-16 -16h-310l-79 -8v8l-8 -8h-24l-16 16c0 9.33301 29 27.666 87 54.999
c32 37.333 48 74.666 48 111.999v682l-8 88l8 8v8l-8 47v40l8 8l-8 8v32l8 8l-8 8v135c0 55.333 -45 113.333 -135 174l16 16h127l8 -8l8 8h190z" />
    <glyph glyph-name="J" unicode="J" horiz-adv-x="755" 
d="M250 1433l79.999 0.000976562l8 -8l8 8h8l31 -8l32 8l32 -8l40 8l8 -8h8l8 8h23v-8l80 8h79l16 -16c-95.333 -50.667 -143 -103.667 -143 -159l-8 -119v-190l8 -119h-8l8 -8l-8 -40l8 -8v-8l-8 -8v-8l8 -47v-16l-8 -8l8 -8l-8 -80v-31l8 -159h-8l8 -24l-8 -8l8 -40v-87
c0 -38 31.667 -112 95 -222l24 -104c0 -116 -68.667 -235 -206 -357l-40 -48h-95l-24 8l-40 -8h-222l-16 16c124 207.333 214 324 270 350l48 8h8c28.667 0 52.334 -16 71.001 -48v-48l-40 -39h-23l-56 16c-42.667 -51.333 -64 -83.333 -64 -96h199c52.667 36 79 89 79 159
c0 46 -47.667 144 -143 294l-8 48v984l-7 32l7 24c0 91.333 -47.333 154.666 -142 189.999l-8 8v8z" />
    <glyph glyph-name="K" unicode="K" horiz-adv-x="1108" 
d="M613 1437l39.999 -7.99902h127l63 8l55 -8l158 8v-24c-81.333 0 -173.333 -87 -276 -261l-214 -300c124 -263.333 250.667 -516.666 380 -759.999c70.667 -36 110 -62.333 118 -79l-8 -8h-174l-7 8l-8 -8h-111l-119 -8l-8 8v8c0 10 29 28.667 87 56l8 39
c-12.667 62 -81 209.667 -205 443l-56 135h-8c-68.667 -83.333 -103 -136.333 -103 -159v-332c0 -78.667 42.333 -139.334 127 -182.001l-16 -16h-95l-8 8l-23 -8l-48 8l-63 -8v8l-8 -8h-150l-16 16c89.333 49.333 134 115.333 134 198v221l-8 40l8 47v111l-8 127l8 23l-8 8
v8l8 32l-8 47l8 8v8l-8 32h8l-8 8v8l8 8l-8 23l8 119l-8 103l8 8v8c0 63.333 -26.333 118.666 -79 165.999c-42 12.667 -63 23 -63 31v8l16 16h103l39 -8l48 8h47l8 -8l8 8h150l16 -16c-84.667 -42.667 -127 -106 -127 -190l-7 -23l7 -8l-7 -40v-31l7 -87l-7 -8v-8l7 -48
v-55l-7 -8l7 -8v-16l-7 -8l7 -8v-7l-7 -8v-8l7 -8v-8l-7 -8v-8l7 -39c46.667 51.333 163 214.666 349 489.999l-24 8l-24 -8v8c-31.333 -5.33301 -47 -18.666 -47 -39.999c-49.333 -86.667 -97 -142 -143 -166h-31c-42.667 0 -64 21 -64 63v24
c8.66699 21.333 27.334 32 56.001 32h15l32 -24c36 22 81 111.667 135 269z" />
    <glyph glyph-name="L" unicode="L" horiz-adv-x="1061" 
d="M606 1440l31 -8.00098l8 8l48 -8l111 8l79 -8l95 8l7 -8v-24c-147.333 -189.333 -221 -376.333 -221 -561c0 -74 8 -111 24 -111l23 16h40l40 -40v-32c0 -30 -18.667 -53.667 -56 -71h-24c-75.333 0 -125.333 66 -150 198l8 40v23c0 110 31.667 239.333 95 388v8l-40 -8
h-221l-16 -16v-8l8 -71l-8 -8v-8l8 -24h-8l8 -7v-40l-8 -8l8 -8v-16l-8 -8l8 -7v-24l-8 -71l8 -24l-8 -8l8 -55v-333c0 -162.667 -58 -273.334 -174 -332.001v-8l55 -8c338.667 0 536.667 37 594 111l31 16l16 -16v-8l-190 -261h-158l-47 -8l-40 8l-47 -8l-8 8h-8l-48 -8
h-16l-8 8l-7 -8h-24l-24 8l-39 -8h-309v16c89.333 76.667 134 137.334 134 182.001l-7 31l15 16h8l95 -63c26.667 48.667 40 117.334 40 206.001v15l-8 32l8 32l-8 134h8l-8 8v40l8 31l-8 32h8l-8 8v16l8 31l-8 24l8 95l-8 24h8l-8 8v118c0 58 -26.333 87 -79 87v8
c219.333 206 338 309 356 309h8z" />
    <glyph glyph-name="M" unicode="M" horiz-adv-x="1844" 
d="M84 1432l38.999 -7.99805h230l23 -32l-8 -47l8 -103h-8l8 -8v-8l-8 -47l8 -8v-8l-8 -32l8 -8v-7l-8 -24l8 -8h8c137.333 158 206 250.333 206 277c0 22 -16 35 -48 39v16l8 8v8l40 -8h55l71 8l8 -8h8l8 8l56 -8h23l48 8l24 -8l47 8v-8l8 8h79l16 -16
c-63.333 -45.333 -95 -106 -95 -182v-166h16c0 13.333 71 108.333 213 285v32l-31 39l8 8h269l8 -8l7 8h135l8 -8l8 8h24l7 -8l8 8h48l16 -16c-132 -196.667 -198 -415.334 -198 -656.001c4 -125.333 12 -199.333 24 -222l-8 -8v-8c32 -148 79.333 -274.667 142 -380
c43.333 -50.667 93.333 -92.667 150 -126l-15 -16l-72 8l-8 -8l-55 8h-79l-48 -8c-35.333 0 -93.333 147.667 -174 443l-31 269l8 32l-8 8c0 136 34.333 304.667 103 506h-8l-8 8h-8l-40 -8l-55 8l-40 -8l-31 8l-277 -348l-8 -48v-87h16v-8l39 8h182l16 -16
c-45.333 -42.667 -69 -82 -71 -118h-182v-364l8 -32l-8 -8v-8c0 -101.333 44.667 -175 134 -221l-15 -16h-24l-32 8l-24 -8l-47 8l-63 -8l-8 8l-40 -8h-71l-8 8l-8 -8h-79l-16 16c90 59.333 135 114.666 135 165.999v111l8 8l-8 8v7l8 64l-8 23l8 8v8l-8 48l8 47l-8 32h8
l-8 8l8 39l-8 24l8 32l-174 -8c-10.667 12 -16 30.333 -16 55l-71 71l15 16h56l8 -8l8 8h47l8 -8l8 8h111v40l-8 55h8l-8 8v24l8 8l-8 8v23l8 8l-8 8v32l8 32l-8 31v40l8 8l-8 8v7l8 8l-8 40v8l8 31l-8 32l8 8v8h-111c-22 0 -56.333 -31.667 -103 -95l-198 -261v-269l-8 -8
l8 -8v-103l-8 -31l8 -32v-55l-8 -8l8 -8v-24l-8 -8l8 -8v-16l-8 -31l8 -32l-8 -8c0 -111.333 45 -185 135 -221c16 0 24 -5.33301 24 -16l-16 -16h-79l-8 8l-8 -8h-16l-8 8l-8 -8h-39l-8 8l-8 -8h-261l-16 16c2.66699 12 26.334 25 71.001 39c58 56.667 87 120 87 190l-8 40
v933c0 90 -52.667 150.667 -158 182v8c0 10.667 13.333 16 40 16v8z" />
    <glyph glyph-name="N" unicode="N" horiz-adv-x="1243" 
d="M302 1424l31 -22.999v-31l-8 -63l8 -62v-24l-8 -7l8 -8v-31l-8 -71l8 -23l-8 -8h8c150.667 172 226 271 226 297l-39 39l16 15h522l16 -15c-130 -182 -195 -382.333 -195 -601l-8 -8l8 -8v-23l-8 -24c0 -226 67.667 -439 203 -639c46 -40 87.667 -63.667 125 -71v-7
l-16 -16h-288c-47.333 78 -97 208 -149 390c-26 112 -41.667 224 -47 336c0 152 34 326 102 522h-187l-281 -343v-211l8 -249h-8l8 -8v-16l-8 -7l8 -8v-47l-8 -8l8 -8v-125c0 -96 44 -166 132 -210c0 -10.667 -7.66699 -16 -23 -16l-188 8l-7 -8h-8l-8 8l-78 -8h-101l-16 16
c83.333 41.333 125 103.666 125 186.999l8 86l-8 8v7l8 8l-8 47l8 47l-8 86v156l8 8l-8 7v164l8 8l-8 8v312c0 116.667 -41.667 194.667 -125 234v8l16 16h210z" />
    <glyph glyph-name="O" unicode="O" horiz-adv-x="954" 
d="M458 1448l23.0029 0.000976562c185.333 -109.333 320.666 -296.666 405.999 -561.999l23 -156l-8 -70v-55l-7 -8l7 -8v-7c-54.667 -194.667 -127.334 -327.334 -218.001 -398.001c-88.667 -96 -146 -166.333 -172 -211h-8c-306.667 174 -460 429 -460 765
c0 164 62.333 299 187 405c43.333 31.333 90.333 47 141 47c70.667 0 127.667 -44 171 -132h16v-8c-22.667 -161.333 -74.667 -242 -156 -242c0 -8.66699 -39 -19 -117 -31c0 -9.33301 -18.333 -25 -55 -47l-8 8v15c57.333 106 94 186.667 110 242h8
c23.333 -20.667 41.333 -31 54 -31c42 4 63 24.667 63 62c0 47.333 -28.667 71 -86 71c-109.333 -28 -164 -127 -164 -297v-62c0 -98 39 -220.333 117 -367c113.333 -130 183.666 -195 210.999 -195h7c120 138.667 180 287 180 445l8 7v8
c0 213.333 -70.333 390.333 -211 531c-72 67.333 -163 101 -273 101l-70 -8l-8 8v8c134 45.333 230.333 102.666 289 171.999z" />
    <glyph glyph-name="P" unicode="P" horiz-adv-x="1001" 
d="M442 1424l31 -7.99805l8 8h8l8 -8h7l24 8v-8l8 8h7l8 -8h8l31 8v-8l8 8h250v-24c-36.667 -32.667 -55 -61.334 -55 -86.001c109.333 -94 164 -198 164 -312v-7c0 -94 -62.333 -174.667 -187 -242c-80 -40.667 -215.333 -77.334 -406 -110.001l-8 -23l8 -70l-8 -8l8 -8
v-257c5.33301 -151.333 34 -227 86 -227c0 -8.66699 15.667 -19 47 -31v-8l-8 -7v-8l-227 8l-179 -8l-8 8v7c78 40 117 94.667 117 164v227l8 148l-8 8v7l8 32l-8 7h-8l-23 -23l23 -23v-8c0 -42 -26 -63 -78 -63h-7c-20 12 -38.333 33 -55 63c36 88 77.667 132 125 132
c0 10.667 7.66699 16 23 16v86l-8 39l8 47l-8 195h8l-8 8v117l8 7c-26 125.333 -72.667 188 -140 188v15l15 16l47 -8l78 8h203zM567 1252h-211v-406l8 -31l-8 -31v-31h8c270.667 58 406 149 406 273v62c0 26.667 -21 84 -63 172h-47l-46 -8l-8 8z" />
    <glyph glyph-name="Q" unicode="Q" horiz-adv-x="1079" 
d="M450 1424h8c128.667 -42 256 -179.667 382 -413c41.333 -110.667 62 -212.334 62 -305.001v-70c0 -124.667 -49.333 -262.667 -148 -414l39 -23l63 -23c30.667 0 59 26 85 78v23l-7 -8h-24c-26 13.333 -39 36.666 -39 69.999c13.333 42 36.666 63 69.999 63h8
c42.667 0 71.334 -28.667 86.001 -86v-47c0 -65.333 -59.667 -153.666 -179 -264.999l-39 -47h-8c-86 104.667 -135.667 159.334 -149 164.001c-64 -57.333 -116 -114.666 -156 -171.999h-7c-196.667 98 -342.334 280.333 -437.001 547l-16 226h8l-8 8
c0 142 59.667 272 179 390c38.667 31.333 83 47 133 47h16c97.333 0 157 -65 179 -195c0 -118.667 -88.333 -194.334 -265 -227.001l-47 -39h-16v8c62.667 163.333 99.334 246.666 110.001 249.999h8c18.667 -16 36.667 -24 54 -24c36.667 0 55 18.333 55 55v31
c-14.667 31.333 -46 47 -94 47c-104 -43.333 -156 -157.666 -156 -342.999c19.333 -144.667 58.333 -269.667 117 -375l94 -109h15l172 179l55 -93c32.667 21.333 58.667 115 78 281l-8 23l8 8c0 124 -44.333 261.667 -133 413c-84.667 125.333 -212 188 -382 188l-39 -8
l-8 8v7c7.33301 12.667 59.333 33.667 156 63zM434 230c17.333 -24 48.667 -50 94 -78h15l39 47v8l-101 39z" />
    <glyph glyph-name="R" unicode="R" horiz-adv-x="1087" 
d="M606 1424l38.999 -8l78 8l39 -8l62 8l8 -8v-7c-26 -27.333 -39 -51 -39 -71v-8c0 -19.333 41.667 -76.333 125 -171l31 -109v-71c0 -114 -98.667 -207.667 -296 -281c170.667 -426 272 -639 304 -639c57.333 -21.333 86 -37 86 -47v-16h-125l-8 8l-8 -8h-7l-39 8l-102 -8
l-265 663h-8l-133 -23v-257l8 -47l-8 -32c0 -140.667 26 -223.667 78 -249c47.333 -16 71 -29 71 -39l-16 -16h-289l-117 -8l-15 24c82.667 33.333 124 93 124 179v406l-23 -23l16 -32c-5.33301 -41.333 -26.333 -62 -63 -62c-28.667 0 -52 15.667 -70 47v54
c9.33301 28.667 56 67.667 140 117v86l-7 55h7l-7 23l7 63l-7 86l7 93l-7 63h7c-15.333 140 -56.666 210 -123.999 210l-8 8v16l15 15l32 -7l7 7l47 -7l63 7v-7l7 7h336zM340.999 1245v-8.00098l7 -39h-7l7 -8v-429l-7 -8v-8h7c148 35.333 254.667 74.333 320 117
c62.667 38.667 94 101.334 94 188.001v7c0 75.333 -26 140.333 -78 195h-55l-47 -7l-7 7h-8l-39 -7l-47 7l-8 -7l-39 7l-47 -7l-23 7z" />
    <glyph glyph-name="S" unicode="S" horiz-adv-x="993" 
d="M934 1432l14.998 -23c-143.333 -162 -270.666 -354.667 -381.999 -578c118 -29.333 219.333 -94.333 304 -195c31.333 -62.667 47 -104.334 47 -125.001v-86c0 -78 -73 -182 -219 -312l-7 -39l39 -54c0 -10.667 -8 -16 -24 -16l-62 8l-55 -8v8l-8 -8h-507
c-13.333 0 -23.666 18.333 -30.999 55c106 119.333 171 236.333 195 351h-39c-36.667 0 -55 18 -55 54v24c22.667 41.333 54 62 94 62c62.667 -22.667 94 -66.667 94 -132c-2 -43.333 -30.667 -124 -86 -242h8l23 -8l8 8h304c46.667 0 96 67.667 148 203l8 54
c0 101.333 -80.667 179.333 -242 234c-15.333 -62 -23 -119 -23 -171v-16c0 -29.333 10.333 -63 31 -101l47 15c41.333 0 62 -20.667 62 -62c0 -47.333 -28.333 -71 -85 -71h-16c-93.333 24 -140 107.333 -140 250c0 55.333 13 120.333 39 195
c-218.667 82 -328 186 -328 312c0 84.667 59.667 186.334 179 305.001c16 18.667 24 36.667 24 54l-8 32l8 7h210l94 8v-8l8 8h8l7 -8l8 8h16l47 -8l7 8h8l8 -8l39 8h141zM558.998 1260h-211.001c-57.333 -60 -91 -117 -101 -171v-16c0 -75.333 78 -143 234 -203
c42.667 104.667 115.334 234.667 218.001 390h-15v8l-24 -8l-23 8z" />
    <glyph glyph-name="T" unicode="T" horiz-adv-x="1144" 
d="M470 1434l55 -8l47 8l8 -8h8l31 8l32 -8l134 8h299l16 -16v-7c-115.333 -149.333 -173 -283.333 -173 -402v-48l23 -141h8l47 23c26.667 0 50.334 -18.333 71.001 -55v-32c0 -27.333 -18.333 -50.666 -55 -69.999h-47c-105.333 28.667 -158 131 -158 307
c0 74.667 26.333 171.667 79 291l-102 40c-100 0 -150 -52.667 -150 -158l8 -8v-331l-8 -7l8 -8v-323l8 -32l-8 -31v-16l8 -40l-8 -55l8 -47l-8 -39c13.333 -131.333 60.666 -197 141.999 -197l7 -8v-8l-15 -16h-158l-8 8l-8 -8h-8l-7 8l-40 -8h-213l-15 16l118 79
c20.667 47.333 31 105 31 173v181l8 8l-8 8v63l8 24l-8 39v118l8 71l-8 55l8 32l-8 31l8 8l-8 8v95l8 47l-8 39l8 8l-8 8v95c-10 73.333 -44 110 -102 110h-8c-40 0 -76.667 -15.667 -110 -47c26 -60 47 -160 63 -300c-20.667 -194 -76 -291 -166 -291h-23
c-42 0 -65.667 26 -71 78h8l-8 8v8c22 42 45.667 63 71 63l55 -8l23 111c0 175.333 -55 327.666 -165 456.999v16l16 15h339z" />
    <glyph glyph-name="U" unicode="U" horiz-adv-x="1099" 
d="M641 1438l32 -0.000976562l87 -8l8 8h8l40 -8l56 8l24 -8l87 8h72v-16l-88 -72c-31.333 -35.333 -47 -88.333 -47 -159v-175l8 -32l-8 -32l8 -24l-8 -24l8 -39l-8 -8v-8l8 -24l-8 -8v-8l8 -8l-8 -40v-40l8 -87l-8 -40l8 -32h-8l8 -8v-24l-8 -8l8 -8v-16l-8 -8l8 -8v-23
l-8 -8l8 -24l-8 -32l8 -8v-8l-8 -40l8 -24l-8 -39l8 -40h-8l8 -8v-40l-8 -8c24.667 -100.667 61.667 -151 111 -151l16 -24l-8 -8h-215l-56 -8l-16 24v175l8 56h-8l-214 -255l-40 8l-231 -8h-143l-32 -8c-32 6.66699 -48 14.667 -48 24c90 47.333 135 116.333 135 207v255
l-8 31l8 32v128l-8 31l8 32v72l-8 48l8 8v8l-8 8v8l8 23l-8 8l8 40v279c0 84.667 -42.333 148.334 -127 191.001v16h287l15 -16l-8 -48l8 -8l-8 -40v-135l8 -32l-8 -32v-63l8 -40l-8 -48v-48l8 -32l-8 -7l8 -80v-64l-8 -8l8 -8v-16l-8 -47l8 -8v-8l-8 -8v-8l8 -32v-16h-8
l8 -96v-167l-8 -8l8 -8v-8l-8 -8l8 -7v-8l-8 -88v-8l8 -8v-8l40 8h175l183 223v868c0 70.667 -37 123.667 -111 159v24z" />
    <glyph glyph-name="V" unicode="V" horiz-adv-x="990" 
d="M590 1437c161.333 -103.333 269.333 -250.998 324 -442.998l32 -182h-8l8 -8c0 -207.333 -66 -405.333 -198 -594c-20.667 -28.667 -31 -65.334 -31 -110.001c0 -26.667 21 -55.667 63 -87l-16 -16h-119l-31 -8l-8 8h-8l-24 -8v8l-8 -8h-8l-8 8h-8l-7 -8h-8l-8 8l-40 -8
h-8l-23 8l-24 -8l-198 8l-174 -8l-8 8v8c66 45.333 100.333 77 103 95l32 134l-8 8l8 40v356l-8 47l8 40v103l-8 47l8 40l-8 23l8 40v79l-8 32l8 31v32c0 117.333 -24 188.666 -72 213.999l-55 47l16 16h23l40 -8l48 8h15l8 -8l8 8h119l16 -16v-775l8 -79l-8 -72v-324l23 -8
l8 8h32l8 -8l8 8h95l31 -8l32 8h47c95.333 216 143 377 143 483l-8 8l8 55v8l-8 39h8c0 118 -42.333 247.333 -127 388l-103 95c-68 -91.333 -102 -162.666 -102 -213.999l8 8c52.667 -5.33301 79 -29 79 -71c0 -36.667 -26.333 -60.334 -79 -71.001
c-58.667 18 -88 49.667 -88 95l-7 63c16 112 95 241.333 237 388z" />
    <glyph glyph-name="W" unicode="W" horiz-adv-x="1568" 
d="M1152 1453l16.002 0.00292969c237.333 -174.667 356 -401.667 356 -681c0 -152 -68.667 -336.667 -206 -554c-21.333 -42.667 -32 -74.334 -32 -95.001c0 -34.667 26.333 -68.667 79 -102v-8l-8 -8v-8l-39 8h-71l-32 -8l-32 8h-47l-79 -8v8l-8 -8h-63l-8 8l-8 -8h-32
l-8 8l-8 -8h-47l-24 8l-40 -8h-189l-16 16c94.667 49.333 142 99.333 142 150v174l-340 -245v-8c0 -8.66699 26.333 -32.334 79 -71.001l-16 -16h-411l-16 16c94.667 49.333 142 123 142 221l-7 8l7 56v110l-7 40l7 47v48l-7 47l7 8v8l-7 8v8l7 8v8l-7 63l7 48l-7 7v8l7 8
l-7 56l7 55l-7 8v8l7 8v8l-7 23l7 95v72c0 147.333 -26.333 239.333 -79 276c-42 14.667 -63 28 -63 40v16l95 -8h16l31 8l8 -8l40 8l47 -8l24 8v-8l8 8h24c10.667 0 16 -8 16 -24l-8 -182l8 -8v-8l-8 -31v-8l8 -32l-8 -24l8 -8v-7l-8 -8v-8l8 -24h-8l8 -8l-8 -55l8 -32
l-8 -8l8 -55v-712l15 -16l380 277v522l8 8l-8 8v63l8 8l-8 8v32l8 158l-8 8h-182c-62 -68 -96.333 -123.333 -103 -166c32 0 50.667 -21.333 56 -64c-7.33301 -47.333 -31 -71 -71 -71c-53.333 0 -80 39.667 -80 119c23.333 88.667 86.666 204.667 189.999 348h190l32 8
l31 -8h80l118 8v-16c-63.333 -40 -95 -100.667 -95 -182v-277l8 -134h-8l8 -8v-8l-8 -8l8 -8v-24l-8 -24l8 -39v-87l-8 -48l8 -23h-8l8 -8v-111l-8 -8l8 -8v-229l-8 -8v-8l24 -8l103 8v-8l8 8h47l8 -8l8 8h48l8 -8c50 0 102.667 137 158 411l16 127l-8 24h8l-8 8v39
c0 192 -74 350.333 -222 475c-63.333 -72.667 -95 -141.334 -95 -206.001c52.667 0 79 -21 79 -63c-6.66699 -47.333 -30.334 -71 -71.001 -71h-8c-47.333 0 -79 36.667 -95 110c0 129.333 76.667 272 230 428z" />
    <glyph glyph-name="X" unicode="X" horiz-adv-x="1205" 
d="M99 1430l139.999 -8l63 8v-8l8 8h23l8 -8l8 8l31 -8l62 8l8 -8l39 8h32l15 -16c0 -10.667 -20.667 -21 -62 -31c-26 -27.333 -39 -51 -39 -71v-23c0 -24.667 57.333 -147 172 -367h7c125.333 259.333 188 397.333 188 414c0 30 -36.333 53.333 -109 70v8l15 16h102l47 -8
l31 8v-8l8 8h242l16 -16l-133 -78c-108.667 -176.667 -213 -377.334 -313 -602.001c214 -458 357.333 -687 430 -687l23 -24l-15 -15l-47 7l-31 -7l-8 7h-8l-8 -7l-31 7l-39 -7l-39 7l-55 -7l-8 7l-39 -7h-78l-16 15l86 63l8 39c0 46 -70.333 199.667 -211 461
c-69.333 -146.667 -113.666 -225 -132.999 -235l8 -7v-16c-67.333 -114.667 -101 -192.667 -101 -234c13.333 -36.667 39.333 -55 78 -55l8 -8v-8l-16 -15h-281l-133 -8l-8 8v15l102 47c45.333 32.667 118 160.334 218 383.001l172 320c-64 106 -139.333 254.667 -226 446
c-77.333 119.333 -150.333 179 -219 179v16l8 8v8z" />
    <glyph glyph-name="Y" unicode="Y" horiz-adv-x="1090" 
d="M60 1438l39.001 -8.00195h198l39 8l16 -23v-48l-8 -8l8 -8v-1160l-8 -7v-8l31 -8l40 8h134c32.667 0 90.667 63 174 189l23 24v521l8 31l-8 32v142l8 39c-6.66699 168.667 -43.334 253 -110.001 253l-8 8v7l16 16h31l71 -8l79 8h16l8 -8l8 8h8l7 -8l8 8l56 -8l39 8v-8
l8 8h39l16 -16c-84 -45.333 -126 -113.666 -126 -204.999v-805l-8 -7l8 -8v-95l-8 -8c0 -50 36.667 -142 110 -276l8 -79c0 -106 -92 -211.333 -276 -316c-24 -24 -47.667 -63.333 -71 -118h-8l-94 8h-16v-8l-79 8h-292l-79 -8l-8 8v16c187.333 246.667 324 370 410 370
c68.667 0 103 -23.667 103 -71c0 -52 -29 -78 -87 -78l-63 47c-64 -68.667 -100.667 -103 -110 -103v-15h39l24 -8l39 8h197l40 7l8 -7c94.667 76 142 157.333 142 244c0 40.667 -31.667 114.334 -95 221.001l-8 95c-10 0 -70.333 -76.333 -181 -229l-8 -8h-442l-55 -8l-8 8
v16c84 44 126 107 126 189l8 48l-8 7v8l8 24l-8 103l8 31l-8 32l8 31l-8 24l8 8v8l-8 31h8l-8 8v55l8 8l-8 8v8l8 47l-8 8v8l8 24l-8 8l8 39v55l-8 87l8 24l-8 79l8 8l-8 8v8l8 7v8l-8 8l8 32l-8 55h8l-8 8v47c0 92 -44.667 160.333 -134 205z" />
    <glyph glyph-name="Z" unicode="Z" horiz-adv-x="1178" 
d="M640 1437l30.998 -7.99609l39 8l47 -8h16l31 8l32 -8l8 8h7l8 -8h8l86 8v-8l8 8h8l8 -8l8 8h23l8 -8l8 8h102v-16c-2 -9.33301 -46.333 -35.333 -133 -78c-56 -82.667 -145 -255.334 -267 -518.001h133l8 -8h8l-24 -39v-16c0 -18.667 10.667 -39.334 32 -62.001l-16 -16
h-78l-8 8l-8 -8h-110c-13.333 0 -99.333 -172.333 -258 -517v-24c22.667 -20.667 64.334 -31 125.001 -31h39c165.333 0 272.666 26 321.999 78c-68 91.333 -102 175 -102 251c10 78.667 46.667 118 110 118c41.333 -14.667 62 -41 62 -79
c-7.33301 -36.667 -25.666 -55 -54.999 -55l-7 8l-8 -8v-15l39 -126l-8 -8c16.667 0 56 -49.333 118 -148l94 -110l-8 -8v-8c-47.333 3.33301 -71 8.66602 -71 15.999l-8 -8h-196l-78 -8v8l-8 -8h-8l-23 8l-39 -8h-400l-110 8l-47 -8v8l-8 -8h-70l-16 16
c87.333 45.333 137 89.666 149 132.999l274 533h-102l-15 16l15 23v16c0 32 -20.667 55.667 -62 71v7l8 8h219c13.333 1.33301 68.333 108.666 165 321.999c36.667 54 55 98.333 55 133v16c-6.66699 23.333 -61.667 39 -165 47c-43.333 0 -116.666 -21 -219.999 -63v-24
c58 -100 87 -173 87 -219c0 -60.667 -36.667 -94.667 -110 -102h-8l-47 47v16c0 41.333 23.667 62 71 62c-23.333 98.667 -107 216.334 -251 353.001l15 16h486z" />
    <glyph glyph-name="bracketleft" unicode="[" horiz-adv-x="498" 
d="M125 1573v-1765h329v-55h-410v1875h410v-55h-329z" />
    <glyph glyph-name="backslash" unicode="\" horiz-adv-x="783" 
d="M125 1669l614 -1864h-81l-614 1864h81z" />
    <glyph glyph-name="bracketright" unicode="]" horiz-adv-x="498" 
d="M44 1573v55h410v-1875h-410v55h329v1765h-329z" />
    <glyph glyph-name="asciicircum" unicode="^" horiz-adv-x="975" 
d="M505 1385l426 -718h-92l-351 587l-350 -587h-94l431 718h30z" />
    <glyph glyph-name="underscore" unicode="_" horiz-adv-x="1112" 
d="M44 -100h1024v-60h-1024v60z" />
    <glyph glyph-name="grave" unicode="`" horiz-adv-x="549" 
d="M505 1079l-69 0.000976562l-330 202c-20.667 13.333 -36.167 26.666 -46.5 39.999s-15.5 27.333 -15.5 42c0 20.667 6.83301 37.667 20.5 51s31.5 20 53.5 20c13.333 0 26.833 -4 40.5 -12s32.167 -23.667 55.5 -47z" />
    <glyph glyph-name="a" unicode="a" horiz-adv-x="727" 
d="M676 922l7.00098 -7v-8c-76 -56 -114 -119.333 -114 -190l8 -8v-8l-8 -22l8 -8l-8 -38v-8l8 -30l-8 -23l8 -76h-8l8 -8v-7l-8 -8l8 -7v-23l-8 -46l8 -8v-7l-8 -8v-7l8 -46h-8l8 -8v-15l-8 -7l8 -8v-99c0 -75.333 33 -131 99 -167v-16h-221l-15 16v83h-8
c-35.333 -80.667 -86 -121 -152 -121h-15c-126.667 0 -200.334 119 -221.001 357c0 140 53.333 297.333 160 472l7 46v15l-15 23v7l15 16h335zM158.001 420l0.000976562 -15c23.333 -188 76.666 -282 159.999 -282h15c60 0 95.667 61 107 183v7l-8 8l8 38v282l-8 68l8 53
l-16 16h-159c-71.333 -116.667 -107 -236 -107 -358z" />
    <glyph glyph-name="b" unicode="b" horiz-adv-x="742" 
d="M52 1371l220.001 -0.000976562l16 -15v-53l-8 -8l8 -8v-365l7 -7v-8l76 8h175l15 -16c-20 -30 -30 -52.667 -30 -68c0 -34 33 -107.667 99 -221c45.333 -79.333 68 -170.666 68 -273.999v-7c-4 -180.667 -67.333 -295 -190 -343l-61 -7
c-50.667 0 -101.334 35.333 -152.001 106l-243 -99l-8 8v15c76 51.333 114 132.333 114 243l-7 8v23l7 8l-7 7v8l7 7l-7 38v54l7 7l-7 8v738c0 106.667 -18 160 -54 160l-45 38v15zM288.001 777.999v-419c0 -128 30.333 -206.667 91 -236h30c68.667 0 117 61 145 183l7 121
c0 116 -35.333 233 -106 351h-167z" />
    <glyph glyph-name="c" unicode="c" horiz-adv-x="636" 
d="M584 928l8 -6.99805v-8c-76 -140.667 -114 -234.334 -114 -281.001c40.667 -4 61 -22 61 -54c-10.667 -30 -31 -45 -61 -45h-23c-30.667 17.333 -46 40 -46 68v23l38 152h-182c-24 -20 -54.667 -98.667 -92 -236l8 -7l-15 -92c20 -197.333 83.333 -296 190 -296v-8
c64.667 0 115.334 48.333 152.001 145c0 55.333 7.66699 83 23 83h30l23 -23c0 -161.333 -43 -270.333 -129 -327c-18.667 -15.333 -59.334 -28 -122.001 -38c-123.333 0 -212 76 -266 228c-15.333 56 -23 104.333 -23 145c0 123.333 50.667 275.666 152 456.999l15 60
l-22 39l15 15h190z" />
    <glyph glyph-name="d" unicode="d" horiz-adv-x="727" 
d="M348 1385l31 -8.00293l7 8l38 -8h23l31 8l7 -8h8l76 8l8 -8v-7l-8 -8l8 -8v-7l-8 -8l8 -7v-274l-8 -8l8 -8v-281l7 -122l-7 -23l7 -38l-7 -7l7 -8v-335l8 -30l-8 -8v-7c0 -61.333 33 -114.666 99 -159.999l-15 -15l-23 7l-53 -7l-23 7l-46 -7h-60l-16 15v38l8 7l-8 39
c-52 -75.333 -97.667 -113.666 -137 -114.999h-53c-142 34 -213 150.667 -213 350v8l8 46l-8 7v8c12 95.333 52.667 204.333 122 327c30 42.667 45 80.667 45 114c0 17.333 -7.33301 35.333 -22 54v15h251v205l-8 31l8 30v31c0 62.667 -38 113.334 -114 152.001z
M166 516.997l7 -7l-7 -53v-39c0 -118 43 -211.667 129 -281l23 -8c76 0 119 63.667 129 191v213l-7 30l7 31v45l-7 31l7 7v8l-7 7l7 54v38l-23 7l-83 -7h-8l-7 7c-46 -2.66699 -69 -12.667 -69 -30c-12 0 -42.333 -81.333 -91 -244z" />
    <glyph glyph-name="e" unicode="e" horiz-adv-x="674" 
d="M622 916l8 -7.99902v-15c-50.667 -23.333 -76 -79.333 -76 -168c0 -166.667 -96.333 -278.334 -289 -335.001l-76 -7h-16c32 -172.667 90.333 -259 175 -259h31c61.333 0 104.333 53.333 129 160c3.33301 45.333 11 68 23 68h38l23 -15
c0 -248.667 -96.333 -373 -289 -373c-64.667 11.333 -125.667 47 -183 107c-50.667 94.667 -76 175.667 -76 243c0 134 43 276.333 129 427c20.667 30 31 57.667 31 83v31l-23 30v8l15 15h15l8 -8l8 8h342zM173 467.001v-37.999l-7 -8v-8l7 -7
c167.333 51.333 251 150 251 296v46l-15 15h-137c-57.333 -90.667 -90.333 -189.334 -99 -296.001z" />
    <glyph glyph-name="f" unicode="f" horiz-adv-x="560" 
d="M417 1389l7 -7.99902h8l69 8l15 -15v-8c-29.333 -32.667 -47 -73.334 -53 -122.001h-77c-55.333 0 -83 -68.333 -83 -205v-114h106l38 7l16 -23v-7c-46 -88.667 -69 -162.334 -69 -221.001v-61c40.667 0 61 -15 61 -45c-7.33301 -21.333 -20 -36.666 -38 -45.999h-38
c-30.667 16 -46 44 -46 84v15l15 167h-38l-7 -76v-23l7 -30l-7 -8v-7l7 -8v-8l-7 -30l7 -23l-7 -7l7 -39v-273l8 -31l-8 -8v-7c0 -95.333 33 -161.333 99 -198l-15 -15h-137l-38 7l-46 -7h-99l-7 7h-8l92 84l15 76v84l7 8l-7 7v518h-15v7l-8 -7h-99v22l30 38l-30 54l15 15
h92l22 23l-7 38h7l-7 7v175c0 71.333 40.667 140 122 206z" />
    <glyph glyph-name="g" unicode="g" horiz-adv-x="727" 
d="M668 932l7.99902 -7.00098v-8c-66 -46 -99 -104.333 -99 -175v-69l7 -30l-7 -23l7 -23l-7 -38l7 -23v-15h-7l7 -91v-304c0 -68 25.333 -131.667 76 -191c15.333 -26 23 -51.333 23 -76v-30c0 -72 -55.667 -140.667 -167 -206c-35.333 -53.333 -58.333 -81 -69 -83h-61
l-7 7l-8 -7h-182l-77 -8l-15 23c116.667 208 205.667 312 267 312h7c23.333 -10 36 -20.333 38 -31v-30l-30 -30h-31l-15 15c-15.333 0 -45.666 -40.667 -90.999 -122h243c50.667 37.333 76 73 76 107v30c0 18.667 -35.333 77 -106 175l-8 53v15l8 8l-8 53h-7
c-40 -80.667 -88.333 -121 -145 -121c-142 0 -225.667 114 -251 342l8 38l-8 8v7c0 90.667 58.333 240.334 175 449.001v38l-15 38l30 16l38 -8l46 8l8 -8l38 8h114l7 -8l8 8h122zM157.999 467.999c0 -163.333 45.667 -274.999 137 -334.999l38 -7c76 14 114 77.333 114 190
v23h-7l7 53v99l-7 68l7 8v8l-7 121v31l7 53l-7 8h-168c-59.333 -96.667 -97.333 -203.334 -114 -320.001z" />
    <glyph glyph-name="h" unicode="h" horiz-adv-x="834" 
d="M227 1385l-0.000976562 -8.00098l7 8h38l23 -23v-15l-7 -23l7 -38v-114l-7 -8l7 -7v-472l221 175l-76 46l15 15h266l54 7l7 -7v-15c-70.667 -47.333 -106 -103.333 -106 -168v-30l7 -31l-7 -7v-8l7 -23l-7 -45l7 -77h-7l7 -7v-152l8 -38h-8l8 -8l-8 -23l8 -106h-8
c0 -56.667 35.667 -112.667 107 -168v-15h-23l-8 8l-7 -8h-191l-15 15v23l8 8l-8 7v8l8 38l-8 99h8l-8 7v579h-7l-244 -198l8 -38v-61l-8 -23l8 -38v-144c0 -162.667 25.333 -244 76 -244l7 -8c15.333 0 23 -5 23 -15l-15 -15h-175l-76 -8v8l-8 -8h-61l-15 16
c60.667 44.667 91.334 72.334 92.001 83.001l15 92v350l-8 45l8 31l-8 91l8 8l-8 38v342l-7 53h7l-7 8l7 38c0 86 -38 144.333 -114 175v8l8 7h137z" />
    <glyph glyph-name="i" unicode="i" horiz-adv-x="443" 
d="M203 1280c60 -14 90 -41.667 90 -83v-23c0 -55.333 -32.667 -83 -98 -83h-7c-52.667 0 -83 32.667 -91 98c12.667 60.667 48 91 106 91zM52 917l113 -7.00098h76l37 7l15 -22v-144l-7 -8l7 -7v-280l8 -45l-8 -8l8 -38v-38l-8 -37c0 -161.333 25.333 -242 76 -242l30 -30
l-15 -16h-249l-46 -7c-24.667 6.66699 -37 14.334 -37 23.001c70 36 105 81.333 105 136v219l-7 68l7 7v8l-7 30l7 8v7l-7 23h7l-7 8v37l7 8l-7 8v158c0 79.333 -30.333 127.333 -91 144l-15 15l8 8v7z" />
    <glyph glyph-name="j" unicode="j" horiz-adv-x="451" 
d="M173 1288h30c46 0 73.667 -33 83 -99c-16 -55.333 -43.667 -83 -83 -83h-38c-40.667 0 -66 27.667 -76 83v8c14 60.667 42 91 84 91zM278 932l15 -22.001v-106l-7 -8l7 -7v-325l8 -31l-8 -30v-45c0 -216.667 15.333 -325 46 -325c30 -38 52.667 -93.667 68 -167
c0 -47.333 -45.333 -138 -136 -272c0 -25.333 -7.66699 -38 -23 -38h-83l-45 -7l-23 7l-30 -7l-8 7v15c45.333 28.667 68 59 68 91l-7 30l7 8h136c10 0 20 25.333 30 76l-7 7v8l7 7c0 26 -40 94 -120 204c-9.33301 6.66699 -17 75 -23 205l7 7v8l-7 143v31l7 7l-7 8v325
c0 68.667 -20.333 116.334 -61 143.001c-20 0 -35 10.333 -45 31l8 7v8l75 -8h15l53 8v-8z" />
    <glyph glyph-name="k" unicode="k" horiz-adv-x="851" 
d="M52 1393l53 -7h61l8 -8l7 8h16l7 -8l8 8h61l23 -23l-8 -53l8 -39l-8 -23l8 -145v-30l-8 -8l8 -7v-122l-8 -8l8 -8v-38l-8 -23l8 -38v-168l-8 -30l8 -8l-8 -38v-15c21.333 10.667 82.333 84.334 183 221.001c30.667 18 46 41 46 69c-9.33301 25.333 -32 38 -68 38l-8 7v8
l15 23l76 -8h161l91 8l8 -8v-15l-99 -53c-50.667 -46 -129.667 -132.667 -237 -260c66 -128.667 139.667 -289 221 -481c40 -40.667 83.333 -71 130 -91v-8l-7 -8v-7l-92 7h-259v16c50.667 32 76 52.333 76 61c0 26 -51 155.667 -153 389h-7
c-51.333 -43.333 -77 -84 -77 -122l8 -23h-8l8 -8v-45l-8 -8l8 -8l-8 -38c0 -96 23 -157 69 -183c30.667 -3.33301 46 -11 46 -23l-31 -15l-38 7h-76l-191 -7l-8 7v8c56 41.333 84 79.666 84 114.999l8 22h7l-7 8l7 92v450l-7 183l7 54l-7 7v8l7 7v8l-7 23l7 46l-7 30l7 31
l-7 30h7l-7 8v8l7 7l-7 8v23l7 30c0 66 -38 119.667 -114 161v7l8 8v7z" />
    <glyph glyph-name="l" unicode="l" horiz-adv-x="439" 
d="M44 1378l46 0.000976562l30 -7l8 7h8l22 -7l23 7v-7l8 7h8l7 -7l38 7h39c10 0 15 -7.66699 15 -23l-8 -7v-8l8 -8v-7l-8 -8v-7l8 -62h-8l8 -7v-389l7 -31l-7 -30l7 -23l-7 -23l7 -466v-91c0 -72 30.667 -128 92 -168l-15 -16h-206l-115 -7l-7 7v8
c70.667 48 106 101.333 106 160v512l-7 30l7 31v68l-7 31l7 8l-7 38l7 38l-7 46v23l7 7l-7 8v8l7 7l-7 8v130l-8 38h8c0 63.333 -35.667 116.666 -107 159.999v15z" />
    <glyph glyph-name="m" unicode="m" horiz-adv-x="1179" 
d="M800 936l21.999 -0.00195312l31 -8l8 8l38 -8h99l130 8l7 -8v-15c-66 -53.333 -99 -96.666 -99 -129.999v-595c0 -74.667 30.667 -128.334 92 -161.001v-7l-16 -16h-76l-7 8l-8 -8h-115l-15 16l8 84l-8 7v8l8 8v7l-8 8v7l8 62v15h-8l8 38v46l-8 30l8 31l-8 46l8 7v8l-8 7
l8 39v313h-8l-221 -176v-458c0 -49.333 30.333 -92.666 91 -129.999v-23h-312l-16 16v7c66 36 99 92 99 168l-7 8l7 23l-7 53l7 122l-7 23l7 46v38l-7 23l7 38v222c-157.333 -117.333 -236 -181 -236 -191v-31h7l-7 -38v-76l7 -23l-7 -31c0 -228.667 15.333 -343 46 -343
c30 -12 45 -22.333 45 -31v-7l-15 -16h-69l-7 8l-8 -8h-229l-15 16c0 10.667 28 28.334 84 53.001l38 99l-8 8l8 53v222l-8 30l8 31v145c0 162.667 -38 244 -114 244v8l15 15h214c14.667 0 22 -10.333 22 -31l-7 -190h7c122 96.667 188.333 145 199 145v23
c-11.333 0 -34.333 15 -69 45v8h313l15 -15c-60.667 -30.667 -91 -81.667 -91 -153v-15h-8l8 -31c104.667 68 168.334 116.333 191.001 145v8c0 8 -20.333 23.333 -61 46v23z" />
    <glyph glyph-name="n" unicode="n" horiz-adv-x="836" 
d="M441 935l76 -7.00098h244l16 -16c0 -8 -18 -18 -54 -30c-30.667 -34.667 -46 -83 -46 -145v-283l8 -30l-8 -38l8 -61h-8l8 -8v-15l-8 -8l8 -8v-7l-8 -23l8 -46h-8c0 -94 35.667 -155 107 -183l8 -8l-15 -15h-183l-39 -8l-15 23v31l8 7l-8 8v718h-15l-229 -191v-351
c0 -122.667 17.667 -184 53 -184c30.667 -16 46 -28.667 46 -38v-15h-214l-114 -8l-8 8v15c66 42.667 99 96.334 99 161.001l-7 7l7 38v397l-7 31l7 38c0 99.333 -20.333 163 -61 191c-35.333 12 -53 22 -53 30l15 16h31l23 -8l38 8h130l15 -16l-8 -53l8 -54h-8l8 -7v-15
l-8 -8l8 -8l-8 -38v-30h15l207 160c0 15.333 -7.66699 23 -23 23c0 8 -18 18 -54 30v8l8 8v7z" />
    <glyph glyph-name="o" unicode="o" horiz-adv-x="638" 
d="M303 943h16c124.667 -82 211 -201.667 259 -359l16 -76h-8l8 -8c0 -170 -79 -327.667 -237 -473c0 -20.667 -7.66699 -31 -23 -31h-15c-178 151.333 -267 289 -267 413l-8 45v46c0 141.333 86.333 289 259 443zM242 798c-48.667 -68 -76.667 -144.333 -84 -229
c0 -158 76.333 -295.333 229 -412c25.333 0 51 66 77 198v15c0 173.333 -74 316 -222 428z" />
    <glyph glyph-name="p" unicode="p" horiz-adv-x="744" 
d="M456 935c112.667 0 191.666 -88.999 236.999 -266.999l7 -69v-76c0 -82.667 -50.667 -212.334 -152 -389.001l-23 -61c0 -12 15.333 -35 46 -69v-15h-61l-8 7l-8 -7l-38 7h-153v-91l8 -130h-8l8 -8l-8 -30c0 -92 23 -155.667 69 -191c30.667 -3.33301 46 -11 46 -23
l-15 -15h-54l-7 8l-8 -8l-53 8h-61l-31 -8l-8 8l-53 -8h-38c-26.667 0 -42 7.66699 -46 23c81.333 33.333 122 89.333 122 168l-8 7l8 38l-8 115h8l-8 8v7l8 23l-8 8v7l8 8v8l-8 45v8l8 8l-8 7v145l8 8l-8 23l8 8l-8 38v30l8 8l-8 7v8l8 8l-8 7v176l8 8l-8 7v275
c-17.333 86.667 -52.666 130 -105.999 130l-8 7v16l8 7v8l53 -8h176c10 0 15 -25.333 15 -76c48 66 101.333 99 160 99zM302.999 645.001l-0.00195312 -511l16 -16l38 8v-8l8 8h91c34.667 0 70.334 124.667 107.001 374c-15.333 183.333 -56 275 -122 275l-31 7h-7
c-53.333 0 -86.666 -45.667 -99.999 -137z" />
    <glyph glyph-name="q" unicode="q" horiz-adv-x="742" 
d="M288 929c54 0 104.666 -33 151.999 -99h15v23l-8 38l23 23l38 -8h23l152 8l8 -8v-8c-66 -55.333 -99 -101 -99 -137v-357l8 -206h-8l8 -7v-8l-8 -38l8 -23l-8 -61l8 -45l-8 -8l8 -38v-99l-8 -8l8 -7v-53l-8 -8l8 -8v-53c0 -94 32.667 -160 98 -198l-7 -7h-76l-84 -8l-8 8
h-7l-137 -16l-8 8v15l61 54c20.667 22.667 31 58 31 106v297h-77l-190 -8l-7 8v15c25.333 26 38 49 38 69c0 26 -51 124.667 -153 296c-20 87.333 -30 158.333 -30 213v8c10.667 168.667 61.334 272.667 152.001 312c29.333 15.333 60 23 92 23zM180.999 503
c0 -111.333 37.999 -235.666 113.999 -372.999h160v152l8 8l-8 7v305c0 101.333 -38 164.666 -114 189.999c-85.333 0 -138.666 -88.667 -159.999 -266v-23z" />
    <glyph glyph-name="r" unicode="r" horiz-adv-x="697" 
d="M59 921l38.001 -7h175l16 -16v-38l-8 -7l8 -23l-8 -8v-7l8 -23h-8l8 -8v-83c80.667 72 121 125 121 159l-15 46l53 15l46 -7l23 7l38 -7l38 7l8 -7h7l31 7l15 -15c-81.333 -125.333 -122 -219.333 -122 -282h-8l8 -7l-8 -38l8 -38l46 15h7l38 -30v-38
c-12.667 -30.667 -33 -46 -61 -46c-47.333 0 -80 28 -98 84v83c0 42.667 15 98.667 45 168h-38c-12.667 0 -73.334 -58.333 -182.001 -175v-297l-8 -8l8 -7v-84c0 -96.667 25.333 -157.667 76 -183l15 -15l-23 -15l-30 7l-8 -7l-53 7h-76l-38 -7v7l-8 -7h-76l-15 15v8
c60.667 32 91 75 91 129l8 38l-8 31l8 7v8l-8 30l8 31l-8 30l8 8v7l-8 31l8 106l-8 23l8 53l-8 23l8 46v23l-8 30l8 8v7c0 132 -33 198 -99 198l-8 8v7z" />
    <glyph glyph-name="s" unicode="s" horiz-adv-x="674" 
d="M561 921l16 -23.002c-70 -89.333 -108 -160.333 -114 -213v-15l38 8h7c15.333 -5.33301 23 -20.666 23 -45.999v-8c-6.66699 -20 -29.334 -30 -68.001 -30h-8c-30.667 18 -46 41 -46 69v60l23 54l-7 7l-39 -7h-98c-38 0 -66 -30.667 -84 -92
c0 -68 91.333 -126.333 274 -175c81.333 -40.667 122 -73.667 122 -99c20 -6.66699 30 -29.334 30 -68.001v-46c0 -39.333 -33 -87.333 -99 -144c-60.667 -47.333 -91 -95.666 -91 -144.999l-8 -8h-289l-91 -7l-8 7v8c64 70.667 122.333 154.334 175 251.001
c-20 0 -37.667 12.667 -53 38v15c12.667 26 35.334 39 68.001 39c30.667 -10.667 46 -31 46 -61v-23c0 -20 -20.333 -63.333 -61 -130h175c66 18.667 99 57 99 115c0 71.333 -58.333 122 -175 152c-157.333 44 -236 115 -236 213c0 66 53.333 137 160 213l7 23l-15 53l8 8h7
l31 -8l53 8h190z" />
    <glyph glyph-name="t" unicode="t" horiz-adv-x="525" 
d="M404 1373h7.99902l15 -15c-76.667 -73.333 -115 -175.666 -115 -306.999v-7l-7 -8l7 -8v-23l-7 -7l7 -8v-69l77 8h15l8 -8l8 8h46l15 -15c-51.333 -86 -77 -183.333 -77 -292c34.667 0 55.334 -15.333 62.001 -46c-12.667 -35.333 -30.667 -53 -54 -53
c-46 0 -69 30.667 -69 92l15 184l-30 7l-23 -7l7 -8v-107l-7 -8l7 -8v-23l-7 -7l7 -8v-399l8 -30l-8 -8c0 -88.667 36 -147.334 108 -176.001v-8l-16 -15l-53 7h-16l-84 -7l-8 7l-53 -7h-131v15c76.667 55.333 115 104 115 146l-7 7l7 92v207l-7 46l7 8v23h-7l7 77v184h-30
l-92 -8l-8 8v7c15.333 18.667 23 36.667 23 54v15l-23 31v8l8 7v8l76 -8h46v23c0 104.667 -23 168.667 -69 192c-15.333 0 -23 5 -23 15l146 77z" />
    <glyph glyph-name="u" unicode="u" horiz-adv-x="824" 
d="M59 937l76.999 -8h138c10 0 15 -15.333 15 -46h8l-8 -38v-161l8 -46l-8 -39v-7l8 -39l-8 -46v-92l8 -23l-8 -38v-222h16c112.667 95.333 189.334 151.333 230.001 168v207l7 8l-7 8v398l15 16h8l7 -8l8 8h8l30 -8l8 8h23v-8l54 8h68l16 -16l-77 -69
c-15.333 -26 -23 -51.333 -23 -76v-246l-7 -7l7 -8v-69l-7 -8l7 -7v-115l-7 -8l7 -8v-15h-7c2 -148 19.667 -222 53 -222l54 -46l-8 -8v-8l-76 8h-100l-54 -8l-7 8v146l7 30l-7 31c-112.667 -92 -176.667 -138 -192 -138v-31c36 -10 54 -20 54 -30l-16 -16h-7l-8 8l-8 -8
h-76l-8 8l-8 -8h-38l-8 8l-7 -8h-108l-30 -7c-20.667 7.33301 -31 15 -31 23c71.333 41.333 107 100 107 176v84l8 8l-8 23l8 8l-8 38v23l8 23l-8 38v338c0 52 -33 100.333 -99 145l7 8v8z" />
    <glyph glyph-name="v" unicode="v" horiz-adv-x="740" 
d="M481 951c49.333 0 105.668 -48.334 169.001 -145.001l38 -77h-8c10.667 -22.667 16 -55.667 16 -99v-115c0 -73.333 -59 -203.666 -177 -390.999l-7 -62c8 0 18 -15.333 30 -46l-15 -15l-38 8h-338l-38 -8v8l-8 -8h-46l-15 15c71.333 48.667 107 92.334 107 131.001
l8 214l-8 31l8 46l-8 23h8l-8 8v7l8 31l-8 8v7l8 8l-8 38v62l8 7l-8 8v46l8 8l-8 7v16l8 7c0 87.333 -35.667 148.666 -107 183.999l15 16h207l15 -16v-76h8c19.333 76 80.666 114 183.999 114zM289.002 567.999l8 -46v-161l-8 -46l8 -7l-8 -39v-15l8 -46l-8 -38v-16h146
c31.333 0 51.666 25.667 60.999 77c18.667 18.667 39.334 105.667 62.001 261l-8 161l-46 99c-34 36 -67.333 54 -100 54c-76.667 0 -115 -79.333 -115 -238z" />
    <glyph glyph-name="w" unicode="w" horiz-adv-x="1107" 
d="M841 959c86.667 0 158.332 -84.335 214.999 -253.002l7 -61v-69c0 -103.333 -58.667 -244 -176 -422l-8 -53c0 -20 13 -43 39 -69v-16l-39 -7l-53 7h-62l-30 -7l-23 7l-46 -7v7l-8 -7l-23 7l-122 -7h-62l-15 15c66.667 34 100 103 100 207v575l-230 -161v-192l-8 -7l8 -8
v-15l-8 -8l8 -8v-7l-8 -8l8 -23l-8 -77l8 -30h-8l8 -8v-77c0 -68.667 28 -117 84 -145v-23h-192l-53 -8v8l-8 -8h-15l-8 8l-8 -8h-46l-15 15c76.667 52.667 115 96.334 115 131.001l8 122l-8 62l8 115v84l-8 38h8l-8 8v69l8 8l-8 7v77
c0 92.667 -38.333 151.334 -115 176.001v8l15 23l54 -8h169l15 -15v-199c120 96.667 186.333 145 199 145v8c0 8 -25.333 26 -76 54l15 15h92l8 -8l7 8h31l8 -8l7 8h62l23 -15l-8 -39v-38c38.667 71.333 97.334 107 176.001 107zM672.998 713.998l7 -8.00098l-7 -38v-506
h137c72 118.667 108 233.667 108 345v61l7 8c-26.667 158.667 -72.667 238 -138 238c-71.333 -5.33301 -107 -38.666 -107 -99.999h-7z" />
    <glyph glyph-name="x" unicode="x" horiz-adv-x="870" 
d="M382 939l-0.000976562 -23c-27.333 0 -48 -20.333 -62 -61l108 -223h15c61.333 131.333 92 208 92 230c-1.33301 15.333 -21.666 38.333 -60.999 69l7 8h334l1 -1l3 -4l7 -10c0 -10.667 -12.667 -16 -38 -16c-53.333 -8 -135 -125.333 -245 -352l-31 -77
c135.333 -281.333 230 -422 284 -422l7 -7c15.333 0 23 -5.33301 23 -16l-15 -23l-38 8h-54l-46 -8l-46 8l-38 -8v8l-8 -8h-38l-16 16l54 61c-56 122.667 -104.667 214.667 -146 276l-122 -276c0 -12.667 20.333 -33 61 -61l-15 -16h-154l-153 -7l-8 7v16l85 61
c59.333 74 138.333 217 237 429l-214 361c-50.667 16.667 -79 32 -85 46l16 15h30l46 -8l8 8l38 -8h8l46 8l8 -8l38 8h77z" />
    <glyph glyph-name="y" unicode="y" horiz-adv-x="831" 
d="M558 938l38 -8h92l92 8l7 -8v-15c-71.333 -40 -107 -98.667 -107 -176v-376l-7 -7l7 -8v-8l-7 -7l7 -8v-8l-7 -7v-8l7 -31h-7l7 -7v-92l-7 -62c0 -55.333 28 -121.666 84 -198.999l15 -84c0 -74 -74 -156 -222 -246l-61 -68l-8 7l-8 -7h-7l-31 7l-23 -7l-8 7h-7l-31 -7
l-8 7h-7l-8 -7l-38 7h-115l-92 -7l-8 7v8c160 209.333 270 314 330 314c20.667 -6.66699 36 -19.334 46 -38.001v-39c-15.333 -25.333 -33.333 -38 -54 -38l-38 23h-8l-92 -100h123l30 8l8 -8c102 4 153 22 153 54c30.667 18.667 46 49.334 46 92.001v8c0 28 -28 79 -84 153
l-15 84l7 115v46h-7l-192 -130v-8c0 -12 20.333 -24.667 61 -38v-8l-15 -15h-253l-77 -8l-15 23c76.667 23.333 115 102.666 115 237.999v491c0 71.333 -33.333 130 -100 176l8 7h92l31 -7l30 7h62l23 -15l-8 -53v-123l8 -23l-8 -38v-207l8 -31l-8 -31l8 -7v-8l-8 -31v-15h8
l-8 -54v-145l15 -16c33.333 33.333 110 92.333 230 177l-7 30l7 131l-7 7v8l7 31v23l-7 23l7 38v268l-7 54z" />
    <glyph glyph-name="z" unicode="z" horiz-adv-x="848" 
d="M120 935l8.00098 -0.00195312l7 -8l8 8l38 -8h175l53 8v-8l7 8h137l8 -8l8 8h38l7 -8l8 8h167l15 -15c-88.667 -56.667 -154.334 -143 -197.001 -259c-36 -49.333 -54 -84.666 -54 -105.999h16l53 8v-8l7 8h8l23 -23l-23 -31l8 -53l-8 -8h-137
c-62 -102.667 -122.667 -221.667 -182 -357v-7l30 -16c105.333 0 224.333 56 357 168l16 -16l-16 -76c15.333 -41.333 38.333 -81.666 69 -120.999v-15h-8l-7 7l-8 -7l-61 7l-274 -7v7l-7 -7h-319l-38 -8l-8 8v15c82 42 145.333 113 190 213l114 212h-84l-15 16v7l23 38
l-30 31l15 15h137c12.667 0 60.667 93.667 144 281c-4.66699 20.667 -20 31 -46 31h-38c-60.667 0 -146.667 -48.333 -258 -145h-15l-8 8h-7l15 76c-2.66699 30 -30.667 68 -84 114z" />
    <glyph glyph-name="braceleft" unicode="{" horiz-adv-x="732" 
d="M44 698c114.667 3.33301 188.999 26.999 222.999 70.999s51 88.333 51 133v468c0 49.333 25.667 96.5 77 141.5s113 67.5 185 67.5h108v-50h-90c-40.667 0 -76.334 -11.167 -107.001 -33.5s-46.334 -52.833 -47.001 -91.5v-500
c0 -55.333 -20.167 -108.166 -60.5 -158.499s-87.833 -75.833 -142.5 -76.5v-2c54.667 -0.666992 102.334 -26 143.001 -76s61 -102.667 61 -158l-1 -500c0.666992 -38.667 16.334 -69.167 47.001 -91.5s66.334 -33.5 107.001 -33.5h90v-50h-108
c-72 0 -133.5 22.5 -184.5 67.5s-76.833 92.167 -77.5 141.5v468c0 44 -17 88 -51 132s-108.333 67.667 -223 71v60z" />
    <glyph glyph-name="bar" unicode="|" horiz-adv-x="248" 
d="M44 1577h160v-1995h-160v1995z" />
    <glyph glyph-name="braceright" unicode="}" horiz-adv-x="732" 
d="M688 638c-114.667 -3.33301 -189.001 -26.999 -223.001 -70.999s-51 -88 -51 -132v-468c-0.666992 -49.333 -26.5 -96.5 -77.5 -141.5s-112.5 -67.5 -184.5 -67.5h-108v50h90c40.667 0 76.334 11.167 107.001 33.5s46.334 52.833 47.001 91.5l-1 500
c0 55.333 20.333 108 61 158s88.667 75.333 144 76v2c-55.333 0.666992 -103.166 26.167 -143.499 76.5s-60.5 103.166 -60.5 158.499v500c-0.666992 38.667 -16.334 69.167 -47.001 91.5s-66.334 33.5 -107.001 33.5h-90v50h108c72 0 133.667 -22.5 185 -67.5
s77 -92.167 77 -141.5v-468c0 -44.667 17 -89 51 -133s108.333 -67.667 223 -71v-60z" />
    <glyph glyph-name="asciitilde" unicode="~" horiz-adv-x="917" 
d="M873 878l-0.00195312 -156c-42 -48 -82.667 -80.5 -122 -97.5s-78 -25.5 -116 -25.5c-40 0 -99.167 16.167 -177.5 48.5s-137.166 48.5 -176.499 48.5c-34 0 -69.833 -9.33301 -107.5 -28s-80.834 -56 -129.501 -112v156c42.667 48.667 83.667 81.667 123 99
s77.333 26 114 26c42.667 0 103.167 -16.5 181.5 -49.5s135.833 -49.5 172.5 -49.5c34.667 0 70.834 9.33301 108.501 28s80.834 56 129.501 112z" />
    <glyph glyph-name="exclamdown" unicode="&#xa1;" horiz-adv-x="338" 
d="M188 606l49 -1036c0 -30.667 -7 -53.667 -21 -69s-34.667 -23 -62 -23c-28 0 -48.833 7.66699 -62.5 23s-20.5 38.333 -20.5 69l80 1036h37zM278 767l-82.001 -84c-10 -9.33301 -19.667 -14 -29 -14c-8.66699 0 -19 5.33301 -31 16l-80 86
c-8 10.667 -12 20.334 -12 29.001c0 10 4.66699 20.333 14 31l80 88c13.333 13.333 23 20 29 20c10.667 0 20.334 -4.66699 29.001 -14l88 -101c6.66699 -8.66699 10 -17.334 10 -26.001c0 -10 -5.33301 -20.333 -16 -31z" />
    <glyph glyph-name="cent" unicode="&#xa2;" horiz-adv-x="709" 
d="M537 925l69.001 3.00195l8 -7v-8c-76 -140.667 -114 -234.334 -114 -281.001c40.667 -4 61 -22 61 -54c-10.667 -30 -31 -45 -61 -45h-23c-30.667 17.333 -46 40 -46 68v23l9 35l-170 -466c28.667 -32 64.667 -48 108 -48v-8c65.333 0 116 48.333 152 145
c0 55.333 7.66699 83 23 83h30l23 -23c0 -161.333 -43 -270.333 -129 -327c-18.667 -15.333 -59.334 -28 -122.001 -38c-56 0 -105 15.667 -147 47l-84 -231h-80l106 291c-24 32.667 -44.333 73 -61 121c-15.333 56 -23 104.333 -23 145
c0 123.333 50.667 275.666 152 456.999l15 60l-22 39l15 15h190l40 1l129 355h80zM402.001 776.002h-115c-24 -20 -54.667 -98.667 -92 -236l8 -7l-15 -92c6.66699 -64 17.667 -117.667 33 -161z" />
    <glyph glyph-name="sterling" unicode="&#xa3;" horiz-adv-x="948" 
d="M716 1347c-48 20.667 -101.333 30.999 -160 30.999h-2c-66.667 0 -130 -33.667 -190 -101c-56 -62 -84 -142.333 -84 -241c0 -10 0.333008 -20 1 -30c0 -90 17.667 -181 53 -273h360v-60h-334c9.33301 -20 19.666 -40 30.999 -60c23.333 -42 35 -88 35 -138
c0 -107.333 -54 -232.333 -162 -375h402c86.667 0 149.667 44 189 132l49 -1l-103 -231h-719l1 50c124.667 158.667 187 298 187 418c0 51.333 -11.333 99 -34 143c-11.333 21.333 -21.666 42 -30.999 62h-161v60h135c-38.667 95.333 -58 179.666 -58 252.999
c0 150.667 41.167 266.334 123.5 347.001s184.5 121 306.5 121h4c50 0 111.833 -4.66699 185.5 -14s110.5 -20.666 110.5 -33.999v-161h-58c-3.33301 40.667 -29 74.667 -77 102z" />
    <glyph glyph-name="currency" unicode="&#xa4;" horiz-adv-x="857" 
d="M272 560c27.333 -26.667 60.333 -45.6641 99 -56.9971c19.333 -5.33301 38.666 -8 57.999 -8s38.666 2.66699 57.999 8c38.667 11.333 71.667 30.333 99 57c26.667 27.333 45.667 60.333 57 99c6 19.333 9 38.666 9 57.999s-3 38.666 -9 57.999
c-11.333 38.667 -30.333 71.667 -57 99c-27.333 26.667 -60.666 45.667 -99.999 57c-19.333 5.33301 -38.666 8 -57.999 8s-38.666 -3 -57.999 -9c-38.667 -11.333 -71.334 -30 -98.001 -56c-26 -26.667 -44.667 -59.334 -56 -98.001c-6.66699 -20 -10 -40 -10 -60
c0 -18.667 3 -37.334 9 -56.001c10.667 -39.333 29.667 -72.666 57 -99.999zM162 903.003l-118.001 118l80 81l118 -118c29.333 20 62.333 35.333 99 46c29.333 9.33301 59 14 89 14c27.333 0 55 -4 83 -12c38 -11.333 72 -27.333 102 -48l118 118l80 -81l-117 -117
c20.667 -30.667 36.667 -64.667 48 -102c8 -28 12 -56.333 12 -85c0 -28 -4 -56.333 -12 -85c-11.333 -37.333 -27.333 -71.333 -48 -102l117 -117l-80 -81l-118 118c-30 -21.333 -63.667 -37.333 -101 -48c-28 -8 -56.333 -12 -85 -12c-28 0 -56.333 4 -85 12
c-38 10.667 -72 26.667 -102 48l-118 -118l-80 81l118 117c-21.333 30.667 -37.333 65 -48 103c-8 28 -12 56 -12 84c0 29.333 4.33301 58.333 13 87c10.667 36.667 26.334 69.667 47.001 99z" />
    <glyph glyph-name="yen" unicode="&#xa5;" horiz-adv-x="1354" 
d="M583 225l-1.99707 241.993c0 12.667 -0.5 24.334 -1.5 35.001s-2.5 21.334 -4.5 32.001l-484 1c-9.33301 0 -16.333 2.16699 -21 6.5s-7 10.833 -7 19.5s2.16699 15 6.5 19s11.5 6 21.5 6h467l-121 172h-344c-11.333 0 -19.166 1.83301 -23.499 5.5
s-6.5 9.83398 -6.5 18.501c0 9.33301 2 15.833 6 19.5s11.333 5.5 22 5.5h307c-28.667 38 -64.667 89.667 -108 155c-87.333 131.333 -163 197 -227 197c-4.66699 0 -9 1.83301 -13 5.5s-6 7.5 -6 11.5c0 12.667 3.5 21.834 10.5 27.501s17.833 8.5 32.5 8.5
c18 0 59 -2.66699 123 -8s118.667 -8 164 -8h57h31c22 0 35.667 -2.16699 41 -6.5s8 -13.166 8 -26.499c0 -5.33301 -5 -10 -15 -14s-22.667 -6 -38 -6c-4 0 -10.167 0.666992 -18.5 2s-14.5 2 -18.5 2c-16 0 -28.5 -3.16699 -37.5 -9.5s-13.5 -14.833 -13.5 -25.5
c0 -12 5.5 -29.333 16.5 -52s26.5 -48.334 46.5 -77.001l158 -221c8.66699 -12.667 19.667 -30.334 33 -53.001c27.333 -46.667 51 -70 71 -70c6 0 11.5 1.66699 16.5 5s9.83301 8.33301 14.5 15l277 396c5.33301 8 9.66602 16.833 12.999 26.5s5 17.834 5 24.501
c0 12 -3.33301 21 -10 27s-19 10.667 -37 14c-10 1.33301 -23.667 2.66602 -41 3.99902c-31.333 2 -47 10.333 -47 25c0 10 2.66699 17.5 8 22.5s13.666 7.5 24.999 7.5c2 0 7 -0.333008 15 -1c37.333 -4.66699 73.333 -7 108 -7h139c20 0 41.667 0.333008 65 1
s35.666 1 36.999 1c7.33301 0 13.5 -1.5 18.5 -4.5s7.83301 -6.83301 8.5 -11.5c0 -18.667 -12.667 -30 -38 -34c-12 -2 -21 -3.66699 -27 -5c-42 -10 -91 -49 -147 -117l-12 -15l-169 -206h323c10 0 18 -2 24 -6s9 -9.66699 9 -17c0 -10 -2 -16.833 -6 -20.5
s-11.667 -5.5 -23 -5.5h-366c-30.667 -38 -62.834 -75.5 -96.501 -112.5s-51.167 -56.833 -52.5 -59.5h511c12 0 20.5 -1.83301 25.5 -5.5s7.5 -9.5 7.5 -17.5c0 -9.33301 -2.33301 -16.333 -7 -21s-12 -7 -22 -7h-530c0 -7.33301 -0.333008 -17.5 -1 -30.5
s-1 -22.833 -1 -29.5l2 -215c0 -76 1.83301 -126 5.5 -150s10.5 -38.667 20.5 -44c20 -11.333 55.833 -17.666 107.5 -18.999s77.5 -11.666 77.5 -30.999c0 -8 -3.33301 -14.667 -10 -20s-15 -8 -25 -8c-1.33301 0 -13.166 1.33301 -35.499 4s-43.833 4 -64.5 4
c-60.667 0 -130.167 -1.33301 -208.5 -4s-125.833 -4 -142.5 -4c-20.667 0 -34 1.33301 -40 4s-9 8 -9 16s2.66699 14.167 8 18.5s17.666 8.5 36.999 12.5c6 1.33301 14.333 3 25 5c49.333 10.667 80 21.334 92 32.001c11.333 8.66699 19.333 24.334 24 47.001
s7 56.667 7 102z" />
    <glyph glyph-name="brokenbar" unicode="&#xa6;" horiz-adv-x="248" 
d="M44 371h160v-789h-160v789zM44 1578h160v-789h-160v789z" />
    <glyph glyph-name="section" unicode="&#xa7;" horiz-adv-x="762" 
d="M419 321c37.333 10.667 69.668 28.3359 97.001 53.0029c48.667 43.333 73 98.666 73 165.999c0 3.33301 -0.333008 6.66602 -1 9.99902h-2c-0.666992 9.33301 -2 18.333 -4 27c-14.667 40.667 -52.334 83 -113.001 127c-39.333 19.333 -81.333 29 -126 29
c-52 0 -93.667 -14.833 -125 -44.5s-47 -68.834 -47 -117.501c0 -82 82.667 -165.333 248 -250zM340.002 -345.998c75.333 4 137.001 26.9971 185.001 68.9971c48 42.667 72 97.667 72 165c0 83.333 -105.333 175.333 -316 276c-82 42.667 -140.5 88.334 -175.5 137.001
s-52.5 107.667 -52.5 177c0 98.667 29.667 177.667 89 237c44.667 43.333 101.334 70.666 170.001 81.999l-40 19c-82 42.667 -140.5 88.334 -175.5 137.001s-52.5 107.667 -52.5 177c0 98.667 29.667 177.667 89 237c54.667 52.667 126.667 81.334 216 86.001
c5.33301 0.666992 11 1 17 1h3c44 0 98.333 -5.5 163 -16.5s97 -24.833 97 -41.5v-194h-51c-3.33301 54 -30 98 -80 132c-46.667 31.333 -96.334 48.333 -149.001 51h-15c-52 0 -93.667 -14.833 -125 -44.5s-47 -68.834 -47 -117.501c0 -88 95.667 -177.667 287 -269
c99.333 -44.667 167.5 -92.5 204.5 -143.5s55.5 -113.5 55.5 -187.5c0 -114 -33.667 -208 -101 -282c-31.333 -26 -64.333 -47.333 -99 -64c72 -37.333 123.333 -76.666 154 -117.999c36.667 -51.333 55 -113.666 55 -186.999c0 -114 -33.667 -208.333 -101 -283
c-82.667 -68 -175 -103 -277 -105v1c-4 -0.666992 -8.33301 -1 -13 -1h-3c-44 0 -98.333 5.5 -163 16.5s-97 24.833 -97 41.5v194h51c3.33301 -54 30 -98 80 -132c45.333 -30 93.666 -46.667 144.999 -50z" />
    <glyph glyph-name="dieresis" unicode="&#xa8;" horiz-adv-x="669" 
d="M58 1289l70.998 71.998c8.66699 8 17 12 25 12c7.33301 0 16.333 -4.66699 27 -14l69 -73c6.66699 -9.33301 10 -17.666 10 -24.999c0 -8.66699 -4 -17.667 -12 -27l-69 -75c-11.333 -11.333 -19.666 -17 -24.999 -17c-9.33301 0 -17.666 4 -24.999 12l-76 86
c-6 8 -9 15.667 -9 23c0 8.66699 4.66699 17.334 14 26.001zM422.998 1289l70.998 72c8.66699 8 17 12 25 12c7.33301 0 16.333 -4.33301 27 -13l69 -74c6.66699 -9.33301 10 -17.666 10 -24.999c0 -8.66699 -4 -17.334 -12 -26.001l-69 -76
c-11.333 -11.333 -19.666 -17 -24.999 -17c-9.33301 0 -17.666 4 -24.999 12l-76 87c-6 7.33301 -9 14.666 -9 21.999c0 8.66699 4.66699 17.334 14 26.001z" />
    <glyph glyph-name="copyright" unicode="&#xa9;" horiz-adv-x="1562" 
d="M784 1456c96.667 0 190 -18.835 280 -56.502s169.667 -91.167 239 -160.5c68 -67.333 120.833 -146.666 158.5 -237.999s56.5 -185.666 56.5 -282.999c0 -98 -18.833 -192 -56.5 -282s-91.834 -170 -162.501 -240c-70 -70 -149.667 -123.167 -239 -159.5
s-183.666 -54.5 -282.999 -54.5c-97.333 0 -190 18.5 -278 55.5s-167.333 90.5 -238 160.5c-70.667 69.333 -124.5 148.5 -161.5 237.5s-55.5 183.167 -55.5 282.5c0 98.667 18.5 193 55.5 283s90.167 169.333 159.5 238c68 69.333 147.5 122.833 238.5 160.5
s186.5 56.5 286.5 56.5zM301 1197c-63.333 -64 -112.004 -137.168 -146.004 -219.501s-51 -168.833 -51 -259.5c0 -91.333 17 -177.666 51 -258.999s83.333 -154.333 148 -219c65.333 -64 138.333 -113 219 -147s166 -51 256 -51c91.333 0 177.833 16.833 259.5 50.5
s154.834 82.167 219.501 145.5c64.667 65.333 114.334 139.166 149.001 221.499s52 168.5 52 258.5c0 89.333 -17.333 175.833 -52 259.5s-83 156.834 -145 219.501c-64 64 -137.333 113.167 -220 147.5s-168.667 51.5 -258 51.5c-91.333 0 -178.666 -17.167 -261.999 -51.5
s-156.666 -83.5 -219.999 -147.5zM808.996 222.997c-94.667 0 -182.669 22.6689 -264.002 68.002s-143.333 107 -186 185s-64 159 -64 243s21.833 165.333 65.5 244s106.167 140.167 187.5 184.5s166 66.5 254 66.5c25.333 0 50.333 -2.16699 75 -6.5s50 -11.166 76 -20.499
c3.33301 -0.666992 6.33301 -1 9 -1c12.667 0 21.334 10 26.001 30h42l72 -198h-44c-34.667 62.667 -78.334 104 -131.001 124c-48 17.333 -97 26 -147 26h-15c-57.333 -5.33301 -112.833 -29 -166.5 -71s-94.167 -101 -121.5 -177c-22 -60 -33 -121.333 -33 -184
c0 -16.667 0.666992 -33.334 2 -50.001c7.33301 -80.667 30.5 -155.334 69.5 -224.001s88.833 -119.334 149.5 -152.001c48 -26.667 103.333 -40.667 166 -42c82.667 0 147.334 18.667 194.001 56s70 79.333 70 126h53v-100c0 -30.667 -32.167 -59.5 -96.5 -86.5
s-145.166 -40.5 -242.499 -40.5z" />
    <glyph glyph-name="ordfeminine" unicode="&#xaa;" horiz-adv-x="600" 
d="M535.142 1431.18l4.62109 -4.20117v-4.7998c-50.1582 -33.5986 -75.2373 -71.5967 -75.2373 -113.995l5.28027 -4.7998v-4.7998l-5.28027 -13.1992l5.28027 -4.7998l-5.28027 -22.7998v-4.7998l5.28027 -17.999l-5.28027 -13.7998l5.28027 -45.5977h-5.28027
l5.28027 -4.7998v-4.2002l-5.28027 -4.7998l5.28027 -4.19922v-13.7998l-5.28027 -27.5986l5.28027 -4.7998v-4.2002l-5.28027 -4.7998v-4.19922l5.28027 -27.5996h-5.28027l5.28027 -4.7998v-8.99902l-5.28027 -4.2002l5.28027 -4.7998v-59.3975
c0 -45.1982 21.7793 -78.5967 65.3369 -100.196v-9.59961h-145.854l-9.89941 9.59961v49.7988h-5.28027c-23.3193 -48.3984 -56.7578 -72.5977 -100.315 -72.5977h-9.90039c-83.5967 0 -132.215 71.3975 -145.854 214.191c0 83.9971 35.1982 178.394 105.596 283.189
l4.61914 27.5986v9l-9.89941 13.7988v4.2002l9.89941 9.59961h221.092zM193.276 1129.99l0.000976562 -9.00098c15.3994 -112.796 50.5977 -169.193 105.595 -169.193h9.90039c39.5986 0 63.1377 36.5986 70.6172 109.796v4.19922l-5.28027 4.7998l5.28027 22.7998v169.192
l-5.28027 40.7988l5.28027 31.7988l-10.5605 9.59961h-104.936c-47.0781 -69.9971 -70.6172 -141.594 -70.6172 -214.79zM44.002 804.998h512v-60h-512v60z" />
    <glyph glyph-name="guillemotleft" unicode="&#xab;" horiz-adv-x="757" 
d="M44 479l342 303h14v-37l-205 -266l205 -266v-37h-14zM357 479l342 303h14v-37l-205 -266l205 -266v-37h-14z" />
    <glyph glyph-name="logicalnot" unicode="&#xac;" horiz-adv-x="928" 
d="M44 767h840v-491l-1 -1h-98v392h-741v100z" />
    <glyph glyph-name="registered" unicode="&#xae;" horiz-adv-x="1562" 
d="M695 1099l0.000976562 -373.998l3 -8c15.333 -37.333 34 -64.333 56 -81c19.333 -14.667 38 -22 56 -22h6c20.667 2.66699 41.167 15.5 61.5 38.5s35.833 55.5 46.5 97.5c8.66699 33.333 13 67.666 13 102.999c0 8.66699 -0.333008 17.667 -1 27
c-2.66699 44.667 -12 86.167 -28 124.5s-34.833 63.666 -56.5 75.999s-42.834 18.5 -63.501 18.5h-93zM928.001 576.002l81.999 -116c66.667 -94 116.667 -141 150 -141h34v-50h-346v50h45c20 0 30 7.33301 30 22c0 19.333 -23 57.333 -69 114l-75 102c-28 0 -56 14 -84 42
v-159c0 -80.667 12 -121 36 -121h53v-50h-316v50h43c24.667 0 37 40.333 37 121v538c0 80.667 -12.333 121 -37 121h-43v70h356c42.667 -0.666992 84.334 -14.667 125.001 -42c40 -27.333 70.833 -65.333 92.5 -114s32.5 -99.334 32.5 -152.001
c0 -52 -10.667 -102.167 -32 -150.5s-59.333 -93.166 -114 -134.499zM784 1456c96.667 0 190 -18.835 280 -56.502s169.667 -91.167 239 -160.5c68 -67.333 120.833 -146.666 158.5 -237.999s56.5 -185.666 56.5 -282.999c0 -98 -18.833 -192 -56.5 -282
s-91.834 -170 -162.501 -240c-70 -70 -149.667 -123.167 -239 -159.5s-183.666 -54.5 -282.999 -54.5c-97.333 0 -190 18.5 -278 55.5s-167.333 90.5 -238 160.5c-70.667 69.333 -124.5 148.5 -161.5 237.5s-55.5 183.167 -55.5 282.5c0 98.667 18.5 193 55.5 283
s90.167 169.333 159.5 238c68 69.333 147.5 122.833 238.5 160.5s186.5 56.5 286.5 56.5zM301 1197c-63.333 -64 -112.004 -137.168 -146.004 -219.501s-51 -168.833 -51 -259.5c0 -91.333 17 -177.666 51 -258.999s83.333 -154.333 148 -219
c65.333 -64 138.333 -113 219 -147s166 -51 256 -51c91.333 0 177.833 16.833 259.5 50.5s154.834 82.167 219.501 145.5c64.667 65.333 114.334 139.166 149.001 221.499s52 168.5 52 258.5c0 89.333 -17.333 175.833 -52 259.5s-83 156.834 -145 219.501
c-64 64 -137.333 113.167 -220 147.5s-168.667 51.5 -258 51.5c-91.333 0 -178.666 -17.167 -261.999 -51.5s-156.666 -83.5 -219.999 -147.5z" />
    <glyph glyph-name="macron" unicode="&#xaf;" horiz-adv-x="526" 
d="M84 1169c-26.667 0 -40 9.33301 -40 28v83c0 19.333 13.667 29 41 29h356c27.333 0 41 -9.66699 41 -29v-83c0 -18.667 -13.333 -28 -40 -28h-358z" />
    <glyph glyph-name="degree" unicode="&#xb0;" horiz-adv-x="644" 
d="M323 1372c-57.333 0 -106.501 -20.333 -147.501 -61s-61.5 -90 -61.5 -148s20.333 -107 61 -147s90 -60 148 -60s107 20 147 60s60 89 60 147s-20.167 107.333 -60.5 148s-89.166 61 -146.499 61zM322.999 1442c76.667 0 142.002 -27.167 196.002 -81.5
s81 -119.833 81 -196.5c0 -76 -27.333 -141.333 -82 -196s-120.334 -82 -197.001 -82c-78 0 -143.667 27 -197 81s-80 119.667 -80 197s27.167 143 81.5 197s120.166 81 197.499 81z" />
    <glyph glyph-name="plusminus" unicode="&#xb1;" horiz-adv-x="928" 
d="M394 647h-350v140h350v369l1 1h139v-370h349l1 -1v-139h-350v-370h-140v370zM44 0v140h839l1 -1v-139h-840z" />
    <glyph glyph-name="uni00B2" unicode="&#xb2;" horiz-adv-x="609" 
d="M87 1411l386.999 0.000976562l11 -10c-21.333 -15.333 -32 -30.333 -32 -45c74.667 -73.333 112 -144.333 112 -213v-45c0 -92 -105.667 -202.667 -317 -332c-60.667 -56.667 -91 -91.667 -91 -105h107c147.333 0 221 15 221 45h11l26 -94l43 -50l-5 -5v-5l-70 5l-150 -5
l-6 5h-5l-22 -5h-48l-5 5l-6 -5h-10l-6 5l-5 -5h-172l-11 10v5c15.333 76.667 85.333 177.667 210 303c121.333 96.667 182 191 182 283c0 76 -35.667 132 -107 168l-32 10h-38c-67.333 0 -108.666 -38 -123.999 -114v-30c0 -42 30.667 -68.333 92 -79h11
c32 5.33301 48 18.666 48 39.999c-36 0 -54 11.333 -54 34c8 17.333 24.333 29 49 35c39.333 -16 59 -37.333 59 -64c0 -46 -32.333 -79.333 -97 -100h-32c-74 0 -126 41.333 -156 124l-6 35v10c0 48.667 23.333 96.667 70 144v10l-32 20v15z" />
    <glyph glyph-name="uni00B3" unicode="&#xb3;" horiz-adv-x="620" 
d="M119 1411l6.00195 -5.00098l5 5h172l16 -10l11 10h129l11 -10l-27 -25v-20c50 -56 75 -100.667 75 -134v-20c0 -76.667 -48.333 -131.334 -145 -164.001l-5 -4v-5c42 0 93.667 -28.333 155 -85c36 -54 54 -100.333 54 -139c0 -62.667 -28.667 -125.334 -86 -188.001v-5
c0 -19.333 16.333 -32.666 49 -39.999v-5l-11 -10h-81l-80 -5l-43 5l-17 -5l-5 5l-21 -5l-33 5l-48 -5v5l-16 -5l-32 5l-6 -5h-5l-22 5l-64 -5l-6 5v5l38 30l5 20c-32 67.333 -48 110.333 -48 129c12.667 102.667 66.334 154 161.001 154h11c68 -11.333 102 -41.333 102 -90
c0 -27.333 -19.667 -43.666 -59 -48.999c-21.333 0 -32 11.333 -32 34v10c5.33301 13.333 17.666 20 36.999 20v5l-32 25h-37c-46.667 0 -70 -31.333 -70 -94c0 -58.667 48.333 -100 145 -124l5 5h6l5 -5c68 18 102 34.333 102 49c13.333 0 33 34.667 59 104
c0 96 -39.333 162.333 -118 199l-65 10l-69 -15l-11 10v20l5 20l-5 19v10l11 10c32 -2 48 -5.33301 48 -10c83.333 0 139 43 167 129c-12.667 99.333 -57.667 149 -135 149h-5c-72 -14 -108 -45.333 -108 -94v-30c15.333 -30 38.666 -45 69.999 -45
c16.667 6.66699 25.667 13.334 27 20.001v5c-16 0 -26.667 6.66699 -32 20v5l27 25h16c21.333 -14 32 -27.333 32 -40c0 -41.333 -28.667 -64.333 -86 -69c-68.667 0 -113.334 36.333 -134.001 109v5c0 36 17.667 75.667 53 119l-37 40l5 5h16z" />
    <glyph glyph-name="acute" unicode="&#xb4;" horiz-adv-x="549" 
d="M335 1375c23.333 23.333 41.833 38.999 55.5 46.999s27.167 12 40.5 12c22 0 39.833 -6.66699 53.5 -20s20.5 -30.333 20.5 -51c0 -14.667 -5.16699 -28.667 -15.5 -42s-25.833 -26.666 -46.5 -39.999l-330 -203h-69z" />
    <glyph glyph-name="mu" unicode="&#xb5;" horiz-adv-x="820" 
d="M531 300l0.000976562 207l8 8l-8 8v398l16 16h7l8 -8l8 8h7l31 -8l7 8h23v-8l54 8h69l15 -16l-76 -69c-15.333 -26 -23 -51.333 -23 -76v-246l-8 -7l8 -8v-69l-8 -8l8 -7v-115l-8 -8l8 -8v-15h-8c2 -148 20 -222 54 -222l53 -46l-7 -8v-8l-77 8h-99l-54 -8l-8 8v146l8 30
l-8 31c-112.667 -92 -176.334 -138 -191.001 -138v-31c35.333 -10 53 -20 53 -30l-15 -16h-8l-7 8l-8 -8h-66v-234l-8 -31l8 -30v-146l-8 -8l-54 8h-99l-77 -8v8l-7 8l53 46c34 0 52 74 54 222h-8v15l8 8l-8 8l5 909c0 52 -33.333 100.333 -100 145l8 8v8l77 -8h138
c10 0 15 -15.333 15 -46h8l-8 -38v-161l8 -46l-8 -39v-7l8 -39l-8 -46v-32l3 -3v-66l5 -14l-5 -24v-236h12c113.333 95.333 190 151.333 230 168z" />
    <glyph glyph-name="paragraph" unicode="&#xb6;" horiz-adv-x="924" 
d="M880 1435l-0.000976562 -70h-127v-1365h-82v1365h-166v-1365h-84v738c-116 5.33301 -207.833 39.5 -275.5 102.5s-101.5 144.833 -101.5 245.5c0 104.667 35.833 189 107.5 253s166.834 96 285.501 96h443z" />
    <glyph glyph-name="periodcentered" unicode="&#xb7;" horiz-adv-x="338" 
d="M60 740l82.001 84c10 9.33301 19.667 14 29 14c8.66699 0 19 -5.33301 31 -16l80 -86c8 -10.667 12 -20.334 12 -29.001c0 -10 -4.66699 -20.333 -14 -31l-80 -88c-13.333 -13.333 -23 -20 -29 -20c-10.667 0 -20.334 4.66699 -29.001 14l-88 101
c-6.66699 8.66699 -10 17.334 -10 26.001c0 10 5.33301 20.333 16 31z" />
    <glyph glyph-name="periodcentered" unicode="&#x2219;" horiz-adv-x="338" 
d="M60 740l82.001 84c10 9.33301 19.667 14 29 14c8.66699 0 19 -5.33301 31 -16l80 -86c8 -10.667 12 -20.334 12 -29.001c0 -10 -4.66699 -20.333 -14 -31l-80 -88c-13.333 -13.333 -23 -20 -29 -20c-10.667 0 -20.334 4.66699 -29.001 14l-88 101
c-6.66699 8.66699 -10 17.334 -10 26.001c0 10 5.33301 20.333 16 31z" />
    <glyph glyph-name="cedilla" unicode="&#xb8;" horiz-adv-x="496" 
d="M44 -290c56.667 -34.667 107.333 -52 152 -52c44 0 75.5 7.16699 94.5 21.5s28.5 36.5 28.5 66.5s-16.333 51.333 -49 64c-26.667 10.667 -60.667 16 -102 16c-10.667 0 -22 -0.666992 -34 -2l48 176h63l-37 -104c21.333 2.66699 42 4.33398 62 5.00098
c57.333 0 102 -13.5 134 -40.5s48 -64.833 48 -113.5c0 -50.667 -19.5 -90.834 -58.5 -120.501s-92.5 -44.5 -160.5 -44.5c-72.667 0 -135.667 10.667 -189 32v96z" />
    <glyph glyph-name="uni00B9" unicode="&#xb9;" horiz-adv-x="478" 
d="M386 1418l9.99902 -15.001c-14 -6.66699 -28 -24.667 -42 -54l5 -5l-5 -35v-128l5 -69l-5 -5v-5l5 -54v-79l-5 -29l5 -15h-5l5 -5v-187l5 -25h-5c0 -55.333 25 -103 75 -143l-16 -10l-38 5l-5 -5l-16 5l-133 -5v5l-6 -5h-48v15c50 22.667 75 75.334 75 158.001v498
c-68 -66 -119.667 -99 -155 -99h-21c-18 8.66699 -27 21.667 -27 39v15c6.66699 12 17.334 20.333 32.001 25l32 -20c24 12 58 50 102 114l42 113h80z" />
    <glyph glyph-name="ordmasculine" unicode="&#xba;" horiz-adv-x="600" 
d="M305.972 1430.78h10.5605c82.2764 -49.1982 139.254 -120.995 170.933 -215.392l10.5596 -45.5986h-5.28027l5.28027 -4.79883c0 -101.996 -52.1377 -196.593 -156.414 -283.789c0 -12.3994 -5.05957 -18.5996 -15.1797 -18.5996h-9.89941
c-117.476 90.7969 -176.213 173.394 -176.213 247.79l-5.2793 26.999v27.5996c0 84.7959 56.9775 173.393 170.933 265.789zM265.715 1343.78c-32.1191 -40.7979 -50.5986 -86.5967 -55.4385 -137.395c0 -94.7959 50.3779 -177.192 151.134 -247.189
c16.7197 0 33.6592 39.5986 50.8184 118.795v9c0 103.995 -48.8379 189.592 -146.514 256.789zM44.001 802.999h512v-60h-512v60z" />
    <glyph glyph-name="guillemotright" unicode="&#xbb;" horiz-adv-x="757" 
d="M58 176h-14v37l205 266l-205 266v37h14l342 -303zM371 176h-14v37l205 266l-205 266v37h14l342 -303z" />
    <glyph glyph-name="onequarter" unicode="&#xbc;" horiz-adv-x="1826" 
d="M386 1418l9.99902 -15.001c-14 -6.66699 -28 -24.667 -42 -54l5 -5l-5 -35v-128l5 -69l-5 -5v-5l5 -54v-79l-5 -29l5 -15h-5l5 -5v-187l5 -25h-5c0 -55.333 25 -103 75 -143l-16 -10l-38 5l-5 -5l-16 5l-133 -5v5l-6 -5h-48v15c50 22.667 75 75.334 75 158.001v498
c-68 -66 -119.667 -99 -155 -99h-21c-18 8.66699 -27 21.667 -27 39v15c6.66699 12 17.334 20.333 32.001 25l32 -20c24 12 58 50 102 114l42 113h80zM345.999 -29.001l940 1461h84l-938 -1461h-86zM1675 858.999l5.00098 -5v-5c-32 -21.333 -48 -49.333 -48 -84l-5 -39
l5 -20v-5l-5 -5l5 -15l-5 -54l5 -20h-5l5 -5v-44l-5 -5l5 -5v-197h6c42.667 0 74.667 13 96 39c7.33301 0 12.666 -21.333 15.999 -64l32 -54l-5 -5h-102l-5 5l-6 -5h-32v-55l6 -59h-6l6 -5v-19l-6 -5c17.333 -66 44 -99 80 -99l11 -15l-16 -10l-27 5h-181l-54 -5l-10 15
c56.667 36.667 85 73 85 109l5 143h-80l-5 5l-5 -5h-246c-7.33301 0 -11 5 -11 15l310 488l16 44c-3.33301 16.667 -10.333 25 -21 25v15h101zM1301 350.999h96l27 5v-5l5 5l64 -5h27v44l5 5l-5 5v44l5 5l-5 5v89l5 148c-13.333 -12.667 -54.333 -76.667 -123 -192z" />
    <glyph glyph-name="onehalf" unicode="&#xbd;" horiz-adv-x="1784" 
d="M386 1418l9.99902 -15.001c-14 -6.66699 -28 -24.667 -42 -54l5 -5l-5 -35v-128l5 -69l-5 -5v-5l5 -54v-79l-5 -29l5 -15h-5l5 -5v-187l5 -25h-5c0 -55.333 25 -103 75 -143l-16 -10l-38 5l-5 -5l-16 5l-133 -5v5l-6 -5h-48v15c50 22.667 75 75.334 75 158.001v498
c-68 -66 -119.667 -99 -155 -99h-21c-18 8.66699 -27 21.667 -27 39v15c6.66699 12 17.334 20.333 32.001 25l32 -20c24 12 58 50 102 114l42 113h80zM345.999 -29.001l940 1461h84l-938 -1461h-86zM1262 858.999l386.999 0.000976562l11 -10
c-21.333 -15.333 -32 -30.333 -32 -45c74.667 -73.333 112 -144.333 112 -213v-45c0 -92 -105.667 -202.667 -317 -332c-60.667 -56.667 -91 -91.667 -91 -105h107c147.333 0 221 15 221 45h11l26 -94l43 -50l-5 -5v-5l-70 5l-150 -5l-6 5h-5l-22 -5h-48l-5 5l-6 -5h-10
l-6 5l-5 -5h-172l-11 10v5c15.333 76.667 85.333 177.667 210 303c121.333 96.667 182 191 182 283c0 76 -35.667 132 -107 168l-32 10h-38c-67.333 0 -108.666 -38 -123.999 -114v-30c0 -42 30.667 -68.333 92 -79h11c32 5.33301 48 18.666 48 39.999
c-36 0 -54 11.333 -54 34c8 17.333 24.333 29 49 35c39.333 -16 59 -37.333 59 -64c0 -46 -32.333 -79.333 -97 -100h-32c-74 0 -126 41.333 -156 124l-6 35v10c0 48.667 23.333 96.667 70 144v10l-32 20v15z" />
    <glyph glyph-name="threequarters" unicode="&#xbe;" horiz-adv-x="1897" 
d="M119 1411l6.00195 -5.00098l5 5h172l16 -10l11 10h129l11 -10l-27 -25v-20c50 -56 75 -100.667 75 -134v-20c0 -76.667 -48.333 -131.334 -145 -164.001l-5 -4v-5c42 0 93.667 -28.333 155 -85c36 -54 54 -100.333 54 -139c0 -62.667 -28.667 -125.334 -86 -188.001v-5
c0 -19.333 16.333 -32.666 49 -39.999v-5l-11 -10h-81l-80 -5l-43 5l-17 -5l-5 5l-21 -5l-33 5l-48 -5v5l-16 -5l-32 5l-6 -5h-5l-22 5l-64 -5l-6 5v5l38 30l5 20c-32 67.333 -48 110.333 -48 129c12.667 102.667 66.334 154 161.001 154h11c68 -11.333 102 -41.333 102 -90
c0 -27.333 -19.667 -43.666 -59 -48.999c-21.333 0 -32 11.333 -32 34v10c5.33301 13.333 17.666 20 36.999 20v5l-32 25h-37c-46.667 0 -70 -31.333 -70 -94c0 -58.667 48.333 -100 145 -124l5 5h6l5 -5c68 18 102 34.333 102 49c13.333 0 33 34.667 59 104
c0 96 -39.333 162.333 -118 199l-65 10l-69 -15l-11 10v20l5 20l-5 19v10l11 10c32 -2 48 -5.33301 48 -10c83.333 0 139 43 167 129c-12.667 99.333 -57.667 149 -135 149h-5c-72 -14 -108 -45.333 -108 -94v-30c15.333 -30 38.666 -45 69.999 -45
c16.667 6.66699 25.667 13.334 27 20.001v5c-16 0 -26.667 6.66699 -32 20v5l27 25h16c21.333 -14 32 -27.333 32 -40c0 -41.333 -28.667 -64.333 -86 -69c-68.667 0 -113.334 36.333 -134.001 109v5c0 36 17.667 75.667 53 119l-37 40l5 5h16zM417.002 -29.001l940 1461h84
l-938 -1461h-86zM1746 858.999l5.00098 -5v-5c-32 -21.333 -48 -49.333 -48 -84l-5 -39l5 -20v-5l-5 -5l5 -15l-5 -54l5 -20h-5l5 -5v-44l-5 -5l5 -5v-197h6c42.667 0 74.667 13 96 39c7.33301 0 12.666 -21.333 15.999 -64l32 -54l-5 -5h-102l-5 5l-6 -5h-32v-55l6 -59h-6
l6 -5v-19l-6 -5c17.333 -66 44 -99 80 -99l11 -15l-16 -10l-27 5h-181l-54 -5l-10 15c56.667 36.667 85 73 85 109l5 143h-80l-5 5l-5 -5h-246c-7.33301 0 -11 5 -11 15l310 488l16 44c-3.33301 16.667 -10.333 25 -21 25v15h101zM1372 350.999h96l27 5v-5l5 5l64 -5h27v44
l5 5l-5 5v44l5 5l-5 5v89l5 148c-13.333 -12.667 -54.333 -76.667 -123 -192z" />
    <glyph glyph-name="questiondown" unicode="&#xbf;" horiz-adv-x="622" 
d="M578 -396c-85.333 -69.333 -165.999 -104 -241.999 -104c-88 0 -158.667 22.667 -212 68s-80 106 -80 182c0 46 10.833 92.667 32.5 140s63.167 109.333 124.5 186c60 75.333 107.167 137.833 141.5 187.5s51.5 97.167 51.5 142.5c0 42 -11.667 105 -35 189h47
c33.333 -92 50 -162.333 50 -211c0 -72.667 -38.833 -176.667 -116.5 -312s-116.5 -238.333 -116.5 -309c0 -54.667 15.667 -97.667 47 -129s74.666 -47 129.999 -47c56 0 115.333 27 178 81v-64zM487.001 767l-82.001 -84c-10 -9.33301 -19.667 -14 -29 -14
c-8.66699 0 -19 5.33301 -31 16l-80 86c-8 10.667 -12 20.334 -12 29.001c0 10 4.66699 20.333 14 31l80 88c13.333 13.333 23 20 29 20c10.667 0 20.334 -4.66699 29.001 -14l88 -101c6.66699 -8.66699 10 -17.334 10 -26.001c0 -10 -5.33301 -20.333 -16 -31z" />
    <glyph glyph-name="Agrave" unicode="&#xc0;" horiz-adv-x="1164" 
d="M814 1430l7.99902 -8v-7l-103 -63l-39 -71c0 -55.333 94.333 -411.333 283 -1068c50.667 -115.333 100.334 -173 149.001 -173l8 -8v-15l-16 -16h-94l-8 8l-8 -8l-157 8l-78 -8v8l-8 -8h-55l-16 16v7c54 29.333 88 55.666 102 78.999l8 39
c-14 100.667 -29.667 168.667 -47 204h8l-24 79h-322c-36.667 -153.333 -55 -247.666 -55 -282.999c0 -34 34 -75.667 102 -125v-16h-141l-8 8l-8 -8h-23l-8 8l-24 -8l-31 8l-8 -8l-47 8l-102 -8l-8 8v8c100 70 152.333 127.333 157 172c84 256.667 175.667 613 275 1069v31
c0 52 -34 88.667 -102 110v8l16 15h7l8 -7l8 7h283zM444.999 566v-7h251c-52.667 154 -94.667 308.333 -126 463c-14 -10 -55.667 -162 -125 -456zM735.999 1571l-69 0.000976562l-330 202c-20.667 13.333 -36.167 26.666 -46.5 39.999s-15.5 27.333 -15.5 42
c0 20.667 6.83301 37.667 20.5 51s31.5 20 53.5 20c13.333 0 26.833 -4 40.5 -12s32.167 -23.667 55.5 -47z" />
    <glyph glyph-name="Aacute" unicode="&#xc1;" horiz-adv-x="1164" 
d="M814 1430l7.99902 -8v-7l-103 -63l-39 -71c0 -55.333 94.333 -411.333 283 -1068c50.667 -115.333 100.334 -173 149.001 -173l8 -8v-15l-16 -16h-94l-8 8l-8 -8l-157 8l-78 -8v8l-8 -8h-55l-16 16v7c54 29.333 88 55.666 102 78.999l8 39
c-14 100.667 -29.667 168.667 -47 204h8l-24 79h-322c-36.667 -153.333 -55 -247.666 -55 -282.999c0 -34 34 -75.667 102 -125v-16h-141l-8 8l-8 -8h-23l-8 8l-24 -8l-31 8l-8 -8l-47 8l-102 -8l-8 8v8c100 70 152.333 127.333 157 172c84 256.667 175.667 613 275 1069v31
c0 52 -34 88.667 -102 110v8l16 15h7l8 -7l8 7h283zM444.999 566v-7h251c-52.667 154 -94.667 308.333 -126 463c-14 -10 -55.667 -162 -125 -456zM718.999 1867c23.333 23.333 41.833 38.999 55.5 46.999s27.167 12 40.5 12c22 0 39.833 -6.66699 53.5 -20
s20.5 -30.333 20.5 -51c0 -14.667 -5.16699 -28.667 -15.5 -42s-25.833 -26.666 -46.5 -39.999l-330 -203h-69z" />
    <glyph glyph-name="Acircumflex" unicode="&#xc2;" horiz-adv-x="1164" 
d="M814 1430l7.99902 -8v-7l-103 -63l-39 -71c0 -55.333 94.333 -411.333 283 -1068c50.667 -115.333 100.334 -173 149.001 -173l8 -8v-15l-16 -16h-94l-8 8l-8 -8l-157 8l-78 -8v8l-8 -8h-55l-16 16v7c54 29.333 88 55.666 102 78.999l8 39
c-14 100.667 -29.667 168.667 -47 204h8l-24 79h-322c-36.667 -153.333 -55 -247.666 -55 -282.999c0 -34 34 -75.667 102 -125v-16h-141l-8 8l-8 -8h-23l-8 8l-24 -8l-31 8l-8 -8l-47 8l-102 -8l-8 8v8c100 70 152.333 127.333 157 172c84 256.667 175.667 613 275 1069v31
c0 52 -34 88.667 -102 110v8l16 15h7l8 -7l8 7h283zM444.999 566v-7h251c-52.667 154 -94.667 308.333 -126 463c-14 -10 -55.667 -162 -125 -456zM290.999 1571l232 355h118l232 -355h-58l-233 216l-233 -216h-58z" />
    <glyph glyph-name="Atilde" unicode="&#xc3;" horiz-adv-x="1164" 
d="M814 1430l7.99902 -8v-7l-103 -63l-39 -71c0 -55.333 94.333 -411.333 283 -1068c50.667 -115.333 100.334 -173 149.001 -173l8 -8v-15l-16 -16h-94l-8 8l-8 -8l-157 8l-78 -8v8l-8 -8h-55l-16 16v7c54 29.333 88 55.666 102 78.999l8 39
c-14 100.667 -29.667 168.667 -47 204h8l-24 79h-322c-36.667 -153.333 -55 -247.666 -55 -282.999c0 -34 34 -75.667 102 -125v-16h-141l-8 8l-8 -8h-23l-8 8l-24 -8l-31 8l-8 -8l-47 8l-102 -8l-8 8v8c100 70 152.333 127.333 157 172c84 256.667 175.667 613 275 1069v31
c0 52 -34 88.667 -102 110v8l16 15h7l8 -7l8 7h283zM444.999 566v-7h251c-52.667 154 -94.667 308.333 -126 463c-14 -10 -55.667 -162 -125 -456zM868.999 1874c-13.333 -68.667 -36.1689 -120 -68.502 -154s-74.5 -51 -126.5 -51h-4c-33.333 0 -71 7.66699 -113 23
c-44 16 -82 24 -114 24c-26 0 -46.167 -6.83301 -60.5 -20.5s-25.5 -37.5 -33.5 -71.5h-54c12.667 70.667 35.334 123.5 68.001 158.5s75.667 52.5 129 52.5c30.667 -0.666992 68.334 -8.66699 113.001 -24c42.667 -15.333 80 -23 112 -23h4c24 0 43.333 6.66699 58 20
s26.667 35.333 36 66h54z" />
    <glyph glyph-name="Adieresis" unicode="&#xc4;" horiz-adv-x="1164" 
d="M814 1430l7.99902 -8v-7l-103 -63l-39 -71c0 -55.333 94.333 -411.333 283 -1068c50.667 -115.333 100.334 -173 149.001 -173l8 -8v-15l-16 -16h-94l-8 8l-8 -8l-157 8l-78 -8v8l-8 -8h-55l-16 16v7c54 29.333 88 55.666 102 78.999l8 39
c-14 100.667 -29.667 168.667 -47 204h8l-24 79h-322c-36.667 -153.333 -55 -247.666 -55 -282.999c0 -34 34 -75.667 102 -125v-16h-141l-8 8l-8 -8h-23l-8 8l-24 -8l-31 8l-8 -8l-47 8l-102 -8l-8 8v8c100 70 152.333 127.333 157 172c84 256.667 175.667 613 275 1069v31
c0 52 -34 88.667 -102 110v8l16 15h7l8 -7l8 7h283zM444.999 566v-7h251c-52.667 154 -94.667 308.333 -126 463c-14 -10 -55.667 -162 -125 -456zM305.999 1781l70.998 71.998c8.66699 8 17 12 25 12c7.33301 0 16.333 -4.66699 27 -14l69 -73
c6.66699 -9.33301 10 -17.666 10 -24.999c0 -8.66699 -4 -17.667 -12 -27l-69 -75c-11.333 -11.333 -19.666 -17 -24.999 -17c-9.33301 0 -17.666 4 -24.999 12l-76 86c-6 8 -9 15.667 -9 23c0 8.66699 4.66699 17.334 14 26.001zM670.997 1781l70.998 72
c8.66699 8 17 12 25 12c7.33301 0 16.333 -4.33301 27 -13l69 -74c6.66699 -9.33301 10 -17.666 10 -24.999c0 -8.66699 -4 -17.334 -12 -26.001l-69 -76c-11.333 -11.333 -19.666 -17 -24.999 -17c-9.33301 0 -17.666 4 -24.999 12l-76 87c-6 7.33301 -9 14.666 -9 21.999
c0 8.66699 4.66699 17.334 14 26.001z" />
    <glyph glyph-name="Aring" unicode="&#xc5;" horiz-adv-x="1164" 
d="M814 1430l7.99902 -8v-7l-103 -63l-39 -71c0 -55.333 94.333 -411.333 283 -1068c50.667 -115.333 100.334 -173 149.001 -173l8 -8v-15l-16 -16h-94l-8 8l-8 -8l-157 8l-78 -8v8l-8 -8h-55l-16 16v7c54 29.333 88 55.666 102 78.999l8 39
c-14 100.667 -29.667 168.667 -47 204h8l-24 79h-322c-36.667 -153.333 -55 -247.666 -55 -282.999c0 -34 34 -75.667 102 -125v-16h-141l-8 8l-8 -8h-23l-8 8l-24 -8l-31 8l-8 -8l-47 8l-102 -8l-8 8v8c100 70 152.333 127.333 157 172c84 256.667 175.667 613 275 1069v31
c0 52 -34 88.667 -102 110v8l16 15h7l8 -7l8 7h283zM444.999 566v-7h251c-52.667 154 -94.667 308.333 -126 463c-14 -10 -55.667 -162 -125 -456zM480.999 1749c0 -28 9.66699 -51.667 29 -71s43 -29 71 -29s51.667 9.66699 71 29s29 43 29 71
c0 26.667 -9.83301 49.834 -29.5 69.501s-43.167 29.5 -70.5 29.5s-50.833 -9.83301 -70.5 -29.5s-29.5 -42.834 -29.5 -69.501zM404.999 1749c0 50 17 91.999 51 125.999s75.667 51 125 51c50.667 0 93.167 -17.167 127.5 -51.5s51.5 -76.166 51.5 -125.499
c0 -50 -17.167 -92.167 -51.5 -126.5s-76.833 -51.5 -127.5 -51.5c-49.333 0 -91 17.167 -125 51.5s-51 76.5 -51 126.5z" />
    <glyph glyph-name="AE" unicode="&#xc6;" horiz-adv-x="1672" 
d="M814 1430l7.99902 -8v-7l-103 -63l-39 -71c0 -55.333 94.333 -411.333 283 -1068c50.667 -115.333 100.334 -173 149.001 -173l8 -8v-15l-16 -16h-94l-8 8l-8 -8l-157 8l-78 -8v8l-8 -8h-55l-16 16v7c54 29.333 88 55.666 102 78.999l8 39
c-14 100.667 -29.667 168.667 -47 204h8l-24 79h-322c-36.667 -153.333 -55 -247.666 -55 -282.999c0 -34 34 -75.667 102 -125v-16h-141l-8 8l-8 -8h-23l-8 8l-24 -8l-31 8l-8 -8l-47 8l-102 -8l-8 8v8c100 70 152.333 127.333 157 172c84 256.667 175.667 613 275 1069v31
c0 52 -34 88.667 -102 110v8l16 15h7l8 -7l8 7h283zM444.999 566v-7h251c-52.667 154 -94.667 308.333 -126 463c-14 -10 -55.667 -162 -125 -456zM1502 1439l0.000976562 -7.99902l8 8h71l16 -16c-138.667 -133.333 -215 -225.333 -229 -276c36.667 -10 55 -28.333 55 -55
c0 -46 -26.333 -72.333 -79 -79c-52 15.333 -78 44 -78 86v8c0 38 23.667 90.667 71 158v8c-50 36.667 -116 55 -198 55h-15c-136.667 0 -205 -60.333 -205 -181l7 -158h-7l7 -8v-23l-7 -32l7 -8l-7 -39l7 -32l119 8h236v-16l-71 -205h8c23.333 0 41.666 -13 54.999 -39v-16
c0 -42 -21 -63 -63 -63h-8c-47.333 0 -73.333 31.667 -78 95l23 102h-8l-142 -8v8l-7 -8h-16l-8 8l-47 -24l7 -7v-8l-7 -8v-8l7 -40h-7l7 -7v-371c0 -89.333 52.667 -134 158 -134h40c84 0 176 23.667 276 71c-42 77.333 -63 145.666 -63 204.999v24
c6.66699 78.667 46 118 118 118c42 -14 63 -37.667 63 -71c0 -42 -31.667 -63 -95 -63c0 -90.667 68.333 -211.667 205 -363l-15 -16h-127l-31 -8l-32 8h-16l-55 -8v8l-8 -8h-7l-8 8l-8 -8h-142l-8 8l-8 -8h-339l-197 -8l-8 8v16c89.333 50.667 134 119 134 205v32l8 8l-8 7
v142l8 8l-8 8v32l8 110l-8 24h8l-8 8v15h8l-8 95v497c0 98 -47.333 161 -142 189v8l24 24l55 -8h79l134 8v-8l8 8h181z" />
    <glyph glyph-name="Ccedilla" unicode="&#xc7;" horiz-adv-x="948" 
d="M730 1437l23.999 -7.99707l8 8l31 -8l103 8l8 -8v-8c-142 -174.667 -213 -335 -213 -481v-47l8 -8v-8l7 8h32c36.667 0 55 -18.333 55 -55v-40c-22 -31.333 -45.667 -47 -71 -47c-72.667 0 -114.667 44.667 -126 134l-8 32c0 117.333 31.667 233 95 347h-316
c-46 -48.667 -93.333 -167 -142 -355l-8 -150v-95c0 -220.667 63.333 -378.334 190 -473.001l110 -32c96.667 0 170.334 58 221.001 174c21.333 61.333 32 129.666 32 204.999v8l15 16h95l16 -16c0 -288.667 -97.333 -470 -292 -544l-126 -16c-220 0 -362 165.667 -426 497
l-8 126v39c0 171.333 73.667 397.666 221 678.999l16 47l-24 55l8 8h418zM269.999 -289.997c56.667 -34.667 107.333 -52 152 -52c44 0 75.5 7.16699 94.5 21.5s28.5 36.5 28.5 66.5s-16.333 51.333 -49 64c-26.667 10.667 -60.667 16 -102 16
c-10.667 0 -22 -0.666992 -34 -2l48 176h63l-37 -104c21.333 2.66699 42 4.33398 62 5.00098c57.333 0 102 -13.5 134 -40.5s48 -64.833 48 -113.5c0 -50.667 -19.5 -90.834 -58.5 -120.501s-92.5 -44.5 -160.5 -44.5c-72.667 0 -135.667 10.667 -189 32v96z" />
    <glyph glyph-name="Egrave" unicode="&#xc8;" horiz-adv-x="1105" 
d="M935 1439l0.000976562 -7.99902l8 8h71l16 -16c-138.667 -133.333 -215 -225.333 -229 -276c36.667 -10 55 -28.333 55 -55c0 -46 -26.333 -72.333 -79 -79c-52 15.333 -78 44 -78 86v8c0 38 23.667 90.667 71 158v8c-50 36.667 -116 55 -198 55h-15
c-136.667 0 -205 -60.333 -205 -181l7 -158h-7l7 -8v-23l-7 -32l7 -8l-7 -39l7 -32l119 8h236v-16l-71 -205h8c23.333 0 41.666 -13 54.999 -39v-16c0 -42 -21 -63 -63 -63h-8c-47.333 0 -73.333 31.667 -78 95l23 102h-8l-142 -8v8l-7 -8h-16l-8 8l-47 -24l7 -7v-8l-7 -8
v-8l7 -40h-7l7 -7v-371c0 -89.333 52.667 -134 158 -134h40c84 0 176 23.667 276 71c-42 77.333 -63 145.666 -63 204.999v24c6.66699 78.667 46 118 118 118c42 -14 63 -37.667 63 -71c0 -42 -31.667 -63 -95 -63c0 -90.667 68.333 -211.667 205 -363l-15 -16h-127l-31 -8
l-32 8h-16l-55 -8v8l-8 -8h-7l-8 8l-8 -8h-142l-8 8l-8 -8h-339l-197 -8l-8 8v16c89.333 50.667 134 119 134 205v32l8 8l-8 7v142l8 8l-8 8v32l8 110l-8 24h8l-8 8v15h8l-8 95v497c0 98 -47.333 161 -142 189v8l24 24l55 -8h79l134 8v-8l8 8h181zM706.001 1571
l-69 0.000976562l-330 202c-20.667 13.333 -36.167 26.666 -46.5 39.999s-15.5 27.333 -15.5 42c0 20.667 6.83301 37.667 20.5 51s31.5 20 53.5 20c13.333 0 26.833 -4 40.5 -12s32.167 -23.667 55.5 -47z" />
    <glyph glyph-name="Eacute" unicode="&#xc9;" horiz-adv-x="1105" 
d="M935 1439l0.000976562 -7.99902l8 8h71l16 -16c-138.667 -133.333 -215 -225.333 -229 -276c36.667 -10 55 -28.333 55 -55c0 -46 -26.333 -72.333 -79 -79c-52 15.333 -78 44 -78 86v8c0 38 23.667 90.667 71 158v8c-50 36.667 -116 55 -198 55h-15
c-136.667 0 -205 -60.333 -205 -181l7 -158h-7l7 -8v-23l-7 -32l7 -8l-7 -39l7 -32l119 8h236v-16l-71 -205h8c23.333 0 41.666 -13 54.999 -39v-16c0 -42 -21 -63 -63 -63h-8c-47.333 0 -73.333 31.667 -78 95l23 102h-8l-142 -8v8l-7 -8h-16l-8 8l-47 -24l7 -7v-8l-7 -8
v-8l7 -40h-7l7 -7v-371c0 -89.333 52.667 -134 158 -134h40c84 0 176 23.667 276 71c-42 77.333 -63 145.666 -63 204.999v24c6.66699 78.667 46 118 118 118c42 -14 63 -37.667 63 -71c0 -42 -31.667 -63 -95 -63c0 -90.667 68.333 -211.667 205 -363l-15 -16h-127l-31 -8
l-32 8h-16l-55 -8v8l-8 -8h-7l-8 8l-8 -8h-142l-8 8l-8 -8h-339l-197 -8l-8 8v16c89.333 50.667 134 119 134 205v32l8 8l-8 7v142l8 8l-8 8v32l8 110l-8 24h8l-8 8v15h8l-8 95v497c0 98 -47.333 161 -142 189v8l24 24l55 -8h79l134 8v-8l8 8h181zM690.001 1867
c23.333 23.333 41.833 38.999 55.5 46.999s27.167 12 40.5 12c22 0 39.833 -6.66699 53.5 -20s20.5 -30.333 20.5 -51c0 -14.667 -5.16699 -28.667 -15.5 -42s-25.833 -26.666 -46.5 -39.999l-330 -203h-69z" />
    <glyph glyph-name="Ecircumflex" unicode="&#xca;" horiz-adv-x="1105" 
d="M935 1439l0.000976562 -7.99902l8 8h71l16 -16c-138.667 -133.333 -215 -225.333 -229 -276c36.667 -10 55 -28.333 55 -55c0 -46 -26.333 -72.333 -79 -79c-52 15.333 -78 44 -78 86v8c0 38 23.667 90.667 71 158v8c-50 36.667 -116 55 -198 55h-15
c-136.667 0 -205 -60.333 -205 -181l7 -158h-7l7 -8v-23l-7 -32l7 -8l-7 -39l7 -32l119 8h236v-16l-71 -205h8c23.333 0 41.666 -13 54.999 -39v-16c0 -42 -21 -63 -63 -63h-8c-47.333 0 -73.333 31.667 -78 95l23 102h-8l-142 -8v8l-7 -8h-16l-8 8l-47 -24l7 -7v-8l-7 -8
v-8l7 -40h-7l7 -7v-371c0 -89.333 52.667 -134 158 -134h40c84 0 176 23.667 276 71c-42 77.333 -63 145.666 -63 204.999v24c6.66699 78.667 46 118 118 118c42 -14 63 -37.667 63 -71c0 -42 -31.667 -63 -95 -63c0 -90.667 68.333 -211.667 205 -363l-15 -16h-127l-31 -8
l-32 8h-16l-55 -8v8l-8 -8h-7l-8 8l-8 -8h-142l-8 8l-8 -8h-339l-197 -8l-8 8v16c89.333 50.667 134 119 134 205v32l8 8l-8 7v142l8 8l-8 8v32l8 110l-8 24h8l-8 8v15h8l-8 95v497c0 98 -47.333 161 -142 189v8l24 24l55 -8h79l134 8v-8l8 8h181zM262.001 1571l232 355h118
l232 -355h-58l-233 216l-233 -216h-58z" />
    <glyph glyph-name="Edieresis" unicode="&#xcb;" horiz-adv-x="1105" 
d="M935 1439l0.000976562 -7.99902l8 8h71l16 -16c-138.667 -133.333 -215 -225.333 -229 -276c36.667 -10 55 -28.333 55 -55c0 -46 -26.333 -72.333 -79 -79c-52 15.333 -78 44 -78 86v8c0 38 23.667 90.667 71 158v8c-50 36.667 -116 55 -198 55h-15
c-136.667 0 -205 -60.333 -205 -181l7 -158h-7l7 -8v-23l-7 -32l7 -8l-7 -39l7 -32l119 8h236v-16l-71 -205h8c23.333 0 41.666 -13 54.999 -39v-16c0 -42 -21 -63 -63 -63h-8c-47.333 0 -73.333 31.667 -78 95l23 102h-8l-142 -8v8l-7 -8h-16l-8 8l-47 -24l7 -7v-8l-7 -8
v-8l7 -40h-7l7 -7v-371c0 -89.333 52.667 -134 158 -134h40c84 0 176 23.667 276 71c-42 77.333 -63 145.666 -63 204.999v24c6.66699 78.667 46 118 118 118c42 -14 63 -37.667 63 -71c0 -42 -31.667 -63 -95 -63c0 -90.667 68.333 -211.667 205 -363l-15 -16h-127l-31 -8
l-32 8h-16l-55 -8v8l-8 -8h-7l-8 8l-8 -8h-142l-8 8l-8 -8h-339l-197 -8l-8 8v16c89.333 50.667 134 119 134 205v32l8 8l-8 7v142l8 8l-8 8v32l8 110l-8 24h8l-8 8v15h8l-8 95v497c0 98 -47.333 161 -142 189v8l24 24l55 -8h79l134 8v-8l8 8h181zM276.001 1781
l70.998 71.998c8.66699 8 17 12 25 12c7.33301 0 16.333 -4.66699 27 -14l69 -73c6.66699 -9.33301 10 -17.666 10 -24.999c0 -8.66699 -4 -17.667 -12 -27l-69 -75c-11.333 -11.333 -19.666 -17 -24.999 -17c-9.33301 0 -17.666 4 -24.999 12l-76 86c-6 8 -9 15.667 -9 23
c0 8.66699 4.66699 17.334 14 26.001zM640.999 1781l70.998 72c8.66699 8 17 12 25 12c7.33301 0 16.333 -4.33301 27 -13l69 -74c6.66699 -9.33301 10 -17.666 10 -24.999c0 -8.66699 -4 -17.334 -12 -26.001l-69 -76c-11.333 -11.333 -19.666 -17 -24.999 -17
c-9.33301 0 -17.666 4 -24.999 12l-76 87c-6 7.33301 -9 14.666 -9 21.999c0 8.66699 4.66699 17.334 14 26.001z" />
    <glyph glyph-name="Igrave" unicode="&#xcc;" horiz-adv-x="626" 
d="M566 1445l8 -7.99805v-8c-95.333 -65.333 -143 -126 -143 -182v-405l8 -48l-8 -24l8 -48v-15h-8l8 -80v-222c0 -238.667 31.667 -358 95 -358c0 -10 13.333 -15 40 -15l8 -8v-8l-16 -16h-310l-79 -8v8l-8 -8h-24l-16 16c0 9.33301 29 27.666 87 54.999
c32 37.333 48 74.666 48 111.999v682l-8 88l8 8v8l-8 47v40l8 8l-8 8v32l8 8l-8 8v135c0 55.333 -45 113.333 -135 174l16 16h127l8 -8l8 8h190zM505 1571l-69 0.000976562l-330 202c-20.667 13.333 -36.167 26.666 -46.5 39.999s-15.5 27.333 -15.5 42
c0 20.667 6.83301 37.667 20.5 51s31.5 20 53.5 20c13.333 0 26.833 -4 40.5 -12s32.167 -23.667 55.5 -47z" />
    <glyph glyph-name="Iacute" unicode="&#xcd;" horiz-adv-x="626" 
d="M489 1445l8 -7.99805v-8c-95.333 -65.333 -143 -126 -143 -182v-405l8 -48l-8 -24l8 -48v-15h-8l8 -80v-222c0 -238.667 31.667 -358 95 -358c0 -10 13.333 -15 40 -15l8 -8v-8l-16 -16h-310l-79 -8v8l-8 -8h-24l-16 16c0 9.33301 29 27.666 87 54.999
c32 37.333 48 74.666 48 111.999v682l-8 88l8 8v8l-8 47v40l8 8l-8 8v32l8 8l-8 8v135c0 55.333 -45 113.333 -135 174l16 16h127l8 -8l8 8h190zM412 1867c23.333 23.333 41.833 38.999 55.5 46.999s27.167 12 40.5 12c22 0 39.833 -6.66699 53.5 -20s20.5 -30.333 20.5 -51
c0 -14.667 -5.16699 -28.667 -15.5 -42s-25.833 -26.666 -46.5 -39.999l-330 -203h-69z" />
    <glyph glyph-name="Icircumflex" unicode="&#xce;" horiz-adv-x="670" 
d="M550 1445l8 -7.99805v-8c-95.333 -65.333 -143 -126 -143 -182v-405l8 -48l-8 -24l8 -48v-15h-8l8 -80v-222c0 -238.667 31.667 -358 95 -358c0 -10 13.333 -15 40 -15l8 -8v-8l-16 -16h-310l-79 -8v8l-8 -8h-24l-16 16c0 9.33301 29 27.666 87 54.999
c32 37.333 48 74.666 48 111.999v682l-8 88l8 8v8l-8 47v40l8 8l-8 8v32l8 8l-8 8v135c0 55.333 -45 113.333 -135 174l16 16h127l8 -8l8 8h190zM44 1571l232 355h118l232 -355h-58l-233 216l-233 -216h-58z" />
    <glyph glyph-name="Idieresis" unicode="&#xcf;" horiz-adv-x="669" 
d="M549 1445l8 -7.99805v-8c-95.333 -65.333 -143 -126 -143 -182v-405l8 -48l-8 -24l8 -48v-15h-8l8 -80v-222c0 -238.667 31.667 -358 95 -358c0 -10 13.333 -15 40 -15l8 -8v-8l-16 -16h-310l-79 -8v8l-8 -8h-24l-16 16c0 9.33301 29 27.666 87 54.999
c32 37.333 48 74.666 48 111.999v682l-8 88l8 8v8l-8 47v40l8 8l-8 8v32l8 8l-8 8v135c0 55.333 -45 113.333 -135 174l16 16h127l8 -8l8 8h190zM58 1781l70.998 71.998c8.66699 8 17 12 25 12c7.33301 0 16.333 -4.66699 27 -14l69 -73
c6.66699 -9.33301 10 -17.666 10 -24.999c0 -8.66699 -4 -17.667 -12 -27l-69 -75c-11.333 -11.333 -19.666 -17 -24.999 -17c-9.33301 0 -17.666 4 -24.999 12l-76 86c-6 8 -9 15.667 -9 23c0 8.66699 4.66699 17.334 14 26.001zM422.998 1781l70.998 72
c8.66699 8 17 12 25 12c7.33301 0 16.333 -4.33301 27 -13l69 -74c6.66699 -9.33301 10 -17.666 10 -24.999c0 -8.66699 -4 -17.334 -12 -26.001l-69 -76c-11.333 -11.333 -19.666 -17 -24.999 -17c-9.33301 0 -17.666 4 -24.999 12l-76 87c-6 7.33301 -9 14.666 -9 21.999
c0 8.66699 4.66699 17.334 14 26.001z" />
    <glyph glyph-name="Eth" unicode="&#xd0;" horiz-adv-x="1112" 
d="M60 1430l39 -8l24 8v-8l8 8l55 -8h8l31 8l8 -8h8l40 8v-8l7 8h56l8 -8l7 8h229l8 -8l8 8h142v-16c-31.333 -26 -47 -49.667 -47 -71l197 -300c62.667 -116 94 -234 94 -354v-40c0 -170 -71 -346 -213 -528v-24c0 -20.667 16 -47 48 -79v-8c0 -10 -8 -15 -24 -15l-8 7h-8
l-23 -7v7l-8 -7l-40 7h-512l-95 -7v7l-8 -7h-39l-16 15l95 79c26 41.333 39 107 39 197v300l-8 32l8 31l-8 32l8 78v229l-8 32l8 31v32l-8 31l8 8v8l-8 8v8l8 31l-8 87v24c-20.667 50 -62.667 89.333 -126 118v8zM344 1264v-378l8 -95h-8l8 -8v-71l-8 -8l8 -8v-236l-8 -8
l8 -8v-260l15 -16h134l150 8l32 -8c84 175.333 126 338.333 126 489c0 200.667 -65.667 403 -197 607h-268zM44 742h1024v-60h-1024v60z" />
    <glyph glyph-name="Ntilde" unicode="&#xd1;" horiz-adv-x="1243" 
d="M302 1424l31 -22.999v-31l-8 -63l8 -62v-24l-8 -7l8 -8v-31l-8 -71l8 -23l-8 -8h8c150.667 172 226 271 226 297l-39 39l16 15h522l16 -15c-130 -182 -195 -382.333 -195 -601l-8 -8l8 -8v-23l-8 -24c0 -226 67.667 -439 203 -639c46 -40 87.667 -63.667 125 -71v-7
l-16 -16h-288c-47.333 78 -97 208 -149 390c-26 112 -41.667 224 -47 336c0 152 34 326 102 522h-187l-281 -343v-211l8 -249h-8l8 -8v-16l-8 -7l8 -8v-47l-8 -8l8 -8v-125c0 -96 44 -166 132 -210c0 -10.667 -7.66699 -16 -23 -16l-188 8l-7 -8h-8l-8 8l-78 -8h-101l-16 16
c83.333 41.333 125 103.666 125 186.999l8 86l-8 8v7l8 8l-8 47l8 47l-8 86v156l8 8l-8 7v164l8 8l-8 8v312c0 116.667 -41.667 194.667 -125 234v8l16 16h210zM908 1874c-13.333 -68.667 -36.1689 -120 -68.502 -154s-74.5 -51 -126.5 -51h-4
c-33.333 0 -71 7.66699 -113 23c-44 16 -82 24 -114 24c-26 0 -46.167 -6.83301 -60.5 -20.5s-25.5 -37.5 -33.5 -71.5h-54c12.667 70.667 35.334 123.5 68.001 158.5s75.667 52.5 129 52.5c30.667 -0.666992 68.334 -8.66699 113.001 -24c42.667 -15.333 80 -23 112 -23h4
c24 0 43.333 6.66699 58 20s26.667 35.333 36 66h54z" />
    <glyph glyph-name="Ograve" unicode="&#xd2;" horiz-adv-x="954" 
d="M458 1448l23.0029 0.000976562c185.333 -109.333 320.666 -296.666 405.999 -561.999l23 -156l-8 -70v-55l-7 -8l7 -8v-7c-54.667 -194.667 -127.334 -327.334 -218.001 -398.001c-88.667 -96 -146 -166.333 -172 -211h-8c-306.667 174 -460 429 -460 765
c0 164 62.333 299 187 405c43.333 31.333 90.333 47 141 47c70.667 0 127.667 -44 171 -132h16v-8c-22.667 -161.333 -74.667 -242 -156 -242c0 -8.66699 -39 -19 -117 -31c0 -9.33301 -18.333 -25 -55 -47l-8 8v15c57.333 106 94 186.667 110 242h8
c23.333 -20.667 41.333 -31 54 -31c42 4 63 24.667 63 62c0 47.333 -28.667 71 -86 71c-109.333 -28 -164 -127 -164 -297v-62c0 -98 39 -220.333 117 -367c113.333 -130 183.666 -195 210.999 -195h7c120 138.667 180 287 180 445l8 7v8
c0 213.333 -70.333 390.333 -211 531c-72 67.333 -163 101 -273 101l-70 -8l-8 8v8c134 45.333 230.333 102.666 289 171.999zM631.003 1571l-69 0.000976562l-330 202c-20.667 13.333 -36.167 26.666 -46.5 39.999s-15.5 27.333 -15.5 42c0 20.667 6.83301 37.667 20.5 51
s31.5 20 53.5 20c13.333 0 26.833 -4 40.5 -12s32.167 -23.667 55.5 -47z" />
    <glyph glyph-name="Oacute" unicode="&#xd3;" horiz-adv-x="954" 
d="M458 1448l23.0029 0.000976562c185.333 -109.333 320.666 -296.666 405.999 -561.999l23 -156l-8 -70v-55l-7 -8l7 -8v-7c-54.667 -194.667 -127.334 -327.334 -218.001 -398.001c-88.667 -96 -146 -166.333 -172 -211h-8c-306.667 174 -460 429 -460 765
c0 164 62.333 299 187 405c43.333 31.333 90.333 47 141 47c70.667 0 127.667 -44 171 -132h16v-8c-22.667 -161.333 -74.667 -242 -156 -242c0 -8.66699 -39 -19 -117 -31c0 -9.33301 -18.333 -25 -55 -47l-8 8v15c57.333 106 94 186.667 110 242h8
c23.333 -20.667 41.333 -31 54 -31c42 4 63 24.667 63 62c0 47.333 -28.667 71 -86 71c-109.333 -28 -164 -127 -164 -297v-62c0 -98 39 -220.333 117 -367c113.333 -130 183.666 -195 210.999 -195h7c120 138.667 180 287 180 445l8 7v8
c0 213.333 -70.333 390.333 -211 531c-72 67.333 -163 101 -273 101l-70 -8l-8 8v8c134 45.333 230.333 102.666 289 171.999zM614.003 1867c23.333 23.333 41.833 38.999 55.5 46.999s27.167 12 40.5 12c22 0 39.833 -6.66699 53.5 -20s20.5 -30.333 20.5 -51
c0 -14.667 -5.16699 -28.667 -15.5 -42s-25.833 -26.666 -46.5 -39.999l-330 -203h-69z" />
    <glyph glyph-name="Ocircumflex" unicode="&#xd4;" horiz-adv-x="954" 
d="M458 1448l23.0029 0.000976562c185.333 -109.333 320.666 -296.666 405.999 -561.999l23 -156l-8 -70v-55l-7 -8l7 -8v-7c-54.667 -194.667 -127.334 -327.334 -218.001 -398.001c-88.667 -96 -146 -166.333 -172 -211h-8c-306.667 174 -460 429 -460 765
c0 164 62.333 299 187 405c43.333 31.333 90.333 47 141 47c70.667 0 127.667 -44 171 -132h16v-8c-22.667 -161.333 -74.667 -242 -156 -242c0 -8.66699 -39 -19 -117 -31c0 -9.33301 -18.333 -25 -55 -47l-8 8v15c57.333 106 94 186.667 110 242h8
c23.333 -20.667 41.333 -31 54 -31c42 4 63 24.667 63 62c0 47.333 -28.667 71 -86 71c-109.333 -28 -164 -127 -164 -297v-62c0 -98 39 -220.333 117 -367c113.333 -130 183.666 -195 210.999 -195h7c120 138.667 180 287 180 445l8 7v8
c0 213.333 -70.333 390.333 -211 531c-72 67.333 -163 101 -273 101l-70 -8l-8 8v8c134 45.333 230.333 102.666 289 171.999zM186.003 1571l232 355h118l232 -355h-58l-233 216l-233 -216h-58z" />
    <glyph glyph-name="Otilde" unicode="&#xd5;" horiz-adv-x="954" 
d="M458 1448l23.0029 0.000976562c185.333 -109.333 320.666 -296.666 405.999 -561.999l23 -156l-8 -70v-55l-7 -8l7 -8v-7c-54.667 -194.667 -127.334 -327.334 -218.001 -398.001c-88.667 -96 -146 -166.333 -172 -211h-8c-306.667 174 -460 429 -460 765
c0 164 62.333 299 187 405c43.333 31.333 90.333 47 141 47c70.667 0 127.667 -44 171 -132h16v-8c-22.667 -161.333 -74.667 -242 -156 -242c0 -8.66699 -39 -19 -117 -31c0 -9.33301 -18.333 -25 -55 -47l-8 8v15c57.333 106 94 186.667 110 242h8
c23.333 -20.667 41.333 -31 54 -31c42 4 63 24.667 63 62c0 47.333 -28.667 71 -86 71c-109.333 -28 -164 -127 -164 -297v-62c0 -98 39 -220.333 117 -367c113.333 -130 183.666 -195 210.999 -195h7c120 138.667 180 287 180 445l8 7v8
c0 213.333 -70.333 390.333 -211 531c-72 67.333 -163 101 -273 101l-70 -8l-8 8v8c134 45.333 230.333 102.666 289 171.999zM764.003 1874c-13.333 -68.667 -36.1689 -120 -68.502 -154s-74.5 -51 -126.5 -51h-4c-33.333 0 -71 7.66699 -113 23c-44 16 -82 24 -114 24
c-26 0 -46.167 -6.83301 -60.5 -20.5s-25.5 -37.5 -33.5 -71.5h-54c12.667 70.667 35.334 123.5 68.001 158.5s75.667 52.5 129 52.5c30.667 -0.666992 68.334 -8.66699 113.001 -24c42.667 -15.333 80 -23 112 -23h4c24 0 43.333 6.66699 58 20s26.667 35.333 36 66h54z
" />
    <glyph glyph-name="Odieresis" unicode="&#xd6;" horiz-adv-x="954" 
d="M458 1448l23.0029 0.000976562c185.333 -109.333 320.666 -296.666 405.999 -561.999l23 -156l-8 -70v-55l-7 -8l7 -8v-7c-54.667 -194.667 -127.334 -327.334 -218.001 -398.001c-88.667 -96 -146 -166.333 -172 -211h-8c-306.667 174 -460 429 -460 765
c0 164 62.333 299 187 405c43.333 31.333 90.333 47 141 47c70.667 0 127.667 -44 171 -132h16v-8c-22.667 -161.333 -74.667 -242 -156 -242c0 -8.66699 -39 -19 -117 -31c0 -9.33301 -18.333 -25 -55 -47l-8 8v15c57.333 106 94 186.667 110 242h8
c23.333 -20.667 41.333 -31 54 -31c42 4 63 24.667 63 62c0 47.333 -28.667 71 -86 71c-109.333 -28 -164 -127 -164 -297v-62c0 -98 39 -220.333 117 -367c113.333 -130 183.666 -195 210.999 -195h7c120 138.667 180 287 180 445l8 7v8
c0 213.333 -70.333 390.333 -211 531c-72 67.333 -163 101 -273 101l-70 -8l-8 8v8c134 45.333 230.333 102.666 289 171.999zM201.003 1781l70.998 71.998c8.66699 8 17 12 25 12c7.33301 0 16.333 -4.66699 27 -14l69 -73c6.66699 -9.33301 10 -17.666 10 -24.999
c0 -8.66699 -4 -17.667 -12 -27l-69 -75c-11.333 -11.333 -19.666 -17 -24.999 -17c-9.33301 0 -17.666 4 -24.999 12l-76 86c-6 8 -9 15.667 -9 23c0 8.66699 4.66699 17.334 14 26.001zM566.001 1781l70.998 72c8.66699 8 17 12 25 12c7.33301 0 16.333 -4.33301 27 -13
l69 -74c6.66699 -9.33301 10 -17.666 10 -24.999c0 -8.66699 -4 -17.334 -12 -26.001l-69 -76c-11.333 -11.333 -19.666 -17 -24.999 -17c-9.33301 0 -17.666 4 -24.999 12l-76 87c-6 7.33301 -9 14.666 -9 21.999c0 8.66699 4.66699 17.334 14 26.001z" />
    <glyph glyph-name="multiply" unicode="&#xd7;" horiz-adv-x="780" 
d="M390 618l-247 -247l-99 99l247 247l-247 248l99 98l247 -247l248 247l98 -99l-247 -247l247 -247l-99 -99z" />
    <glyph glyph-name="Oslash" unicode="&#xd8;" horiz-adv-x="954" 
d="M458 1448l23.0029 0.000976562c185.333 -109.333 320.666 -296.666 405.999 -561.999l23 -156l-8 -70v-55l-7 -8l7 -8v-7c-54.667 -194.667 -127.334 -327.334 -218.001 -398.001c-88.667 -96 -146 -166.333 -172 -211h-8c-306.667 174 -460 429 -460 765
c0 164 62.333 299 187 405c43.333 31.333 90.333 47 141 47c70.667 0 127.667 -44 171 -132h16v-8c-22.667 -161.333 -74.667 -242 -156 -242c0 -8.66699 -39 -19 -117 -31c0 -9.33301 -18.333 -25 -55 -47l-8 8v15c57.333 106 94 186.667 110 242h8
c23.333 -20.667 41.333 -31 54 -31c42 4 63 24.667 63 62c0 47.333 -28.667 71 -86 71c-109.333 -28 -164 -127 -164 -297v-62c0 -98 39 -220.333 117 -367c113.333 -130 183.666 -195 210.999 -195h7c120 138.667 180 287 180 445l8 7v8
c0 213.333 -70.333 390.333 -211 531c-72 67.333 -163 101 -273 101l-70 -8l-8 8v8c134 45.333 230.333 102.666 289 171.999zM247.003 -49.999h-80l541 1484h80z" />
    <glyph glyph-name="Ugrave" unicode="&#xd9;" horiz-adv-x="1099" 
d="M641 1438l32 -0.000976562l87 -8l8 8h8l40 -8l56 8l24 -8l87 8h72v-16l-88 -72c-31.333 -35.333 -47 -88.333 -47 -159v-175l8 -32l-8 -32l8 -24l-8 -24l8 -39l-8 -8v-8l8 -24l-8 -8v-8l8 -8l-8 -40v-40l8 -87l-8 -40l8 -32h-8l8 -8v-24l-8 -8l8 -8v-16l-8 -8l8 -8v-23
l-8 -8l8 -24l-8 -32l8 -8v-8l-8 -40l8 -24l-8 -39l8 -40h-8l8 -8v-40l-8 -8c24.667 -100.667 61.667 -151 111 -151l16 -24l-8 -8h-215l-56 -8l-16 24v175l8 56h-8l-214 -255l-40 8l-231 -8h-143l-32 -8c-32 6.66699 -48 14.667 -48 24c90 47.333 135 116.333 135 207v255
l-8 31l8 32v128l-8 31l8 32v72l-8 48l8 8v8l-8 8v8l8 23l-8 8l8 40v279c0 84.667 -42.333 148.334 -127 191.001v16h287l15 -16l-8 -48l8 -8l-8 -40v-135l8 -32l-8 -32v-63l8 -40l-8 -48v-48l8 -32l-8 -7l8 -80v-64l-8 -8l8 -8v-16l-8 -47l8 -8v-8l-8 -8v-8l8 -32v-16h-8
l8 -96v-167l-8 -8l8 -8v-8l-8 -8l8 -7v-8l-8 -88v-8l8 -8v-8l40 8h175l183 223v868c0 70.667 -37 123.667 -111 159v24zM703 1571l-69 0.000976562l-330 202c-20.667 13.333 -36.167 26.666 -46.5 39.999s-15.5 27.333 -15.5 42c0 20.667 6.83301 37.667 20.5 51
s31.5 20 53.5 20c13.333 0 26.833 -4 40.5 -12s32.167 -23.667 55.5 -47z" />
    <glyph glyph-name="Uacute" unicode="&#xda;" horiz-adv-x="1099" 
d="M641 1438l32 -0.000976562l87 -8l8 8h8l40 -8l56 8l24 -8l87 8h72v-16l-88 -72c-31.333 -35.333 -47 -88.333 -47 -159v-175l8 -32l-8 -32l8 -24l-8 -24l8 -39l-8 -8v-8l8 -24l-8 -8v-8l8 -8l-8 -40v-40l8 -87l-8 -40l8 -32h-8l8 -8v-24l-8 -8l8 -8v-16l-8 -8l8 -8v-23
l-8 -8l8 -24l-8 -32l8 -8v-8l-8 -40l8 -24l-8 -39l8 -40h-8l8 -8v-40l-8 -8c24.667 -100.667 61.667 -151 111 -151l16 -24l-8 -8h-215l-56 -8l-16 24v175l8 56h-8l-214 -255l-40 8l-231 -8h-143l-32 -8c-32 6.66699 -48 14.667 -48 24c90 47.333 135 116.333 135 207v255
l-8 31l8 32v128l-8 31l8 32v72l-8 48l8 8v8l-8 8v8l8 23l-8 8l8 40v279c0 84.667 -42.333 148.334 -127 191.001v16h287l15 -16l-8 -48l8 -8l-8 -40v-135l8 -32l-8 -32v-63l8 -40l-8 -48v-48l8 -32l-8 -7l8 -80v-64l-8 -8l8 -8v-16l-8 -47l8 -8v-8l-8 -8v-8l8 -32v-16h-8
l8 -96v-167l-8 -8l8 -8v-8l-8 -8l8 -7v-8l-8 -88v-8l8 -8v-8l40 8h175l183 223v868c0 70.667 -37 123.667 -111 159v24zM687 1867c23.333 23.333 41.833 38.999 55.5 46.999s27.167 12 40.5 12c22 0 39.833 -6.66699 53.5 -20s20.5 -30.333 20.5 -51
c0 -14.667 -5.16699 -28.667 -15.5 -42s-25.833 -26.666 -46.5 -39.999l-330 -203h-69z" />
    <glyph glyph-name="Ucircumflex" unicode="&#xdb;" horiz-adv-x="1099" 
d="M641 1438l32 -0.000976562l87 -8l8 8h8l40 -8l56 8l24 -8l87 8h72v-16l-88 -72c-31.333 -35.333 -47 -88.333 -47 -159v-175l8 -32l-8 -32l8 -24l-8 -24l8 -39l-8 -8v-8l8 -24l-8 -8v-8l8 -8l-8 -40v-40l8 -87l-8 -40l8 -32h-8l8 -8v-24l-8 -8l8 -8v-16l-8 -8l8 -8v-23
l-8 -8l8 -24l-8 -32l8 -8v-8l-8 -40l8 -24l-8 -39l8 -40h-8l8 -8v-40l-8 -8c24.667 -100.667 61.667 -151 111 -151l16 -24l-8 -8h-215l-56 -8l-16 24v175l8 56h-8l-214 -255l-40 8l-231 -8h-143l-32 -8c-32 6.66699 -48 14.667 -48 24c90 47.333 135 116.333 135 207v255
l-8 31l8 32v128l-8 31l8 32v72l-8 48l8 8v8l-8 8v8l8 23l-8 8l8 40v279c0 84.667 -42.333 148.334 -127 191.001v16h287l15 -16l-8 -48l8 -8l-8 -40v-135l8 -32l-8 -32v-63l8 -40l-8 -48v-48l8 -32l-8 -7l8 -80v-64l-8 -8l8 -8v-16l-8 -47l8 -8v-8l-8 -8v-8l8 -32v-16h-8
l8 -96v-167l-8 -8l8 -8v-8l-8 -8l8 -7v-8l-8 -88v-8l8 -8v-8l40 8h175l183 223v868c0 70.667 -37 123.667 -111 159v24zM258 1571l232 355h118l232 -355h-58l-233 216l-233 -216h-58z" />
    <glyph glyph-name="Udieresis" unicode="&#xdc;" horiz-adv-x="1099" 
d="M641 1438l32 -0.000976562l87 -8l8 8h8l40 -8l56 8l24 -8l87 8h72v-16l-88 -72c-31.333 -35.333 -47 -88.333 -47 -159v-175l8 -32l-8 -32l8 -24l-8 -24l8 -39l-8 -8v-8l8 -24l-8 -8v-8l8 -8l-8 -40v-40l8 -87l-8 -40l8 -32h-8l8 -8v-24l-8 -8l8 -8v-16l-8 -8l8 -8v-23
l-8 -8l8 -24l-8 -32l8 -8v-8l-8 -40l8 -24l-8 -39l8 -40h-8l8 -8v-40l-8 -8c24.667 -100.667 61.667 -151 111 -151l16 -24l-8 -8h-215l-56 -8l-16 24v175l8 56h-8l-214 -255l-40 8l-231 -8h-143l-32 -8c-32 6.66699 -48 14.667 -48 24c90 47.333 135 116.333 135 207v255
l-8 31l8 32v128l-8 31l8 32v72l-8 48l8 8v8l-8 8v8l8 23l-8 8l8 40v279c0 84.667 -42.333 148.334 -127 191.001v16h287l15 -16l-8 -48l8 -8l-8 -40v-135l8 -32l-8 -32v-63l8 -40l-8 -48v-48l8 -32l-8 -7l8 -80v-64l-8 -8l8 -8v-16l-8 -47l8 -8v-8l-8 -8v-8l8 -32v-16h-8
l8 -96v-167l-8 -8l8 -8v-8l-8 -8l8 -7v-8l-8 -88v-8l8 -8v-8l40 8h175l183 223v868c0 70.667 -37 123.667 -111 159v24zM273 1781l70.998 71.998c8.66699 8 17 12 25 12c7.33301 0 16.333 -4.66699 27 -14l69 -73c6.66699 -9.33301 10 -17.666 10 -24.999
c0 -8.66699 -4 -17.667 -12 -27l-69 -75c-11.333 -11.333 -19.666 -17 -24.999 -17c-9.33301 0 -17.666 4 -24.999 12l-76 86c-6 8 -9 15.667 -9 23c0 8.66699 4.66699 17.334 14 26.001zM637.998 1781l70.998 72c8.66699 8 17 12 25 12c7.33301 0 16.333 -4.33301 27 -13
l69 -74c6.66699 -9.33301 10 -17.666 10 -24.999c0 -8.66699 -4 -17.334 -12 -26.001l-69 -76c-11.333 -11.333 -19.666 -17 -24.999 -17c-9.33301 0 -17.666 4 -24.999 12l-76 87c-6 7.33301 -9 14.666 -9 21.999c0 8.66699 4.66699 17.334 14 26.001z" />
    <glyph glyph-name="Yacute" unicode="&#xdd;" horiz-adv-x="1090" 
d="M60 1438l39.001 -8.00195h198l39 8l16 -23v-48l-8 -8l8 -8v-1160l-8 -7v-8l31 -8l40 8h134c32.667 0 90.667 63 174 189l23 24v521l8 31l-8 32v142l8 39c-6.66699 168.667 -43.334 253 -110.001 253l-8 8v7l16 16h31l71 -8l79 8h16l8 -8l8 8h8l7 -8l8 8l56 -8l39 8v-8
l8 8h39l16 -16c-84 -45.333 -126 -113.666 -126 -204.999v-805l-8 -7l8 -8v-95l-8 -8c0 -50 36.667 -142 110 -276l8 -79c0 -106 -92 -211.333 -276 -316c-24 -24 -47.667 -63.333 -71 -118h-8l-94 8h-16v-8l-79 8h-292l-79 -8l-8 8v16c187.333 246.667 324 370 410 370
c68.667 0 103 -23.667 103 -71c0 -52 -29 -78 -87 -78l-63 47c-64 -68.667 -100.667 -103 -110 -103v-15h39l24 -8l39 8h197l40 7l8 -7c94.667 76 142 157.333 142 244c0 40.667 -31.667 114.334 -95 221.001l-8 95c-10 0 -70.333 -76.333 -181 -229l-8 -8h-442l-55 -8l-8 8
v16c84 44 126 107 126 189l8 48l-8 7v8l8 24l-8 103l8 31l-8 32l8 31l-8 24l8 8v8l-8 31h8l-8 8v55l8 8l-8 8v8l8 47l-8 8v8l8 24l-8 8l8 39v55l-8 87l8 24l-8 79l8 8l-8 8v8l8 7v8l-8 8l8 32l-8 55h8l-8 8v47c0 92 -44.667 160.333 -134 205zM682.001 1867
c23.333 23.333 41.833 38.999 55.5 46.999s27.167 12 40.5 12c22 0 39.833 -6.66699 53.5 -20s20.5 -30.333 20.5 -51c0 -14.667 -5.16699 -28.667 -15.5 -42s-25.833 -26.666 -46.5 -39.999l-330 -203h-69z" />
    <glyph glyph-name="Thorn" unicode="&#xde;" horiz-adv-x="998" 
d="M361 553c270 58 405 149.001 405 273.001v62c0 27.333 -20.667 84.666 -62 171.999h-47l-47 -8l-8 8l-39 -8h-210v-210l8 -48l-8 -24l8 -48v-15h-8l8 -80v-74zM353 1216l39 0.000976562l47 8l31 -8l8 8h7l8 -8h8l23 8v-8l8 8h8l8 -8h8l234 -101
c109.333 -94.667 164 -199 164 -313v-7c0 -94 -62.667 -174.667 -188 -242c-79.333 -40.667 -214.333 -77.334 -405 -110.001v-38l5 -405c11.333 -100 38 -150 80 -150c0 -8 15.667 -18.333 47 -31v-8l-8 -7v-8l-226 8l-179 -8l-8 8v7c78 40 117 94.667 117 164v25h-10v1247
c0 55.333 -45 113.333 -135 174l16 16h127l8 -8l8 8h190l95 8l8 -8v-8c-95.333 -65.333 -143 -126 -143 -182v-31z" />
    <glyph glyph-name="germandbls" unicode="&#xdf;" horiz-adv-x="914" 
d="M302 984v-22c2.66699 8.66699 4 16 4 22h-4zM403 749c-6 -24.667 -9 -47.333 -9 -68v-61h2c10 6.66699 23.333 10.667 40 12c0 25.333 -11 64.333 -33 117zM425 534.001c-2.66699 -2 -5.33203 -3.66797 -7.99902 -5.00098h-38c-30.667 16 -46 44 -46 84v15l15 167h-38
l-8 -76v-23l8 -30l-8 -8v-7l8 -8v-8l-8 -30l8 -23l-8 -7l8 -39v-273l8 -31l-8 -8v-7c0 -95.333 33 -161.333 99 -198l-15 -15h-137l-38 7l-46 -7h-99l-7 7h-8l91 84l16 76v84l7 8l-7 7v518h-16v7l-7 -7h-99v22l30 38l-30 54l15 15h91l23 23l-7 38h7l-7 7v175
c0 71.333 40.333 140 121 206l26 5l12 6c15.333 10 49.333 18 102 24c104 0 178.667 -48.333 224 -145c12.667 -35.333 19 -66.333 19 -93c0 -67.333 -31.333 -148 -94 -242h134l15 -15l-22 -39l15 -60c101.333 -181.333 152 -333.666 152 -456.999
c0 -40.667 -7.66699 -89 -23 -145c-54 -152 -142.667 -228 -266 -228c-62.667 10 -103.334 22.667 -122.001 38c-86 56.667 -129 165.667 -129 327l22 23h31c15.333 0 23 -27.667 23 -83c36 -96.667 86.667 -145 152 -145v8c106.667 0 170 98.667 190 296l-15 92l8 7
c-37.333 137.333 -68 216 -92 236h-182l38 -152v-23c0 -28 -15.333 -50.667 -46 -68h-23c-4 0 -7.66699 0.333008 -11 1zM470.002 1282c-3.33301 -12 -5.99805 -24.667 -7.99805 -38h-76c-54.667 0 -82.667 -65.667 -84 -197h23c25.333 -11.333 38 -26 38 -44v-15l-20 -60
l66 -3l38 7l6 -9l56 -2c15.333 26 32.666 66.333 51.999 121l-6 5l13 58c-12.667 93.333 -45.334 152.333 -98.001 177z" />
    <glyph glyph-name="agrave" unicode="&#xe0;" horiz-adv-x="727" 
d="M676 922l7.00098 -7v-8c-76 -56 -114 -119.333 -114 -190l8 -8v-8l-8 -22l8 -8l-8 -38v-8l8 -30l-8 -23l8 -76h-8l8 -8v-7l-8 -8l8 -7v-23l-8 -46l8 -8v-7l-8 -8v-7l8 -46h-8l8 -8v-15l-8 -7l8 -8v-99c0 -75.333 33 -131 99 -167v-16h-221l-15 16v83h-8
c-35.333 -80.667 -86 -121 -152 -121h-15c-126.667 0 -200.334 119 -221.001 357c0 140 53.333 297.333 160 472l7 46v15l-15 23v7l15 16h335zM158.001 420l0.000976562 -15c23.333 -188 76.666 -282 159.999 -282h15c60 0 95.667 61 107 183v7l-8 8l8 38v282l-8 68l8 53
l-16 16h-159c-71.333 -116.667 -107 -236 -107 -358zM517.002 1079l-69 0.000976562l-330 202c-20.667 13.333 -36.167 26.666 -46.5 39.999s-15.5 27.333 -15.5 42c0 20.667 6.83301 37.667 20.5 51s31.5 20 53.5 20c13.333 0 26.833 -4 40.5 -12s32.167 -23.667 55.5 -47z
" />
    <glyph glyph-name="aacute" unicode="&#xe1;" horiz-adv-x="727" 
d="M676 922l7.00098 -7v-8c-76 -56 -114 -119.333 -114 -190l8 -8v-8l-8 -22l8 -8l-8 -38v-8l8 -30l-8 -23l8 -76h-8l8 -8v-7l-8 -8l8 -7v-23l-8 -46l8 -8v-7l-8 -8v-7l8 -46h-8l8 -8v-15l-8 -7l8 -8v-99c0 -75.333 33 -131 99 -167v-16h-221l-15 16v83h-8
c-35.333 -80.667 -86 -121 -152 -121h-15c-126.667 0 -200.334 119 -221.001 357c0 140 53.333 297.333 160 472l7 46v15l-15 23v7l15 16h335zM158.001 420l0.000976562 -15c23.333 -188 76.666 -282 159.999 -282h15c60 0 95.667 61 107 183v7l-8 8l8 38v282l-8 68l8 53
l-16 16h-159c-71.333 -116.667 -107 -236 -107 -358zM501.002 1375c23.333 23.333 41.833 38.999 55.5 46.999s27.167 12 40.5 12c22 0 39.833 -6.66699 53.5 -20s20.5 -30.333 20.5 -51c0 -14.667 -5.16699 -28.667 -15.5 -42s-25.833 -26.666 -46.5 -39.999l-330 -203h-69
z" />
    <glyph glyph-name="acircumflex" unicode="&#xe2;" horiz-adv-x="727" 
d="M676 922l7.00098 -7v-8c-76 -56 -114 -119.333 -114 -190l8 -8v-8l-8 -22l8 -8l-8 -38v-8l8 -30l-8 -23l8 -76h-8l8 -8v-7l-8 -8l8 -7v-23l-8 -46l8 -8v-7l-8 -8v-7l8 -46h-8l8 -8v-15l-8 -7l8 -8v-99c0 -75.333 33 -131 99 -167v-16h-221l-15 16v83h-8
c-35.333 -80.667 -86 -121 -152 -121h-15c-126.667 0 -200.334 119 -221.001 357c0 140 53.333 297.333 160 472l7 46v15l-15 23v7l15 16h335zM158.001 420l0.000976562 -15c23.333 -188 76.666 -282 159.999 -282h15c60 0 95.667 61 107 183v7l-8 8l8 38v282l-8 68l8 53
l-16 16h-159c-71.333 -116.667 -107 -236 -107 -358zM73.002 1079l232 355h118l232 -355h-58l-233 216l-233 -216h-58z" />
    <glyph glyph-name="atilde" unicode="&#xe3;" horiz-adv-x="727" 
d="M676 922l7.00098 -7v-8c-76 -56 -114 -119.333 -114 -190l8 -8v-8l-8 -22l8 -8l-8 -38v-8l8 -30l-8 -23l8 -76h-8l8 -8v-7l-8 -8l8 -7v-23l-8 -46l8 -8v-7l-8 -8v-7l8 -46h-8l8 -8v-15l-8 -7l8 -8v-99c0 -75.333 33 -131 99 -167v-16h-221l-15 16v83h-8
c-35.333 -80.667 -86 -121 -152 -121h-15c-126.667 0 -200.334 119 -221.001 357c0 140 53.333 297.333 160 472l7 46v15l-15 23v7l15 16h335zM158.001 420l0.000976562 -15c23.333 -188 76.666 -282 159.999 -282h15c60 0 95.667 61 107 183v7l-8 8l8 38v282l-8 68l8 53
l-16 16h-159c-71.333 -116.667 -107 -236 -107 -358zM651.002 1382c-13.333 -68.667 -36.1689 -120 -68.502 -154s-74.5 -51 -126.5 -51h-4c-33.333 0 -71 7.66699 -113 23c-44 16 -82 24 -114 24c-26 0 -46.167 -6.83301 -60.5 -20.5s-25.5 -37.5 -33.5 -71.5h-54
c12.667 70.667 35.334 123.5 68.001 158.5s75.667 52.5 129 52.5c30.667 -0.666992 68.334 -8.66699 113.001 -24c42.667 -15.333 80 -23 112 -23h4c24 0 43.333 6.66699 58 20s26.667 35.333 36 66h54z" />
    <glyph glyph-name="adieresis" unicode="&#xe4;" horiz-adv-x="727" 
d="M676 922l7.00098 -7v-8c-76 -56 -114 -119.333 -114 -190l8 -8v-8l-8 -22l8 -8l-8 -38v-8l8 -30l-8 -23l8 -76h-8l8 -8v-7l-8 -8l8 -7v-23l-8 -46l8 -8v-7l-8 -8v-7l8 -46h-8l8 -8v-15l-8 -7l8 -8v-99c0 -75.333 33 -131 99 -167v-16h-221l-15 16v83h-8
c-35.333 -80.667 -86 -121 -152 -121h-15c-126.667 0 -200.334 119 -221.001 357c0 140 53.333 297.333 160 472l7 46v15l-15 23v7l15 16h335zM158.001 420l0.000976562 -15c23.333 -188 76.666 -282 159.999 -282h15c60 0 95.667 61 107 183v7l-8 8l8 38v282l-8 68l8 53
l-16 16h-159c-71.333 -116.667 -107 -236 -107 -358zM87.002 1289l70.998 71.998c8.66699 8 17 12 25 12c7.33301 0 16.333 -4.66699 27 -14l69 -73c6.66699 -9.33301 10 -17.666 10 -24.999c0 -8.66699 -4 -17.667 -12 -27l-69 -75
c-11.333 -11.333 -19.666 -17 -24.999 -17c-9.33301 0 -17.666 4 -24.999 12l-76 86c-6 8 -9 15.667 -9 23c0 8.66699 4.66699 17.334 14 26.001zM452 1289l70.998 72c8.66699 8 17 12 25 12c7.33301 0 16.333 -4.33301 27 -13l69 -74
c6.66699 -9.33301 10 -17.666 10 -24.999c0 -8.66699 -4 -17.334 -12 -26.001l-69 -76c-11.333 -11.333 -19.666 -17 -24.999 -17c-9.33301 0 -17.666 4 -24.999 12l-76 87c-6 7.33301 -9 14.666 -9 21.999c0 8.66699 4.66699 17.334 14 26.001z" />
    <glyph glyph-name="aring" unicode="&#xe5;" horiz-adv-x="727" 
d="M676 922l7.00098 -7v-8c-76 -56 -114 -119.333 -114 -190l8 -8v-8l-8 -22l8 -8l-8 -38v-8l8 -30l-8 -23l8 -76h-8l8 -8v-7l-8 -8l8 -7v-23l-8 -46l8 -8v-7l-8 -8v-7l8 -46h-8l8 -8v-15l-8 -7l8 -8v-99c0 -75.333 33 -131 99 -167v-16h-221l-15 16v83h-8
c-35.333 -80.667 -86 -121 -152 -121h-15c-126.667 0 -200.334 119 -221.001 357c0 140 53.333 297.333 160 472l7 46v15l-15 23v7l15 16h335zM158.001 420l0.000976562 -15c23.333 -188 76.666 -282 159.999 -282h15c60 0 95.667 61 107 183v7l-8 8l8 38v282l-8 68l8 53
l-16 16h-159c-71.333 -116.667 -107 -236 -107 -358zM262.002 1257c0 -28 9.66699 -51.667 29 -71s43 -29 71 -29s51.667 9.66699 71 29s29 43 29 71c0 26.667 -9.83301 49.834 -29.5 69.501s-43.167 29.5 -70.5 29.5s-50.833 -9.83301 -70.5 -29.5
s-29.5 -42.834 -29.5 -69.501zM186.002 1257c0 50 17 91.999 51 125.999s75.667 51 125 51c50.667 0 93.167 -17.167 127.5 -51.5s51.5 -76.166 51.5 -125.499c0 -50 -17.167 -92.167 -51.5 -126.5s-76.833 -51.5 -127.5 -51.5c-49.333 0 -91 17.167 -125 51.5
s-51 76.5 -51 126.5z" />
    <glyph glyph-name="ae" unicode="&#xe6;" horiz-adv-x="1108" 
d="M676 922l7.00098 -7v-8c-76 -56 -114 -119.333 -114 -190l8 -8v-8l-8 -22l8 -8l-8 -38v-8l8 -30l-8 -23l8 -76h-8l8 -8v-7l-8 -8l8 -7v-23l-8 -46l8 -8v-7l-8 -8v-7l8 -46h-8l8 -8v-15l-8 -7l8 -8v-99c0 -75.333 33 -131 99 -167v-16h-221l-15 16v83h-8
c-35.333 -80.667 -86 -121 -152 -121h-15c-126.667 0 -200.334 119 -221.001 357c0 140 53.333 297.333 160 472l7 46v15l-15 23v7l15 16h335zM158.001 420l0.000976562 -15c23.333 -188 76.666 -282 159.999 -282h15c60 0 95.667 61 107 183v7l-8 8l8 38v282l-8 68l8 53
l-16 16h-159c-71.333 -116.667 -107 -236 -107 -358zM1056 916l8 -7.99902v-15c-50.667 -23.333 -76 -79.333 -76 -168c0 -166.667 -96.333 -278.334 -289 -335.001l-76 -7h-16c32 -172.667 90.333 -259 175 -259h31c61.333 0 104.333 53.333 129 160
c3.33301 45.333 11 68 23 68h38l23 -15c0 -248.667 -96.333 -373 -289 -373c-64.667 11.333 -125.667 47 -183 107c-50.667 94.667 -76 175.667 -76 243c0 134 43 276.333 129 427c20.667 30 31 57.667 31 83v31l-23 30v8l15 15h15l8 -8l8 8h342zM607.002 467.001v-37.999
l-7 -8v-8l7 -7c167.333 51.333 251 150 251 296v46l-15 15h-137c-57.333 -90.667 -90.333 -189.334 -99 -296.001z" />
    <glyph glyph-name="ccedilla" unicode="&#xe7;" horiz-adv-x="636" 
d="M584 928l8 -6.99805v-8c-76 -140.667 -114 -234.334 -114 -281.001c40.667 -4 61 -22 61 -54c-10.667 -30 -31 -45 -61 -45h-23c-30.667 17.333 -46 40 -46 68v23l38 152h-182c-24 -20 -54.667 -98.667 -92 -236l8 -7l-15 -92c20 -197.333 83.333 -296 190 -296v-8
c64.667 0 115.334 48.333 152.001 145c0 55.333 7.66699 83 23 83h30l23 -23c0 -161.333 -43 -270.333 -129 -327c-18.667 -15.333 -59.334 -28 -122.001 -38c-123.333 0 -212 76 -266 228c-15.333 56 -23 104.333 -23 145c0 123.333 50.667 275.666 152 456.999l15 60
l-22 39l15 15h190zM114 -289.998c56.667 -34.667 107.333 -52 152 -52c44 0 75.5 7.16699 94.5 21.5s28.5 36.5 28.5 66.5s-16.333 51.333 -49 64c-26.667 10.667 -60.667 16 -102 16c-10.667 0 -22 -0.666992 -34 -2l48 176h63l-37 -104
c21.333 2.66699 42 4.33398 62 5.00098c57.333 0 102 -13.5 134 -40.5s48 -64.833 48 -113.5c0 -50.667 -19.5 -90.834 -58.5 -120.501s-92.5 -44.5 -160.5 -44.5c-72.667 0 -135.667 10.667 -189 32v96z" />
    <glyph glyph-name="egrave" unicode="&#xe8;" horiz-adv-x="688" 
d="M636 916l8 -7.99902v-15c-50.667 -23.333 -76 -79.333 -76 -168c0 -166.667 -96.333 -278.334 -289 -335.001l-76 -7h-16c32 -172.667 90.333 -259 175 -259h31c61.333 0 104.333 53.333 129 160c3.33301 45.333 11 68 23 68h38l23 -15
c0 -248.667 -96.333 -373 -289 -373c-64.667 11.333 -125.667 47 -183 107c-50.667 94.667 -76 175.667 -76 243c0 134 43 276.333 129 427c20.667 30 31 57.667 31 83v31l-23 30v8l15 15h15l8 -8l8 8h342zM187 467.001v-37.999l-7 -8v-8l7 -7
c167.333 51.333 251 150 251 296v46l-15 15h-137c-57.333 -90.667 -90.333 -189.334 -99 -296.001zM505 1079l-69 0.000976562l-330 202c-20.667 13.333 -36.167 26.666 -46.5 39.999s-15.5 27.333 -15.5 42c0 20.667 6.83301 37.667 20.5 51s31.5 20 53.5 20
c13.333 0 26.833 -4 40.5 -12s32.167 -23.667 55.5 -47z" />
    <glyph glyph-name="eacute" unicode="&#xe9;" horiz-adv-x="688" 
d="M622 916l8 -7.99902v-15c-50.667 -23.333 -76 -79.333 -76 -168c0 -166.667 -96.333 -278.334 -289 -335.001l-76 -7h-16c32 -172.667 90.333 -259 175 -259h31c61.333 0 104.333 53.333 129 160c3.33301 45.333 11 68 23 68h38l23 -15
c0 -248.667 -96.333 -373 -289 -373c-64.667 11.333 -125.667 47 -183 107c-50.667 94.667 -76 175.667 -76 243c0 134 43 276.333 129 427c20.667 30 31 57.667 31 83v31l-23 30v8l15 15h15l8 -8l8 8h342zM173 467.001v-37.999l-7 -8v-8l7 -7
c167.333 51.333 251 150 251 296v46l-15 15h-137c-57.333 -90.667 -90.333 -189.334 -99 -296.001zM474 1375c23.333 23.333 41.833 38.999 55.5 46.999s27.167 12 40.5 12c22 0 39.833 -6.66699 53.5 -20s20.5 -30.333 20.5 -51c0 -14.667 -5.16699 -28.667 -15.5 -42
s-25.833 -26.666 -46.5 -39.999l-330 -203h-69z" />
    <glyph glyph-name="ecircumflex" unicode="&#xea;" horiz-adv-x="674" 
d="M622 916l8 -7.99902v-15c-50.667 -23.333 -76 -79.333 -76 -168c0 -166.667 -96.333 -278.334 -289 -335.001l-76 -7h-16c32 -172.667 90.333 -259 175 -259h31c61.333 0 104.333 53.333 129 160c3.33301 45.333 11 68 23 68h38l23 -15
c0 -248.667 -96.333 -373 -289 -373c-64.667 11.333 -125.667 47 -183 107c-50.667 94.667 -76 175.667 -76 243c0 134 43 276.333 129 427c20.667 30 31 57.667 31 83v31l-23 30v8l15 15h15l8 -8l8 8h342zM173 467.001v-37.999l-7 -8v-8l7 -7
c167.333 51.333 251 150 251 296v46l-15 15h-137c-57.333 -90.667 -90.333 -189.334 -99 -296.001zM46 1079l232 355h118l232 -355h-58l-233 216l-233 -216h-58z" />
    <glyph glyph-name="edieresis" unicode="&#xeb;" horiz-adv-x="674" 
d="M622 916l8 -7.99902v-15c-50.667 -23.333 -76 -79.333 -76 -168c0 -166.667 -96.333 -278.334 -289 -335.001l-76 -7h-16c32 -172.667 90.333 -259 175 -259h31c61.333 0 104.333 53.333 129 160c3.33301 45.333 11 68 23 68h38l23 -15
c0 -248.667 -96.333 -373 -289 -373c-64.667 11.333 -125.667 47 -183 107c-50.667 94.667 -76 175.667 -76 243c0 134 43 276.333 129 427c20.667 30 31 57.667 31 83v31l-23 30v8l15 15h15l8 -8l8 8h342zM173 467.001v-37.999l-7 -8v-8l7 -7
c167.333 51.333 251 150 251 296v46l-15 15h-137c-57.333 -90.667 -90.333 -189.334 -99 -296.001zM60 1289l70.998 71.998c8.66699 8 17 12 25 12c7.33301 0 16.333 -4.66699 27 -14l69 -73c6.66699 -9.33301 10 -17.666 10 -24.999c0 -8.66699 -4 -17.667 -12 -27l-69 -75
c-11.333 -11.333 -19.666 -17 -24.999 -17c-9.33301 0 -17.666 4 -24.999 12l-76 86c-6 8 -9 15.667 -9 23c0 8.66699 4.66699 17.334 14 26.001zM424.998 1289l70.998 72c8.66699 8 17 12 25 12c7.33301 0 16.333 -4.33301 27 -13l69 -74
c6.66699 -9.33301 10 -17.666 10 -24.999c0 -8.66699 -4 -17.334 -12 -26.001l-69 -76c-11.333 -11.333 -19.666 -17 -24.999 -17c-9.33301 0 -17.666 4 -24.999 12l-76 87c-6 7.33301 -9 14.666 -9 21.999c0 8.66699 4.66699 17.334 14 26.001z" />
    <glyph glyph-name="igrave" unicode="&#xec;" horiz-adv-x="623" 
d="M433 223c0 -115.333 33.333 -173 100 -173h46v-50h-442v50h46c66.667 0 100 57.667 100 173v432c0 51.333 -37 77 -111 77h-48v44c148 46 235 106.667 261 182h48v-735zM505 1079l-69 0.000976562l-330 202c-20.667 13.333 -36.167 26.666 -46.5 39.999
s-15.5 27.333 -15.5 42c0 20.667 6.83301 37.667 20.5 51s31.5 20 53.5 20c13.333 0 26.833 -4 40.5 -12s32.167 -23.667 55.5 -47z" />
    <glyph glyph-name="iacute" unicode="&#xed;" horiz-adv-x="623" 
d="M353 223c0 -115.333 33.333 -173 100 -173h46v-50h-442v50h46c66.667 0 100 57.667 100 173v432c0 51.333 -37 77 -111 77h-48v44c148 46 235 106.667 261 182h48v-735zM409 1375c23.333 23.333 41.833 38.999 55.5 46.999s27.167 12 40.5 12
c22 0 39.833 -6.66699 53.5 -20s20.5 -30.333 20.5 -51c0 -14.667 -5.16699 -28.667 -15.5 -42s-25.833 -26.666 -46.5 -39.999l-330 -203h-69z" />
    <glyph glyph-name="icircumflex" unicode="&#xee;" horiz-adv-x="670" 
d="M417 223c0 -115.333 33.333 -173 100 -173h46v-50h-442v50h46c66.667 0 100 57.667 100 173v432c0 51.333 -37 77 -111 77h-48v44c148 46 235 106.667 261 182h48v-735zM44 1079l232 355h118l232 -355h-58l-233 216l-233 -216h-58z" />
    <glyph glyph-name="idieresis" unicode="&#xef;" horiz-adv-x="669" 
d="M416 223c0 -115.333 33.333 -173 100 -173h46v-50h-442v50h46c66.667 0 100 57.667 100 173v432c0 51.333 -37 77 -111 77h-48v44c148 46 235 106.667 261 182h48v-735zM58 1289l70.998 71.998c8.66699 8 17 12 25 12c7.33301 0 16.333 -4.66699 27 -14l69 -73
c6.66699 -9.33301 10 -17.666 10 -24.999c0 -8.66699 -4 -17.667 -12 -27l-69 -75c-11.333 -11.333 -19.666 -17 -24.999 -17c-9.33301 0 -17.666 4 -24.999 12l-76 86c-6 8 -9 15.667 -9 23c0 8.66699 4.66699 17.334 14 26.001zM422.998 1289l70.998 72
c8.66699 8 17 12 25 12c7.33301 0 16.333 -4.33301 27 -13l69 -74c6.66699 -9.33301 10 -17.666 10 -24.999c0 -8.66699 -4 -17.334 -12 -26.001l-69 -76c-11.333 -11.333 -19.666 -17 -24.999 -17c-9.33301 0 -17.666 4 -24.999 12l-76 87c-6 7.33301 -9 14.666 -9 21.999
c0 8.66699 4.66699 17.334 14 26.001z" />
    <glyph glyph-name="ntilde" unicode="&#xf1;" horiz-adv-x="836" 
d="M441 935l76 -7.00098h244l16 -16c0 -8 -18 -18 -54 -30c-30.667 -34.667 -46 -83 -46 -145v-283l8 -30l-8 -38l8 -61h-8l8 -8v-15l-8 -8l8 -8v-7l-8 -23l8 -46h-8c0 -94 35.667 -155 107 -183l8 -8l-15 -15h-183l-39 -8l-15 23v31l8 7l-8 8v718h-15l-229 -191v-351
c0 -122.667 17.667 -184 53 -184c30.667 -16 46 -28.667 46 -38v-15h-214l-114 -8l-8 8v15c66 42.667 99 96.334 99 161.001l-7 7l7 38v397l-7 31l7 38c0 99.333 -20.333 163 -61 191c-35.333 12 -53 22 -53 30l15 16h31l23 -8l38 8h130l15 -16l-8 -53l8 -54h-8l8 -7v-15
l-8 -8l8 -8l-8 -38v-30h15l207 160c0 15.333 -7.66699 23 -23 23c0 8 -18 18 -54 30v8l8 8v7zM705 1382c-13.333 -68.667 -36.1689 -120 -68.502 -154s-74.5 -51 -126.5 -51h-4c-33.333 0 -71 7.66699 -113 23c-44 16 -82 24 -114 24c-26 0 -46.167 -6.83301 -60.5 -20.5
s-25.5 -37.5 -33.5 -71.5h-54c12.667 70.667 35.334 123.5 68.001 158.5s75.667 52.5 129 52.5c30.667 -0.666992 68.334 -8.66699 113.001 -24c42.667 -15.333 80 -23 112 -23h4c24 0 43.333 6.66699 58 20s26.667 35.333 36 66h54z" />
    <glyph glyph-name="ograve" unicode="&#xf2;" horiz-adv-x="671" 
d="M336 943h16c124.667 -82 211 -201.667 259 -359l16 -76h-8l8 -8c0 -170 -79 -327.667 -237 -473c0 -20.667 -7.66699 -31 -23 -31h-15c-178 151.333 -267 289 -267 413l-8 45v46c0 141.333 86.333 289 259 443zM275 798c-48.667 -68 -76.667 -144.333 -84 -229
c0 -158 76.333 -295.333 229 -412c25.333 0 51 66 77 198v15c0 173.333 -74 316 -222 428zM505 1079l-69 0.000976562l-330 202c-20.667 13.333 -36.167 26.666 -46.5 39.999s-15.5 27.333 -15.5 42c0 20.667 6.83301 37.667 20.5 51s31.5 20 53.5 20
c13.333 0 26.833 -4 40.5 -12s32.167 -23.667 55.5 -47z" />
    <glyph glyph-name="oacute" unicode="&#xf3;" horiz-adv-x="670" 
d="M303 943h16c124.667 -82 211 -201.667 259 -359l16 -76h-8l8 -8c0 -170 -79 -327.667 -237 -473c0 -20.667 -7.66699 -31 -23 -31h-15c-178 151.333 -267 289 -267 413l-8 45v46c0 141.333 86.333 289 259 443zM242 798c-48.667 -68 -76.667 -144.333 -84 -229
c0 -158 76.333 -295.333 229 -412c25.333 0 51 66 77 198v15c0 173.333 -74 316 -222 428zM456 1375c23.333 23.333 41.833 38.999 55.5 46.999s27.167 12 40.5 12c22 0 39.833 -6.66699 53.5 -20s20.5 -30.333 20.5 -51c0 -14.667 -5.16699 -28.667 -15.5 -42
s-25.833 -26.666 -46.5 -39.999l-330 -203h-69z" />
    <glyph glyph-name="ocircumflex" unicode="&#xf4;" horiz-adv-x="670" 
d="M319 943h16c124.667 -82 211 -201.667 259 -359l16 -76h-8l8 -8c0 -170 -79 -327.667 -237 -473c0 -20.667 -7.66699 -31 -23 -31h-15c-178 151.333 -267 289 -267 413l-8 45v46c0 141.333 86.333 289 259 443zM258 798c-48.667 -68 -76.667 -144.333 -84 -229
c0 -158 76.333 -295.333 229 -412c25.333 0 51 66 77 198v15c0 173.333 -74 316 -222 428zM44 1079l232 355h118l232 -355h-58l-233 216l-233 -216h-58z" />
    <glyph glyph-name="otilde" unicode="&#xf5;" horiz-adv-x="662" 
d="M315 943h16c124.667 -82 211 -201.667 259 -359l16 -76h-8l8 -8c0 -170 -79 -327.667 -237 -473c0 -20.667 -7.66699 -31 -23 -31h-15c-178 151.333 -267 289 -267 413l-8 45v46c0 141.333 86.333 289 259 443zM254 798c-48.667 -68 -76.667 -144.333 -84 -229
c0 -158 76.333 -295.333 229 -412c25.333 0 51 66 77 198v15c0 173.333 -74 316 -222 428zM618 1382c-13.333 -68.667 -36.1689 -120 -68.502 -154s-74.5 -51 -126.5 -51h-4c-33.333 0 -71 7.66699 -113 23c-44 16 -82 24 -114 24c-26 0 -46.167 -6.83301 -60.5 -20.5
s-25.5 -37.5 -33.5 -71.5h-54c12.667 70.667 35.334 123.5 68.001 158.5s75.667 52.5 129 52.5c30.667 -0.666992 68.334 -8.66699 113.001 -24c42.667 -15.333 80 -23 112 -23h4c24 0 43.333 6.66699 58 20s26.667 35.333 36 66h54z" />
    <glyph glyph-name="odieresis" unicode="&#xf6;" horiz-adv-x="669" 
d="M319 943h16c124.667 -82 211 -201.667 259 -359l16 -76h-8l8 -8c0 -170 -79 -327.667 -237 -473c0 -20.667 -7.66699 -31 -23 -31h-15c-178 151.333 -267 289 -267 413l-8 45v46c0 141.333 86.333 289 259 443zM258 798c-48.667 -68 -76.667 -144.333 -84 -229
c0 -158 76.333 -295.333 229 -412c25.333 0 51 66 77 198v15c0 173.333 -74 316 -222 428zM58 1289l70.998 71.998c8.66699 8 17 12 25 12c7.33301 0 16.333 -4.66699 27 -14l69 -73c6.66699 -9.33301 10 -17.666 10 -24.999c0 -8.66699 -4 -17.667 -12 -27l-69 -75
c-11.333 -11.333 -19.666 -17 -24.999 -17c-9.33301 0 -17.666 4 -24.999 12l-76 86c-6 8 -9 15.667 -9 23c0 8.66699 4.66699 17.334 14 26.001zM422.998 1289l70.998 72c8.66699 8 17 12 25 12c7.33301 0 16.333 -4.33301 27 -13l69 -74
c6.66699 -9.33301 10 -17.666 10 -24.999c0 -8.66699 -4 -17.334 -12 -26.001l-69 -76c-11.333 -11.333 -19.666 -17 -24.999 -17c-9.33301 0 -17.666 4 -24.999 12l-76 87c-6 7.33301 -9 14.666 -9 21.999c0 8.66699 4.66699 17.334 14 26.001z" />
    <glyph glyph-name="divide" unicode="&#xf7;" horiz-adv-x="928" 
d="M44 647v140h839l1 -1v-139h-840zM355 408l82.001 84c10 9.33301 19.667 14 29 14c8.66699 0 19 -5.33301 31 -16l80 -86c8 -10.667 12 -20.334 12 -29.001c0 -10 -4.66699 -20.333 -14 -31l-80 -88c-13.333 -13.333 -23 -20 -29 -20
c-10.667 0 -20.334 4.66699 -29.001 14l-88 101c-6.66699 8.66699 -10 17.334 -10 26.001c0 10 5.33301 20.333 16 31zM355.001 1101l82.001 84c10 9.33301 19.667 14 29 14c8.66699 0 19 -5.33301 31 -16l80 -86c8 -10.667 12 -20.334 12 -29.001
c0 -10 -4.66699 -20.333 -14 -31l-80 -88c-13.333 -13.333 -23 -20 -29 -20c-10.667 0 -20.334 4.66699 -29.001 14l-88 101c-6.66699 8.66699 -10 17.334 -10 26.001c0 10 5.33301 20.333 16 31z" />
    <glyph glyph-name="oslash" unicode="&#xf8;" horiz-adv-x="709" 
d="M339 943h16c124.667 -82 211 -201.667 259 -359l16 -76h-8l8 -8c0 -170 -79 -327.667 -237 -473c0 -20.667 -7.66699 -31 -23 -31h-15c-178 151.333 -267 289 -267 413l-8 45v46c0 141.333 86.333 289 259 443zM278 798c-48.667 -68 -76.667 -144.333 -84 -229
c0 -158 76.333 -295.333 229 -412c25.333 0 51 66 77 198v15c0 173.333 -74 316 -222 428zM124 -50h-80l541 1484h80z" />
    <glyph glyph-name="ugrave" unicode="&#xf9;" horiz-adv-x="824" 
d="M59 937l76.999 -8h138c10 0 15 -15.333 15 -46h8l-8 -38v-161l8 -46l-8 -39v-7l8 -39l-8 -46v-92l8 -23l-8 -38v-222h16c112.667 95.333 189.334 151.333 230.001 168v207l7 8l-7 8v398l15 16h8l7 -8l8 8h8l30 -8l8 8h23v-8l54 8h68l16 -16l-77 -69
c-15.333 -26 -23 -51.333 -23 -76v-246l-7 -7l7 -8v-69l-7 -8l7 -7v-115l-7 -8l7 -8v-15h-7c2 -148 19.667 -222 53 -222l54 -46l-8 -8v-8l-76 8h-100l-54 -8l-7 8v146l7 30l-7 31c-112.667 -92 -176.667 -138 -192 -138v-31c36 -10 54 -20 54 -30l-16 -16h-7l-8 8l-8 -8
h-76l-8 8l-8 -8h-38l-8 8l-7 -8h-108l-30 -7c-20.667 7.33301 -31 15 -31 23c71.333 41.333 107 100 107 176v84l8 8l-8 23l8 8l-8 38v23l8 23l-8 38v338c0 52 -33 100.333 -99 145l7 8v8zM565.999 1079l-69 0.000976562l-330 202
c-20.667 13.333 -36.167 26.666 -46.5 39.999s-15.5 27.333 -15.5 42c0 20.667 6.83301 37.667 20.5 51s31.5 20 53.5 20c13.333 0 26.833 -4 40.5 -12s32.167 -23.667 55.5 -47z" />
    <glyph glyph-name="uacute" unicode="&#xfa;" horiz-adv-x="824" 
d="M59 937l76.999 -8h138c10 0 15 -15.333 15 -46h8l-8 -38v-161l8 -46l-8 -39v-7l8 -39l-8 -46v-92l8 -23l-8 -38v-222h16c112.667 95.333 189.334 151.333 230.001 168v207l7 8l-7 8v398l15 16h8l7 -8l8 8h8l30 -8l8 8h23v-8l54 8h68l16 -16l-77 -69
c-15.333 -26 -23 -51.333 -23 -76v-246l-7 -7l7 -8v-69l-7 -8l7 -7v-115l-7 -8l7 -8v-15h-7c2 -148 19.667 -222 53 -222l54 -46l-8 -8v-8l-76 8h-100l-54 -8l-7 8v146l7 30l-7 31c-112.667 -92 -176.667 -138 -192 -138v-31c36 -10 54 -20 54 -30l-16 -16h-7l-8 8l-8 -8
h-76l-8 8l-8 -8h-38l-8 8l-7 -8h-108l-30 -7c-20.667 7.33301 -31 15 -31 23c71.333 41.333 107 100 107 176v84l8 8l-8 23l8 8l-8 38v23l8 23l-8 38v338c0 52 -33 100.333 -99 145l7 8v8zM548.999 1375c23.333 23.333 41.833 38.999 55.5 46.999s27.167 12 40.5 12
c22 0 39.833 -6.66699 53.5 -20s20.5 -30.333 20.5 -51c0 -14.667 -5.16699 -28.667 -15.5 -42s-25.833 -26.666 -46.5 -39.999l-330 -203h-69z" />
    <glyph glyph-name="ucircumflex" unicode="&#xfb;" horiz-adv-x="824" 
d="M59 937l76.999 -8h138c10 0 15 -15.333 15 -46h8l-8 -38v-161l8 -46l-8 -39v-7l8 -39l-8 -46v-92l8 -23l-8 -38v-222h16c112.667 95.333 189.334 151.333 230.001 168v207l7 8l-7 8v398l15 16h8l7 -8l8 8h8l30 -8l8 8h23v-8l54 8h68l16 -16l-77 -69
c-15.333 -26 -23 -51.333 -23 -76v-246l-7 -7l7 -8v-69l-7 -8l7 -7v-115l-7 -8l7 -8v-15h-7c2 -148 19.667 -222 53 -222l54 -46l-8 -8v-8l-76 8h-100l-54 -8l-7 8v146l7 30l-7 31c-112.667 -92 -176.667 -138 -192 -138v-31c36 -10 54 -20 54 -30l-16 -16h-7l-8 8l-8 -8
h-76l-8 8l-8 -8h-38l-8 8l-7 -8h-108l-30 -7c-20.667 7.33301 -31 15 -31 23c71.333 41.333 107 100 107 176v84l8 8l-8 23l8 8l-8 38v23l8 23l-8 38v338c0 52 -33 100.333 -99 145l7 8v8zM120.999 1079l232 355h118l232 -355h-58l-233 216l-233 -216h-58z" />
    <glyph glyph-name="udieresis" unicode="&#xfc;" horiz-adv-x="824" 
d="M59 937l76.999 -8h138c10 0 15 -15.333 15 -46h8l-8 -38v-161l8 -46l-8 -39v-7l8 -39l-8 -46v-92l8 -23l-8 -38v-222h16c112.667 95.333 189.334 151.333 230.001 168v207l7 8l-7 8v398l15 16h8l7 -8l8 8h8l30 -8l8 8h23v-8l54 8h68l16 -16l-77 -69
c-15.333 -26 -23 -51.333 -23 -76v-246l-7 -7l7 -8v-69l-7 -8l7 -7v-115l-7 -8l7 -8v-15h-7c2 -148 19.667 -222 53 -222l54 -46l-8 -8v-8l-76 8h-100l-54 -8l-7 8v146l7 30l-7 31c-112.667 -92 -176.667 -138 -192 -138v-31c36 -10 54 -20 54 -30l-16 -16h-7l-8 8l-8 -8
h-76l-8 8l-8 -8h-38l-8 8l-7 -8h-108l-30 -7c-20.667 7.33301 -31 15 -31 23c71.333 41.333 107 100 107 176v84l8 8l-8 23l8 8l-8 38v23l8 23l-8 38v338c0 52 -33 100.333 -99 145l7 8v8zM134.999 1289l70.998 71.998c8.66699 8 17 12 25 12
c7.33301 0 16.333 -4.66699 27 -14l69 -73c6.66699 -9.33301 10 -17.666 10 -24.999c0 -8.66699 -4 -17.667 -12 -27l-69 -75c-11.333 -11.333 -19.666 -17 -24.999 -17c-9.33301 0 -17.666 4 -24.999 12l-76 86c-6 8 -9 15.667 -9 23c0 8.66699 4.66699 17.334 14 26.001z
M499.997 1289l70.998 72c8.66699 8 17 12 25 12c7.33301 0 16.333 -4.33301 27 -13l69 -74c6.66699 -9.33301 10 -17.666 10 -24.999c0 -8.66699 -4 -17.334 -12 -26.001l-69 -76c-11.333 -11.333 -19.666 -17 -24.999 -17c-9.33301 0 -17.666 4 -24.999 12l-76 87
c-6 7.33301 -9 14.666 -9 21.999c0 8.66699 4.66699 17.334 14 26.001z" />
    <glyph glyph-name="yacute" unicode="&#xfd;" horiz-adv-x="831" 
d="M558 938l38 -8h92l92 8l7 -8v-15c-71.333 -40 -107 -98.667 -107 -176v-376l-7 -7l7 -8v-8l-7 -7l7 -8v-8l-7 -7v-8l7 -31h-7l7 -7v-92l-7 -62c0 -55.333 28 -121.666 84 -198.999l15 -84c0 -74 -74 -156 -222 -246l-61 -68l-8 7l-8 -7h-7l-31 7l-23 -7l-8 7h-7l-31 -7
l-8 7h-7l-8 -7l-38 7h-115l-92 -7l-8 7v8c160 209.333 270 314 330 314c20.667 -6.66699 36 -19.334 46 -38.001v-39c-15.333 -25.333 -33.333 -38 -54 -38l-38 23h-8l-92 -100h123l30 8l8 -8c102 4 153 22 153 54c30.667 18.667 46 49.334 46 92.001v8c0 28 -28 79 -84 153
l-15 84l7 115v46h-7l-192 -130v-8c0 -12 20.333 -24.667 61 -38v-8l-15 -15h-253l-77 -8l-15 23c76.667 23.333 115 102.666 115 237.999v491c0 71.333 -33.333 130 -100 176l8 7h92l31 -7l30 7h62l23 -15l-8 -53v-123l8 -23l-8 -38v-207l8 -31l-8 -31l8 -7v-8l-8 -31v-15h8
l-8 -54v-145l15 -16c33.333 33.333 110 92.333 230 177l-7 30l7 131l-7 7v8l7 31v23l-7 23l7 38v268l-7 54zM553 1375c23.333 23.333 41.833 38.999 55.5 46.999s27.167 12 40.5 12c22 0 39.833 -6.66699 53.5 -20s20.5 -30.333 20.5 -51
c0 -14.667 -5.16699 -28.667 -15.5 -42s-25.833 -26.666 -46.5 -39.999l-330 -203h-69z" />
    <glyph glyph-name="thorn" unicode="&#xfe;" horiz-adv-x="809" 
d="M521 935c112.667 0 191.666 -88.999 236.999 -266.999l7 -69v-76c0 -82.667 -50.667 -212.334 -152 -389.001l-23 -61c0 -12 15.333 -35 46 -69v-15h-61l-8 7l-8 -7l-38 7h-153v-91l8 -130h-8l8 -8l-8 -30c0 -92 23 -155.667 69 -191c30.667 -3.33301 46 -11 46 -23
l-15 -15h-54l-7 8l-8 -8l-53 8h-61l-31 -8l-8 8l-53 -8h-38c-26.667 0 -42 7.66699 -46 23c81.333 33.333 122 89.333 122 168l-8 7l8 38l-8 115h8l-8 8v7l8 23l-8 8v7l8 8v8l-8 45v8l8 8l-8 7v145l8 8l-8 23l8 8l-8 38v30l8 8l-8 7v8l8 8l-8 7v176l8 8l-8 7v275
c-17.333 86.667 -52.666 130 -105.999 130l-8 7v16l8 7v8l53 -8h176c10 0 15 -25.333 15 -76c48 66 101.333 99 160 99zM367.999 645.001l-0.00195312 -511l16 -16l38 8v-8l8 8h91c34.667 0 70.334 124.667 107.001 374c-15.333 183.333 -56 275 -122 275l-31 7h-7
c-53.333 0 -86.666 -45.667 -99.999 -137zM43.9971 1378l46 0.000976562l30 -7l8 7h8l22 -7l23 7v-7l8 7h8l7 -7l38 7h39c10 0 15 -7.66699 15 -23l-8 -7v-8l8 -8v-7l-8 -8v-7l8 -62h-8l8 -7v-389l7 -31l-7 -30l7 -23l-7 -23l7 -466v-91c0 -72 30.667 -128 92 -168l-15 -16
h-206l-115 -7l-7 7v8c70.667 48 106 101.333 106 160v512l-7 30l7 31v68l-7 31l7 8l-7 38l7 38l-7 46v23l7 7l-7 8v8l7 7l-7 8v130l-8 38h8c0 63.333 -35.667 116.666 -107 159.999v15z" />
    <glyph glyph-name="ydieresis" unicode="&#xff;" horiz-adv-x="831" 
d="M558 938l38 -8h92l92 8l7 -8v-15c-71.333 -40 -107 -98.667 -107 -176v-376l-7 -7l7 -8v-8l-7 -7l7 -8v-8l-7 -7v-8l7 -31h-7l7 -7v-92l-7 -62c0 -55.333 28 -121.666 84 -198.999l15 -84c0 -74 -74 -156 -222 -246l-61 -68l-8 7l-8 -7h-7l-31 7l-23 -7l-8 7h-7l-31 -7
l-8 7h-7l-8 -7l-38 7h-115l-92 -7l-8 7v8c160 209.333 270 314 330 314c20.667 -6.66699 36 -19.334 46 -38.001v-39c-15.333 -25.333 -33.333 -38 -54 -38l-38 23h-8l-92 -100h123l30 8l8 -8c102 4 153 22 153 54c30.667 18.667 46 49.334 46 92.001v8c0 28 -28 79 -84 153
l-15 84l7 115v46h-7l-192 -130v-8c0 -12 20.333 -24.667 61 -38v-8l-15 -15h-253l-77 -8l-15 23c76.667 23.333 115 102.666 115 237.999v491c0 71.333 -33.333 130 -100 176l8 7h92l31 -7l30 7h62l23 -15l-8 -53v-123l8 -23l-8 -38v-207l8 -31l-8 -31l8 -7v-8l-8 -31v-15h8
l-8 -54v-145l15 -16c33.333 33.333 110 92.333 230 177l-7 30l7 131l-7 7v8l7 31v23l-7 23l7 38v268l-7 54zM139 1289l70.998 71.998c8.66699 8 17 12 25 12c7.33301 0 16.333 -4.66699 27 -14l69 -73c6.66699 -9.33301 10 -17.666 10 -24.999
c0 -8.66699 -4 -17.667 -12 -27l-69 -75c-11.333 -11.333 -19.666 -17 -24.999 -17c-9.33301 0 -17.666 4 -24.999 12l-76 86c-6 8 -9 15.667 -9 23c0 8.66699 4.66699 17.334 14 26.001zM503.998 1289l70.998 72c8.66699 8 17 12 25 12c7.33301 0 16.333 -4.33301 27 -13
l69 -74c6.66699 -9.33301 10 -17.666 10 -24.999c0 -8.66699 -4 -17.334 -12 -26.001l-69 -76c-11.333 -11.333 -19.666 -17 -24.999 -17c-9.33301 0 -17.666 4 -24.999 12l-76 87c-6 7.33301 -9 14.666 -9 21.999c0 8.66699 4.66699 17.334 14 26.001z" />
    <glyph glyph-name="Amacron" unicode="&#x100;" horiz-adv-x="1164" 
d="M814 1430l7.99902 -8v-7l-103 -63l-39 -71c0 -55.333 94.333 -411.333 283 -1068c50.667 -115.333 100.334 -173 149.001 -173l8 -8v-15l-16 -16h-94l-8 8l-8 -8l-157 8l-78 -8v8l-8 -8h-55l-16 16v7c54 29.333 88 55.666 102 78.999l8 39
c-14 100.667 -29.667 168.667 -47 204h8l-24 79h-322c-36.667 -153.333 -55 -247.666 -55 -282.999c0 -34 34 -75.667 102 -125v-16h-141l-8 8l-8 -8h-23l-8 8l-24 -8l-31 8l-8 -8l-47 8l-102 -8l-8 8v8c100 70 152.333 127.333 157 172c84 256.667 175.667 613 275 1069v31
c0 52 -34 88.667 -102 110v8l16 15h7l8 -7l8 7h283zM444.999 566v-7h251c-52.667 154 -94.667 308.333 -126 463c-14 -10 -55.667 -162 -125 -456zM323.999 1687v125h516v-125h-516z" />
    <glyph glyph-name="amacron" unicode="&#x101;" horiz-adv-x="727" 
d="M676 922l7.00098 -7v-8c-76 -56 -114 -119.333 -114 -190l8 -8v-8l-8 -22l8 -8l-8 -38v-8l8 -30l-8 -23l8 -76h-8l8 -8v-7l-8 -8l8 -7v-23l-8 -46l8 -8v-7l-8 -8v-7l8 -46h-8l8 -8v-15l-8 -7l8 -8v-99c0 -75.333 33 -131 99 -167v-16h-221l-15 16v83h-8
c-35.333 -80.667 -86 -121 -152 -121h-15c-126.667 0 -200.334 119 -221.001 357c0 140 53.333 297.333 160 472l7 46v15l-15 23v7l15 16h335zM158.001 420l0.000976562 -15c23.333 -188 76.666 -282 159.999 -282h15c60 0 95.667 61 107 183v7l-8 8l8 38v282l-8 68l8 53
l-16 16h-159c-71.333 -116.667 -107 -236 -107 -358zM106.002 1195v125h516v-125h-516z" />
    <glyph glyph-name="Abreve" unicode="&#x102;" horiz-adv-x="1164" 
d="M814 1430l7.99902 -8v-7l-103 -63l-39 -71c0 -55.333 94.333 -411.333 283 -1068c50.667 -115.333 100.334 -173 149.001 -173l8 -8v-15l-16 -16h-94l-8 8l-8 -8l-157 8l-78 -8v8l-8 -8h-55l-16 16v7c54 29.333 88 55.666 102 78.999l8 39
c-14 100.667 -29.667 168.667 -47 204h8l-24 79h-322c-36.667 -153.333 -55 -247.666 -55 -282.999c0 -34 34 -75.667 102 -125v-16h-141l-8 8l-8 -8h-23l-8 8l-24 -8l-31 8l-8 -8l-47 8l-102 -8l-8 8v8c100 70 152.333 127.333 157 172c84 256.667 175.667 613 275 1069v31
c0 52 -34 88.667 -102 110v8l16 15h7l8 -7l8 7h283zM444.999 566v-7h251c-52.667 154 -94.667 308.333 -126 463c-14 -10 -55.667 -162 -125 -456zM289.999 1841l50.998 0.00292969c11.333 -48.667 36.333 -84.334 75 -107.001s94.334 -34 167.001 -34s128 11.167 166 33.5
s62.667 58.166 74 107.499h51c-13.333 -88.667 -44.666 -155.834 -93.999 -201.501s-115 -68.5 -197 -68.5c-81.333 0 -147 23 -197 69s-82 113 -96 201z" />
    <glyph glyph-name="abreve" unicode="&#x103;" horiz-adv-x="727" 
d="M676 922l7.00098 -7v-8c-76 -56 -114 -119.333 -114 -190l8 -8v-8l-8 -22l8 -8l-8 -38v-8l8 -30l-8 -23l8 -76h-8l8 -8v-7l-8 -8l8 -7v-23l-8 -46l8 -8v-7l-8 -8v-7l8 -46h-8l8 -8v-15l-8 -7l8 -8v-99c0 -75.333 33 -131 99 -167v-16h-221l-15 16v83h-8
c-35.333 -80.667 -86 -121 -152 -121h-15c-126.667 0 -200.334 119 -221.001 357c0 140 53.333 297.333 160 472l7 46v15l-15 23v7l15 16h335zM158.001 420l0.000976562 -15c23.333 -188 76.666 -282 159.999 -282h15c60 0 95.667 61 107 183v7l-8 8l8 38v282l-8 68l8 53
l-16 16h-159c-71.333 -116.667 -107 -236 -107 -358zM72.002 1349l50.998 0.00292969c11.333 -48.667 36.333 -84.334 75 -107.001s94.334 -34 167.001 -34s128 11.167 166 33.5s62.667 58.166 74 107.499h51c-13.333 -88.667 -44.666 -155.834 -93.999 -201.501
s-115 -68.5 -197 -68.5c-81.333 0 -147 23 -197 69s-82 113 -96 201z" />
    <glyph glyph-name="Aogonek" unicode="&#x104;" horiz-adv-x="1164" 
d="M814 1430l7.99902 -8v-7l-103 -63l-39 -71c0 -55.333 94.333 -411.333 283 -1068c50.667 -115.333 100.334 -173 149.001 -173l8 -8v-15l-16 -16h-94l-8 8l-8 -8l-157 8l-78 -8v8l-8 -8h-55l-16 16v7c54 29.333 88 55.666 102 78.999l8 39
c-14 100.667 -29.667 168.667 -47 204h8l-24 79h-322c-36.667 -153.333 -55 -247.666 -55 -282.999c0 -34 34 -75.667 102 -125v-16h-141l-8 8l-8 -8h-23l-8 8l-24 -8l-31 8l-8 -8l-47 8l-102 -8l-8 8v8c100 70 152.333 127.333 157 172c84 256.667 175.667 613 275 1069v31
c0 52 -34 88.667 -102 110v8l16 15h7l8 -7l8 7h283zM444.999 566v-7h251c-52.667 154 -94.667 308.333 -126 463c-14 -10 -55.667 -162 -125 -456zM1023 0c-47.333 -41.333 -84.168 -81.1699 -110.501 -119.503s-39.5 -75.833 -39.5 -112.5c0 -31.333 9 -56.333 27 -75
s42.333 -28 73 -28c26.667 0 49.834 5.16699 69.501 15.5s36.167 26.5 49.5 48.5l28 -16c-24 -42 -54.167 -74.333 -90.5 -97s-76.166 -34 -119.499 -34c-46.667 0 -84.667 11.833 -114 35.5s-44 53.834 -44 90.501c0 50.667 20.167 102.834 60.5 156.501
s94.166 98.834 161.499 135.501h49z" />
    <glyph glyph-name="aogonek" unicode="&#x105;" horiz-adv-x="727" 
d="M676 922l7.00098 -7v-8c-76 -56 -114 -119.333 -114 -190l8 -8v-8l-8 -22l8 -8l-8 -38v-8l8 -30l-8 -23l8 -76h-8l8 -8v-7l-8 -8l8 -7v-23l-8 -46l8 -8v-7l-8 -8v-7l8 -46h-8l8 -8v-15l-8 -7l8 -8v-99c0 -75.333 33 -131 99 -167v-16h-221l-15 16v83h-8
c-35.333 -80.667 -86 -121 -152 -121h-15c-126.667 0 -200.334 119 -221.001 357c0 140 53.333 297.333 160 472l7 46v15l-15 23v7l15 16h335zM158.001 420l0.000976562 -15c23.333 -188 76.666 -282 159.999 -282h15c60 0 95.667 61 107 183v7l-8 8l8 38v282l-8 68l8 53
l-16 16h-159c-71.333 -116.667 -107 -236 -107 -358zM586.002 0c-47.333 -41.333 -84.168 -81.1699 -110.501 -119.503s-39.5 -75.833 -39.5 -112.5c0 -31.333 9 -56.333 27 -75s42.333 -28 73 -28c26.667 0 49.834 5.16699 69.501 15.5s36.167 26.5 49.5 48.5l28 -16
c-24 -42 -54.167 -74.333 -90.5 -97s-76.166 -34 -119.499 -34c-46.667 0 -84.667 11.833 -114 35.5s-44 53.834 -44 90.501c0 50.667 20.167 102.834 60.5 156.501s94.166 98.834 161.499 135.501h49z" />
    <glyph glyph-name="Cacute" unicode="&#x106;" horiz-adv-x="948" 
d="M730 1437l23.999 -7.99707l8 8l31 -8l103 8l8 -8v-8c-142 -174.667 -213 -335 -213 -481v-47l8 -8v-8l7 8h32c36.667 0 55 -18.333 55 -55v-40c-22 -31.333 -45.667 -47 -71 -47c-72.667 0 -114.667 44.667 -126 134l-8 32c0 117.333 31.667 233 95 347h-316
c-46 -48.667 -93.333 -167 -142 -355l-8 -150v-95c0 -220.667 63.333 -378.334 190 -473.001l110 -32c96.667 0 170.334 58 221.001 174c21.333 61.333 32 129.666 32 204.999v8l15 16h95l16 -16c0 -288.667 -97.333 -470 -292 -544l-126 -16c-220 0 -362 165.667 -426 497
l-8 126v39c0 171.333 73.667 397.666 221 678.999l16 47l-24 55l8 8h418zM610.999 1867c23.333 23.333 41.833 38.999 55.5 46.999s27.167 12 40.5 12c22 0 39.833 -6.66699 53.5 -20s20.5 -30.333 20.5 -51c0 -14.667 -5.16699 -28.667 -15.5 -42
s-25.833 -26.666 -46.5 -39.999l-330 -203h-69z" />
    <glyph glyph-name="cacute" unicode="&#x107;" horiz-adv-x="669" 
d="M584 928l8 -6.99805v-8c-76 -140.667 -114 -234.334 -114 -281.001c40.667 -4 61 -22 61 -54c-10.667 -30 -31 -45 -61 -45h-23c-30.667 17.333 -46 40 -46 68v23l38 152h-182c-24 -20 -54.667 -98.667 -92 -236l8 -7l-15 -92c20 -197.333 83.333 -296 190 -296v-8
c64.667 0 115.334 48.333 152.001 145c0 55.333 7.66699 83 23 83h30l23 -23c0 -161.333 -43 -270.333 -129 -327c-18.667 -15.333 -59.334 -28 -122.001 -38c-123.333 0 -212 76 -266 228c-15.333 56 -23 104.333 -23 145c0 123.333 50.667 275.666 152 456.999l15 60
l-22 39l15 15h190zM455 1375c23.333 23.333 41.833 38.999 55.5 46.999s27.167 12 40.5 12c22 0 39.833 -6.66699 53.5 -20s20.5 -30.333 20.5 -51c0 -14.667 -5.16699 -28.667 -15.5 -42s-25.833 -26.666 -46.5 -39.999l-330 -203h-69z" />
    <glyph glyph-name="Ccircumflex" unicode="&#x108;" horiz-adv-x="948" 
d="M730 1437l23.999 -7.99707l8 8l31 -8l103 8l8 -8v-8c-142 -174.667 -213 -335 -213 -481v-47l8 -8v-8l7 8h32c36.667 0 55 -18.333 55 -55v-40c-22 -31.333 -45.667 -47 -71 -47c-72.667 0 -114.667 44.667 -126 134l-8 32c0 117.333 31.667 233 95 347h-316
c-46 -48.667 -93.333 -167 -142 -355l-8 -150v-95c0 -220.667 63.333 -378.334 190 -473.001l110 -32c96.667 0 170.334 58 221.001 174c21.333 61.333 32 129.666 32 204.999v8l15 16h95l16 -16c0 -288.667 -97.333 -470 -292 -544l-126 -16c-220 0 -362 165.667 -426 497
l-8 126v39c0 171.333 73.667 397.666 221 678.999l16 47l-24 55l8 8h418zM182.999 1571l232 355h118l232 -355h-58l-233 216l-233 -216h-58z" />
    <glyph glyph-name="ccircumflex" unicode="&#x109;" horiz-adv-x="670" 
d="M601 928l8 -6.99805v-8c-76 -140.667 -114 -234.334 -114 -281.001c40.667 -4 61 -22 61 -54c-10.667 -30 -31 -45 -61 -45h-23c-30.667 17.333 -46 40 -46 68v23l38 152h-182c-24 -20 -54.667 -98.667 -92 -236l8 -7l-15 -92c20 -197.333 83.333 -296 190 -296v-8
c64.667 0 115.334 48.333 152.001 145c0 55.333 7.66699 83 23 83h30l23 -23c0 -161.333 -43 -270.333 -129 -327c-18.667 -15.333 -59.334 -28 -122.001 -38c-123.333 0 -212 76 -266 228c-15.333 56 -23 104.333 -23 145c0 123.333 50.667 275.666 152 456.999l15 60
l-22 39l15 15h190zM44 1079l232 355h118l232 -355h-58l-233 216l-233 -216h-58z" />
    <glyph glyph-name="Cdotaccent" unicode="&#x10a;" horiz-adv-x="948" 
d="M730 1437l23.999 -7.99707l8 8l31 -8l103 8l8 -8v-8c-142 -174.667 -213 -335 -213 -481v-47l8 -8v-8l7 8h32c36.667 0 55 -18.333 55 -55v-40c-22 -31.333 -45.667 -47 -71 -47c-72.667 0 -114.667 44.667 -126 134l-8 32c0 117.333 31.667 233 95 347h-316
c-46 -48.667 -93.333 -167 -142 -355l-8 -150v-95c0 -220.667 63.333 -378.334 190 -473.001l110 -32c96.667 0 170.334 58 221.001 174c21.333 61.333 32 129.666 32 204.999v8l15 16h95l16 -16c0 -288.667 -97.333 -470 -292 -544l-126 -16c-220 0 -362 165.667 -426 497
l-8 126v39c0 171.333 73.667 397.666 221 678.999l16 47l-24 55l8 8h418zM379.999 1781l69 71.999c4 4 8.33301 7 13 9s9.33398 3 14.001 3c4 0 8.16699 -1 12.5 -3s8.5 -5 12.5 -9l71 -76c3.33301 -2.66699 5.66602 -6 6.99902 -10s2 -8.66699 2 -14
c-0.666992 -6 -1.66699 -11 -3 -15s-4 -8 -8 -12l-71 -76c-8 -7.33301 -13.333 -11.833 -16 -13.5s-5 -2.5 -7 -2.5c-6.66699 0 -12.167 0.833008 -16.5 2.5s-7.83301 4.5 -10.5 8.5l-75 87c-2.66699 2.66699 -4.66699 5.83398 -6 9.50098s-2 8.16699 -2 13.5
c0 4 1 8.16699 3 12.5s5.66699 8.83301 11 13.5z" />
    <glyph glyph-name="cdotaccent" unicode="&#x10b;" horiz-adv-x="636" 
d="M584 928l8 -6.99805v-8c-76 -140.667 -114 -234.334 -114 -281.001c40.667 -4 61 -22 61 -54c-10.667 -30 -31 -45 -61 -45h-23c-30.667 17.333 -46 40 -46 68v23l38 152h-182c-24 -20 -54.667 -98.667 -92 -236l8 -7l-15 -92c20 -197.333 83.333 -296 190 -296v-8
c64.667 0 115.334 48.333 152.001 145c0 55.333 7.66699 83 23 83h30l23 -23c0 -161.333 -43 -270.333 -129 -327c-18.667 -15.333 -59.334 -28 -122.001 -38c-123.333 0 -212 76 -266 228c-15.333 56 -23 104.333 -23 145c0 123.333 50.667 275.666 152 456.999l15 60
l-22 39l15 15h190zM224 1289l69 71.999c4 4 8.33301 7 13 9s9.33398 3 14.001 3c4 0 8.16699 -1 12.5 -3s8.5 -5 12.5 -9l71 -76c3.33301 -2.66699 5.66602 -6 6.99902 -10s2 -8.66699 2 -14c-0.666992 -6 -1.66699 -11 -3 -15s-4 -8 -8 -12l-71 -76
c-8 -7.33301 -13.333 -11.833 -16 -13.5s-5 -2.5 -7 -2.5c-6.66699 0 -12.167 0.833008 -16.5 2.5s-7.83301 4.5 -10.5 8.5l-75 87c-2.66699 2.66699 -4.66699 5.83398 -6 9.50098s-2 8.16699 -2 13.5c0 4 1 8.16699 3 12.5s5.66699 8.83301 11 13.5z" />
    <glyph glyph-name="Ccaron" unicode="&#x10c;" horiz-adv-x="948" 
d="M730 1437l23.999 -7.99707l8 8l31 -8l103 8l8 -8v-8c-142 -174.667 -213 -335 -213 -481v-47l8 -8v-8l7 8h32c36.667 0 55 -18.333 55 -55v-40c-22 -31.333 -45.667 -47 -71 -47c-72.667 0 -114.667 44.667 -126 134l-8 32c0 117.333 31.667 233 95 347h-316
c-46 -48.667 -93.333 -167 -142 -355l-8 -150v-95c0 -220.667 63.333 -378.334 190 -473.001l110 -32c96.667 0 170.334 58 221.001 174c21.333 61.333 32 129.666 32 204.999v8l15 16h95l16 -16c0 -288.667 -97.333 -470 -292 -544l-126 -16c-220 0 -362 165.667 -426 497
l-8 126v39c0 171.333 73.667 397.666 221 678.999l16 47l-24 55l8 8h418zM182.999 1926h58l233 -214l233 214h58l-232 -356h-118z" />
    <glyph glyph-name="ccaron" unicode="&#x10d;" horiz-adv-x="670" 
d="M601 928l8 -6.99805v-8c-76 -140.667 -114 -234.334 -114 -281.001c40.667 -4 61 -22 61 -54c-10.667 -30 -31 -45 -61 -45h-23c-30.667 17.333 -46 40 -46 68v23l38 152h-182c-24 -20 -54.667 -98.667 -92 -236l8 -7l-15 -92c20 -197.333 83.333 -296 190 -296v-8
c64.667 0 115.334 48.333 152.001 145c0 55.333 7.66699 83 23 83h30l23 -23c0 -161.333 -43 -270.333 -129 -327c-18.667 -15.333 -59.334 -28 -122.001 -38c-123.333 0 -212 76 -266 228c-15.333 56 -23 104.333 -23 145c0 123.333 50.667 275.666 152 456.999l15 60
l-22 39l15 15h190zM44 1434h58l233 -214l233 214h58l-232 -356h-118z" />
    <glyph glyph-name="Dcaron" unicode="&#x10e;" horiz-adv-x="1034" 
d="M60 1430l39 -8l24 8v-8l8 8l55 -8h8l31 8l8 -8h8l40 8v-8l7 8h56l8 -8l7 8h229l8 -8l8 8h142v-16c-31.333 -26 -47 -49.667 -47 -71l197 -300c62.667 -116 94 -234 94 -354v-40c0 -170 -71 -346 -213 -528v-24c0 -20.667 16 -47 48 -79v-8c0 -10 -8 -15 -24 -15l-8 7h-8
l-23 -7v7l-8 -7l-40 7h-512l-95 -7v7l-8 -7h-39l-16 15l95 79c26 41.333 39 107 39 197v300l-8 32l8 31l-8 32l8 78v229l-8 32l8 31v32l-8 31l8 8v8l-8 8v8l8 31l-8 87v24c-20.667 50 -62.667 89.333 -126 118v8zM344 1264v-378l8 -95h-8l8 -8v-71l-8 -8l8 -8v-236l-8 -8
l8 -8v-260l15 -16h134l150 8l32 -8c84 175.333 126 338.333 126 489c0 200.667 -65.667 403 -197 607h-268zM226 1926h58l233 -214l233 214h58l-232 -356h-118z" />
    <glyph glyph-name="Dcroat" unicode="&#x110;" horiz-adv-x="1112" 
d="M60 1430l39 -8l24 8v-8l8 8l55 -8h8l31 8l8 -8h8l40 8v-8l7 8h56l8 -8l7 8h229l8 -8l8 8h142v-16c-31.333 -26 -47 -49.667 -47 -71l197 -300c62.667 -116 94 -234 94 -354v-40c0 -170 -71 -346 -213 -528v-24c0 -20.667 16 -47 48 -79v-8c0 -10 -8 -15 -24 -15l-8 7h-8
l-23 -7v7l-8 -7l-40 7h-512l-95 -7v7l-8 -7h-39l-16 15l95 79c26 41.333 39 107 39 197v300l-8 32l8 31l-8 32l8 78v229l-8 32l8 31v32l-8 31l8 8v8l-8 8v8l8 31l-8 87v24c-20.667 50 -62.667 89.333 -126 118v8zM344 1264v-378l8 -95h-8l8 -8v-71l-8 -8l8 -8v-236l-8 -8
l8 -8v-260l15 -16h134l150 8l32 -8c84 175.333 126 338.333 126 489c0 200.667 -65.667 403 -197 607h-268zM44 742h1024v-60h-1024v60z" />
    <glyph glyph-name="dcroat" unicode="&#x111;" horiz-adv-x="1112" 
d="M387 517l7 -7l-7 -53v-39c0 -118 43 -211.667 129 -281l23 -8c76 0 119 63.667 129 191v213l-7 30l7 31v45l-7 31l7 7v8l-7 7l7 54v38l-22 7l-84 -7h-8l-7 7c-46 -2.66699 -69 -12.667 -69 -30c-12 0 -42.333 -81.333 -91 -244zM655 1166l6 20.9971v31
c0 62.667 -38 113.334 -114 152.001l22 15l31 -8l7 8l39 -8h22l31 8l7 -8h8l76 8l8 -8v-7l-8 -8l8 -8v-7l-8 -8l8 -7v-166h270v-60h-270v-48l-8 -8l8 -8v-281l7 -122l-7 -23l7 -38l-7 -7l7 -8v-335l8 -30l-8 -8v-7c0 -61.333 33 -114.666 99 -159.999l-15 -15l-23 7l-53 -7
l-23 7l-46 -7h-60l-16 15v38l8 7l-8 39c-52 -75.333 -97.667 -113.666 -137 -114.999h-53c-142 34 -213 150.667 -213 350v8l8 46l-8 7v8c12 95.333 52.667 204.333 122 327c30 42.667 45 80.667 45 114c0 17.333 -7.33301 35.333 -22 54v15h251v185h-617v60h611z" />
    <glyph glyph-name="Emacron" unicode="&#x112;" horiz-adv-x="1105" 
d="M935 1439l0.000976562 -7.99902l8 8h71l16 -16c-138.667 -133.333 -215 -225.333 -229 -276c36.667 -10 55 -28.333 55 -55c0 -46 -26.333 -72.333 -79 -79c-52 15.333 -78 44 -78 86v8c0 38 23.667 90.667 71 158v8c-50 36.667 -116 55 -198 55h-15
c-136.667 0 -205 -60.333 -205 -181l7 -158h-7l7 -8v-23l-7 -32l7 -8l-7 -39l7 -32l119 8h236v-16l-71 -205h8c23.333 0 41.666 -13 54.999 -39v-16c0 -42 -21 -63 -63 -63h-8c-47.333 0 -73.333 31.667 -78 95l23 102h-8l-142 -8v8l-7 -8h-16l-8 8l-47 -24l7 -7v-8l-7 -8
v-8l7 -40h-7l7 -7v-371c0 -89.333 52.667 -134 158 -134h40c84 0 176 23.667 276 71c-42 77.333 -63 145.666 -63 204.999v24c6.66699 78.667 46 118 118 118c42 -14 63 -37.667 63 -71c0 -42 -31.667 -63 -95 -63c0 -90.667 68.333 -211.667 205 -363l-15 -16h-127l-31 -8
l-32 8h-16l-55 -8v8l-8 -8h-7l-8 8l-8 -8h-142l-8 8l-8 -8h-339l-197 -8l-8 8v16c89.333 50.667 134 119 134 205v32l8 8l-8 7v142l8 8l-8 8v32l8 110l-8 24h8l-8 8v15h8l-8 95v497c0 98 -47.333 161 -142 189v8l24 24l55 -8h79l134 8v-8l8 8h181zM295.001 1687v125h516
v-125h-516z" />
    <glyph glyph-name="emacron" unicode="&#x113;" horiz-adv-x="674" 
d="M622 916l8 -7.99902v-15c-50.667 -23.333 -76 -79.333 -76 -168c0 -166.667 -96.333 -278.334 -289 -335.001l-76 -7h-16c32 -172.667 90.333 -259 175 -259h31c61.333 0 104.333 53.333 129 160c3.33301 45.333 11 68 23 68h38l23 -15
c0 -248.667 -96.333 -373 -289 -373c-64.667 11.333 -125.667 47 -183 107c-50.667 94.667 -76 175.667 -76 243c0 134 43 276.333 129 427c20.667 30 31 57.667 31 83v31l-23 30v8l15 15h15l8 -8l8 8h342zM173 467.001v-37.999l-7 -8v-8l7 -7
c167.333 51.333 251 150 251 296v46l-15 15h-137c-57.333 -90.667 -90.333 -189.334 -99 -296.001zM79 1195v125h516v-125h-516z" />
    <glyph glyph-name="Ebreve" unicode="&#x114;" horiz-adv-x="1105" 
d="M935 1439l0.000976562 -7.99902l8 8h71l16 -16c-138.667 -133.333 -215 -225.333 -229 -276c36.667 -10 55 -28.333 55 -55c0 -46 -26.333 -72.333 -79 -79c-52 15.333 -78 44 -78 86v8c0 38 23.667 90.667 71 158v8c-50 36.667 -116 55 -198 55h-15
c-136.667 0 -205 -60.333 -205 -181l7 -158h-7l7 -8v-23l-7 -32l7 -8l-7 -39l7 -32l119 8h236v-16l-71 -205h8c23.333 0 41.666 -13 54.999 -39v-16c0 -42 -21 -63 -63 -63h-8c-47.333 0 -73.333 31.667 -78 95l23 102h-8l-142 -8v8l-7 -8h-16l-8 8l-47 -24l7 -7v-8l-7 -8
v-8l7 -40h-7l7 -7v-371c0 -89.333 52.667 -134 158 -134h40c84 0 176 23.667 276 71c-42 77.333 -63 145.666 -63 204.999v24c6.66699 78.667 46 118 118 118c42 -14 63 -37.667 63 -71c0 -42 -31.667 -63 -95 -63c0 -90.667 68.333 -211.667 205 -363l-15 -16h-127l-31 -8
l-32 8h-16l-55 -8v8l-8 -8h-7l-8 8l-8 -8h-142l-8 8l-8 -8h-339l-197 -8l-8 8v16c89.333 50.667 134 119 134 205v32l8 8l-8 7v142l8 8l-8 8v32l8 110l-8 24h8l-8 8v15h8l-8 95v497c0 98 -47.333 161 -142 189v8l24 24l55 -8h79l134 8v-8l8 8h181zM261.001 1841
l50.998 0.00292969c11.333 -48.667 36.333 -84.334 75 -107.001s94.334 -34 167.001 -34s128 11.167 166 33.5s62.667 58.166 74 107.499h51c-13.333 -88.667 -44.666 -155.834 -93.999 -201.501s-115 -68.5 -197 -68.5c-81.333 0 -147 23 -197 69s-82 113 -96 201z" />
    <glyph glyph-name="ebreve" unicode="&#x115;" horiz-adv-x="674" 
d="M622 916l8 -7.99902v-15c-50.667 -23.333 -76 -79.333 -76 -168c0 -166.667 -96.333 -278.334 -289 -335.001l-76 -7h-16c32 -172.667 90.333 -259 175 -259h31c61.333 0 104.333 53.333 129 160c3.33301 45.333 11 68 23 68h38l23 -15
c0 -248.667 -96.333 -373 -289 -373c-64.667 11.333 -125.667 47 -183 107c-50.667 94.667 -76 175.667 -76 243c0 134 43 276.333 129 427c20.667 30 31 57.667 31 83v31l-23 30v8l15 15h15l8 -8l8 8h342zM173 467.001v-37.999l-7 -8v-8l7 -7
c167.333 51.333 251 150 251 296v46l-15 15h-137c-57.333 -90.667 -90.333 -189.334 -99 -296.001zM45 1349l50.998 0.00292969c11.333 -48.667 36.333 -84.334 75 -107.001s94.334 -34 167.001 -34s128 11.167 166 33.5s62.667 58.166 74 107.499h51
c-13.333 -88.667 -44.666 -155.834 -93.999 -201.501s-115 -68.5 -197 -68.5c-81.333 0 -147 23 -197 69s-82 113 -96 201z" />
    <glyph glyph-name="Edotaccent" unicode="&#x116;" horiz-adv-x="1105" 
d="M935 1439l0.000976562 -7.99902l8 8h71l16 -16c-138.667 -133.333 -215 -225.333 -229 -276c36.667 -10 55 -28.333 55 -55c0 -46 -26.333 -72.333 -79 -79c-52 15.333 -78 44 -78 86v8c0 38 23.667 90.667 71 158v8c-50 36.667 -116 55 -198 55h-15
c-136.667 0 -205 -60.333 -205 -181l7 -158h-7l7 -8v-23l-7 -32l7 -8l-7 -39l7 -32l119 8h236v-16l-71 -205h8c23.333 0 41.666 -13 54.999 -39v-16c0 -42 -21 -63 -63 -63h-8c-47.333 0 -73.333 31.667 -78 95l23 102h-8l-142 -8v8l-7 -8h-16l-8 8l-47 -24l7 -7v-8l-7 -8
v-8l7 -40h-7l7 -7v-371c0 -89.333 52.667 -134 158 -134h40c84 0 176 23.667 276 71c-42 77.333 -63 145.666 -63 204.999v24c6.66699 78.667 46 118 118 118c42 -14 63 -37.667 63 -71c0 -42 -31.667 -63 -95 -63c0 -90.667 68.333 -211.667 205 -363l-15 -16h-127l-31 -8
l-32 8h-16l-55 -8v8l-8 -8h-7l-8 8l-8 -8h-142l-8 8l-8 -8h-339l-197 -8l-8 8v16c89.333 50.667 134 119 134 205v32l8 8l-8 7v142l8 8l-8 8v32l8 110l-8 24h8l-8 8v15h8l-8 95v497c0 98 -47.333 161 -142 189v8l24 24l55 -8h79l134 8v-8l8 8h181zM459.001 1781l69 71.999
c4 4 8.33301 7 13 9s9.33398 3 14.001 3c4 0 8.16699 -1 12.5 -3s8.5 -5 12.5 -9l71 -76c3.33301 -2.66699 5.66602 -6 6.99902 -10s2 -8.66699 2 -14c-0.666992 -6 -1.66699 -11 -3 -15s-4 -8 -8 -12l-71 -76c-8 -7.33301 -13.333 -11.833 -16 -13.5s-5 -2.5 -7 -2.5
c-6.66699 0 -12.167 0.833008 -16.5 2.5s-7.83301 4.5 -10.5 8.5l-75 87c-2.66699 2.66699 -4.66699 5.83398 -6 9.50098s-2 8.16699 -2 13.5c0 4 1 8.16699 3 12.5s5.66699 8.83301 11 13.5z" />
    <glyph glyph-name="edotaccent" unicode="&#x117;" horiz-adv-x="674" 
d="M622 916l8 -7.99902v-15c-50.667 -23.333 -76 -79.333 -76 -168c0 -166.667 -96.333 -278.334 -289 -335.001l-76 -7h-16c32 -172.667 90.333 -259 175 -259h31c61.333 0 104.333 53.333 129 160c3.33301 45.333 11 68 23 68h38l23 -15
c0 -248.667 -96.333 -373 -289 -373c-64.667 11.333 -125.667 47 -183 107c-50.667 94.667 -76 175.667 -76 243c0 134 43 276.333 129 427c20.667 30 31 57.667 31 83v31l-23 30v8l15 15h15l8 -8l8 8h342zM173 467.001v-37.999l-7 -8v-8l7 -7
c167.333 51.333 251 150 251 296v46l-15 15h-137c-57.333 -90.667 -90.333 -189.334 -99 -296.001zM243 1289l69 71.999c4 4 8.33301 7 13 9s9.33398 3 14.001 3c4 0 8.16699 -1 12.5 -3s8.5 -5 12.5 -9l71 -76c3.33301 -2.66699 5.66602 -6 6.99902 -10s2 -8.66699 2 -14
c-0.666992 -6 -1.66699 -11 -3 -15s-4 -8 -8 -12l-71 -76c-8 -7.33301 -13.333 -11.833 -16 -13.5s-5 -2.5 -7 -2.5c-6.66699 0 -12.167 0.833008 -16.5 2.5s-7.83301 4.5 -10.5 8.5l-75 87c-2.66699 2.66699 -4.66699 5.83398 -6 9.50098s-2 8.16699 -2 13.5
c0 4 1 8.16699 3 12.5s5.66699 8.83301 11 13.5z" />
    <glyph glyph-name="Eogonek" unicode="&#x118;" horiz-adv-x="1105" 
d="M935 1439l0.000976562 -7.99902l8 8h71l16 -16c-138.667 -133.333 -215 -225.333 -229 -276c36.667 -10 55 -28.333 55 -55c0 -46 -26.333 -72.333 -79 -79c-52 15.333 -78 44 -78 86v8c0 38 23.667 90.667 71 158v8c-50 36.667 -116 55 -198 55h-15
c-136.667 0 -205 -60.333 -205 -181l7 -158h-7l7 -8v-23l-7 -32l7 -8l-7 -39l7 -32l119 8h236v-16l-71 -205h8c23.333 0 41.666 -13 54.999 -39v-16c0 -42 -21 -63 -63 -63h-8c-47.333 0 -73.333 31.667 -78 95l23 102h-8l-142 -8v8l-7 -8h-16l-8 8l-47 -24l7 -7v-8l-7 -8
v-8l7 -40h-7l7 -7v-371c0 -89.333 52.667 -134 158 -134h40c84 0 176 23.667 276 71c-42 77.333 -63 145.666 -63 204.999v24c6.66699 78.667 46 118 118 118c42 -14 63 -37.667 63 -71c0 -42 -31.667 -63 -95 -63c0 -90.667 68.333 -211.667 205 -363l-15 -16h-127l-31 -8
l-32 8h-16l-55 -8v8l-8 -8h-7l-8 8l-8 -8h-142l-8 8l-8 -8h-339l-197 -8l-8 8v16c89.333 50.667 134 119 134 205v32l8 8l-8 7v142l8 8l-8 8v32l8 110l-8 24h8l-8 8v15h8l-8 95v497c0 98 -47.333 161 -142 189v8l24 24l55 -8h79l134 8v-8l8 8h181zM964.001 0.000976562
c-47.333 -41.333 -84.168 -81.1699 -110.501 -119.503s-39.5 -75.833 -39.5 -112.5c0 -31.333 9 -56.333 27 -75s42.333 -28 73 -28c26.667 0 49.834 5.16699 69.501 15.5s36.167 26.5 49.5 48.5l28 -16c-24 -42 -54.167 -74.333 -90.5 -97s-76.166 -34 -119.499 -34
c-46.667 0 -84.667 11.833 -114 35.5s-44 53.834 -44 90.501c0 50.667 20.167 102.834 60.5 156.501s94.166 98.834 161.499 135.501h49z" />
    <glyph glyph-name="eogonek" unicode="&#x119;" horiz-adv-x="674" 
d="M622 916l8 -7.99902v-15c-50.667 -23.333 -76 -79.333 -76 -168c0 -166.667 -96.333 -278.334 -289 -335.001l-76 -7h-16c32 -172.667 90.333 -259 175 -259h31c61.333 0 104.333 53.333 129 160c3.33301 45.333 11 68 23 68h38l23 -15
c0 -248.667 -96.333 -373 -289 -373c-64.667 11.333 -125.667 47 -183 107c-50.667 94.667 -76 175.667 -76 243c0 134 43 276.333 129 427c20.667 30 31 57.667 31 83v31l-23 30v8l15 15h15l8 -8l8 8h342zM173 467.001v-37.999l-7 -8v-8l7 -7
c167.333 51.333 251 150 251 296v46l-15 15h-137c-57.333 -90.667 -90.333 -189.334 -99 -296.001zM533 132.002c-47.333 -41.333 -84.168 -81.1699 -110.501 -119.503s-39.5 -75.833 -39.5 -112.5c0 -31.333 9 -56.333 27 -75s42.333 -28 73 -28
c26.667 0 49.834 5.16699 69.501 15.5s36.167 26.5 49.5 48.5l28 -16c-24 -42 -54.167 -74.333 -90.5 -97s-76.166 -34 -119.499 -34c-46.667 0 -84.667 11.833 -114 35.5s-44 53.834 -44 90.501c0 50.667 20.167 102.834 60.5 156.501s94.166 98.834 161.499 135.501h49z
" />
    <glyph glyph-name="Ecaron" unicode="&#x11a;" horiz-adv-x="1105" 
d="M935 1439l0.000976562 -7.99902l8 8h71l16 -16c-138.667 -133.333 -215 -225.333 -229 -276c36.667 -10 55 -28.333 55 -55c0 -46 -26.333 -72.333 -79 -79c-52 15.333 -78 44 -78 86v8c0 38 23.667 90.667 71 158v8c-50 36.667 -116 55 -198 55h-15
c-136.667 0 -205 -60.333 -205 -181l7 -158h-7l7 -8v-23l-7 -32l7 -8l-7 -39l7 -32l119 8h236v-16l-71 -205h8c23.333 0 41.666 -13 54.999 -39v-16c0 -42 -21 -63 -63 -63h-8c-47.333 0 -73.333 31.667 -78 95l23 102h-8l-142 -8v8l-7 -8h-16l-8 8l-47 -24l7 -7v-8l-7 -8
v-8l7 -40h-7l7 -7v-371c0 -89.333 52.667 -134 158 -134h40c84 0 176 23.667 276 71c-42 77.333 -63 145.666 -63 204.999v24c6.66699 78.667 46 118 118 118c42 -14 63 -37.667 63 -71c0 -42 -31.667 -63 -95 -63c0 -90.667 68.333 -211.667 205 -363l-15 -16h-127l-31 -8
l-32 8h-16l-55 -8v8l-8 -8h-7l-8 8l-8 -8h-142l-8 8l-8 -8h-339l-197 -8l-8 8v16c89.333 50.667 134 119 134 205v32l8 8l-8 7v142l8 8l-8 8v32l8 110l-8 24h8l-8 8v15h8l-8 95v497c0 98 -47.333 161 -142 189v8l24 24l55 -8h79l134 8v-8l8 8h181zM262.001 1926h58l233 -214
l233 214h58l-232 -356h-118z" />
    <glyph glyph-name="ecaron" unicode="&#x11b;" horiz-adv-x="674" 
d="M622 916l8 -7.99902v-15c-50.667 -23.333 -76 -79.333 -76 -168c0 -166.667 -96.333 -278.334 -289 -335.001l-76 -7h-16c32 -172.667 90.333 -259 175 -259h31c61.333 0 104.333 53.333 129 160c3.33301 45.333 11 68 23 68h38l23 -15
c0 -248.667 -96.333 -373 -289 -373c-64.667 11.333 -125.667 47 -183 107c-50.667 94.667 -76 175.667 -76 243c0 134 43 276.333 129 427c20.667 30 31 57.667 31 83v31l-23 30v8l15 15h15l8 -8l8 8h342zM173 467.001v-37.999l-7 -8v-8l7 -7
c167.333 51.333 251 150 251 296v46l-15 15h-137c-57.333 -90.667 -90.333 -189.334 -99 -296.001zM46 1434h58l233 -214l233 214h58l-232 -356h-118z" />
    <glyph glyph-name="Gcircumflex" unicode="&#x11c;" horiz-adv-x="1045" 
d="M977 1440l8 -8.00391v-15c-135.333 -121.333 -216.333 -241.666 -243 -360.999l-16 -63h32c41.333 -5.33301 62 -26 62 -62c-14 -42 -40 -63 -78 -63c-55.333 0 -89.333 34 -102 102v23c0 100 31.333 186.333 94 259v8h-321c-136 -214.667 -204 -395 -204 -541l8 -31h-8
l8 -8v-55c0 -171.333 88.667 -317.666 266 -438.999l63 -32c94 58.667 141 166 141 322l-8 23h8l-8 8v24l8 8l-8 7v8l8 8v8l-8 31l8 8l-8 8h-165l-7 8c-22 0 -45.667 -55 -71 -165c31.333 -16.667 47 -37.667 47 -63v-23c-15.333 -26 -36.333 -39 -63 -39
c-43.333 0 -69.333 31.333 -78 94v39l71 259l-8 23l8 8h62l39 -8l48 8h125l8 -8l8 8h109l8 -8l8 8h86l79 8l8 -8v-16c-89.333 -46.667 -134 -91 -134 -133l-15 -63l7 -7v-8l-7 -8l7 -55v-16l-7 -47l7 -8v-7l-7 -8l7 -39v-48l-7 -7l7 -8v-8l-7 -8l7 -8v-8l8 -133l-8 -8h-7
c-15.333 0.666992 -44.333 45.334 -87 134.001c0 -11.333 -91.333 -105.666 -274 -282.999h-8c-292.667 168.667 -439 385.667 -439 651c0 216 94 456.667 282 722l8 31l-16 63v7h526zM231 1571l232 355h118l232 -355h-58l-233 216l-233 -216h-58z" />
    <glyph glyph-name="gcircumflex" unicode="&#x11d;" horiz-adv-x="727" 
d="M668 932l7.99902 -7.00098v-8c-66 -46 -99 -104.333 -99 -175v-69l7 -30l-7 -23l7 -23l-7 -38l7 -23v-15h-7l7 -91v-304c0 -68 25.333 -131.667 76 -191c15.333 -26 23 -51.333 23 -76v-30c0 -72 -55.667 -140.667 -167 -206c-35.333 -53.333 -58.333 -81 -69 -83h-61
l-7 7l-8 -7h-182l-77 -8l-15 23c116.667 208 205.667 312 267 312h7c23.333 -10 36 -20.333 38 -31v-30l-30 -30h-31l-15 15c-15.333 0 -45.666 -40.667 -90.999 -122h243c50.667 37.333 76 73 76 107v30c0 18.667 -35.333 77 -106 175l-8 53v15l8 8l-8 53h-7
c-40 -80.667 -88.333 -121 -145 -121c-142 0 -225.667 114 -251 342l8 38l-8 8v7c0 90.667 58.333 240.334 175 449.001v38l-15 38l30 16l38 -8l46 8l8 -8l38 8h114l7 -8l8 8h122zM157.999 467.999c0 -163.333 45.667 -274.999 137 -334.999l38 -7c76 14 114 77.333 114 190
v23h-7l7 53v99l-7 68l7 8v8l-7 121v31l7 53l-7 8h-168c-59.333 -96.667 -97.333 -203.334 -114 -320.001zM72.999 1079l232 355h118l232 -355h-58l-233 216l-233 -216h-58z" />
    <glyph glyph-name="Gbreve" unicode="&#x11e;" horiz-adv-x="1045" 
d="M977 1440l8 -8.00391v-15c-135.333 -121.333 -216.333 -241.666 -243 -360.999l-16 -63h32c41.333 -5.33301 62 -26 62 -62c-14 -42 -40 -63 -78 -63c-55.333 0 -89.333 34 -102 102v23c0 100 31.333 186.333 94 259v8h-321c-136 -214.667 -204 -395 -204 -541l8 -31h-8
l8 -8v-55c0 -171.333 88.667 -317.666 266 -438.999l63 -32c94 58.667 141 166 141 322l-8 23h8l-8 8v24l8 8l-8 7v8l8 8v8l-8 31l8 8l-8 8h-165l-7 8c-22 0 -45.667 -55 -71 -165c31.333 -16.667 47 -37.667 47 -63v-23c-15.333 -26 -36.333 -39 -63 -39
c-43.333 0 -69.333 31.333 -78 94v39l71 259l-8 23l8 8h62l39 -8l48 8h125l8 -8l8 8h109l8 -8l8 8h86l79 8l8 -8v-16c-89.333 -46.667 -134 -91 -134 -133l-15 -63l7 -7v-8l-7 -8l7 -55v-16l-7 -47l7 -8v-7l-7 -8l7 -39v-48l-7 -7l7 -8v-8l-7 -8l7 -8v-8l8 -133l-8 -8h-7
c-15.333 0.666992 -44.333 45.334 -87 134.001c0 -11.333 -91.333 -105.666 -274 -282.999h-8c-292.667 168.667 -439 385.667 -439 651c0 216 94 456.667 282 722l8 31l-16 63v7h526zM230 1841l50.998 0.00292969c11.333 -48.667 36.333 -84.334 75 -107.001
s94.334 -34 167.001 -34s128 11.167 166 33.5s62.667 58.166 74 107.499h51c-13.333 -88.667 -44.666 -155.834 -93.999 -201.501s-115 -68.5 -197 -68.5c-81.333 0 -147 23 -197 69s-82 113 -96 201z" />
    <glyph glyph-name="gbreve" unicode="&#x11f;" horiz-adv-x="727" 
d="M668 932l7.99902 -7.00098v-8c-66 -46 -99 -104.333 -99 -175v-69l7 -30l-7 -23l7 -23l-7 -38l7 -23v-15h-7l7 -91v-304c0 -68 25.333 -131.667 76 -191c15.333 -26 23 -51.333 23 -76v-30c0 -72 -55.667 -140.667 -167 -206c-35.333 -53.333 -58.333 -81 -69 -83h-61
l-7 7l-8 -7h-182l-77 -8l-15 23c116.667 208 205.667 312 267 312h7c23.333 -10 36 -20.333 38 -31v-30l-30 -30h-31l-15 15c-15.333 0 -45.666 -40.667 -90.999 -122h243c50.667 37.333 76 73 76 107v30c0 18.667 -35.333 77 -106 175l-8 53v15l8 8l-8 53h-7
c-40 -80.667 -88.333 -121 -145 -121c-142 0 -225.667 114 -251 342l8 38l-8 8v7c0 90.667 58.333 240.334 175 449.001v38l-15 38l30 16l38 -8l46 8l8 -8l38 8h114l7 -8l8 8h122zM157.999 467.999c0 -163.333 45.667 -274.999 137 -334.999l38 -7c76 14 114 77.333 114 190
v23h-7l7 53v99l-7 68l7 8v8l-7 121v31l7 53l-7 8h-168c-59.333 -96.667 -97.333 -203.334 -114 -320.001zM71.999 1349l50.998 0.00292969c11.333 -48.667 36.333 -84.334 75 -107.001s94.334 -34 167.001 -34s128 11.167 166 33.5s62.667 58.166 74 107.499h51
c-13.333 -88.667 -44.666 -155.834 -93.999 -201.501s-115 -68.5 -197 -68.5c-81.333 0 -147 23 -197 69s-82 113 -96 201z" />
    <glyph glyph-name="Gdotaccent" unicode="&#x120;" horiz-adv-x="1045" 
d="M977 1440l8 -8.00391v-15c-135.333 -121.333 -216.333 -241.666 -243 -360.999l-16 -63h32c41.333 -5.33301 62 -26 62 -62c-14 -42 -40 -63 -78 -63c-55.333 0 -89.333 34 -102 102v23c0 100 31.333 186.333 94 259v8h-321c-136 -214.667 -204 -395 -204 -541l8 -31h-8
l8 -8v-55c0 -171.333 88.667 -317.666 266 -438.999l63 -32c94 58.667 141 166 141 322l-8 23h8l-8 8v24l8 8l-8 7v8l8 8v8l-8 31l8 8l-8 8h-165l-7 8c-22 0 -45.667 -55 -71 -165c31.333 -16.667 47 -37.667 47 -63v-23c-15.333 -26 -36.333 -39 -63 -39
c-43.333 0 -69.333 31.333 -78 94v39l71 259l-8 23l8 8h62l39 -8l48 8h125l8 -8l8 8h109l8 -8l8 8h86l79 8l8 -8v-16c-89.333 -46.667 -134 -91 -134 -133l-15 -63l7 -7v-8l-7 -8l7 -55v-16l-7 -47l7 -8v-7l-7 -8l7 -39v-48l-7 -7l7 -8v-8l-7 -8l7 -8v-8l8 -133l-8 -8h-7
c-15.333 0.666992 -44.333 45.334 -87 134.001c0 -11.333 -91.333 -105.666 -274 -282.999h-8c-292.667 168.667 -439 385.667 -439 651c0 216 94 456.667 282 722l8 31l-16 63v7h526zM429 1781l69 71.999c4 4 8.33301 7 13 9s9.33398 3 14.001 3c4 0 8.16699 -1 12.5 -3
s8.5 -5 12.5 -9l71 -76c3.33301 -2.66699 5.66602 -6 6.99902 -10s2 -8.66699 2 -14c-0.666992 -6 -1.66699 -11 -3 -15s-4 -8 -8 -12l-71 -76c-8 -7.33301 -13.333 -11.833 -16 -13.5s-5 -2.5 -7 -2.5c-6.66699 0 -12.167 0.833008 -16.5 2.5s-7.83301 4.5 -10.5 8.5
l-75 87c-2.66699 2.66699 -4.66699 5.83398 -6 9.50098s-2 8.16699 -2 13.5c0 4 1 8.16699 3 12.5s5.66699 8.83301 11 13.5z" />
    <glyph glyph-name="gdotaccent" unicode="&#x121;" horiz-adv-x="727" 
d="M668 932l7.99902 -7.00098v-8c-66 -46 -99 -104.333 -99 -175v-69l7 -30l-7 -23l7 -23l-7 -38l7 -23v-15h-7l7 -91v-304c0 -68 25.333 -131.667 76 -191c15.333 -26 23 -51.333 23 -76v-30c0 -72 -55.667 -140.667 -167 -206c-35.333 -53.333 -58.333 -81 -69 -83h-61
l-7 7l-8 -7h-182l-77 -8l-15 23c116.667 208 205.667 312 267 312h7c23.333 -10 36 -20.333 38 -31v-30l-30 -30h-31l-15 15c-15.333 0 -45.666 -40.667 -90.999 -122h243c50.667 37.333 76 73 76 107v30c0 18.667 -35.333 77 -106 175l-8 53v15l8 8l-8 53h-7
c-40 -80.667 -88.333 -121 -145 -121c-142 0 -225.667 114 -251 342l8 38l-8 8v7c0 90.667 58.333 240.334 175 449.001v38l-15 38l30 16l38 -8l46 8l8 -8l38 8h114l7 -8l8 8h122zM157.999 467.999c0 -163.333 45.667 -274.999 137 -334.999l38 -7c76 14 114 77.333 114 190
v23h-7l7 53v99l-7 68l7 8v8l-7 121v31l7 53l-7 8h-168c-59.333 -96.667 -97.333 -203.334 -114 -320.001zM269.999 1289l69 71.999c4 4 8.33301 7 13 9s9.33398 3 14.001 3c4 0 8.16699 -1 12.5 -3s8.5 -5 12.5 -9l71 -76c3.33301 -2.66699 5.66602 -6 6.99902 -10
s2 -8.66699 2 -14c-0.666992 -6 -1.66699 -11 -3 -15s-4 -8 -8 -12l-71 -76c-8 -7.33301 -13.333 -11.833 -16 -13.5s-5 -2.5 -7 -2.5c-6.66699 0 -12.167 0.833008 -16.5 2.5s-7.83301 4.5 -10.5 8.5l-75 87c-2.66699 2.66699 -4.66699 5.83398 -6 9.50098
s-2 8.16699 -2 13.5c0 4 1 8.16699 3 12.5s5.66699 8.83301 11 13.5z" />
    <glyph glyph-name="Gcommaaccent" unicode="&#x122;" horiz-adv-x="1466" 
d="M1229 1387l35 -427.997h-35c-35.333 106.667 -81 187 -137 241c-80.667 78 -184.334 117 -311.001 117c-173.333 0 -304.666 -68.333 -393.999 -205c-75.333 -114.667 -113 -252 -113 -412c0 -112.667 19 -217.334 57 -314.001
c42.667 -108 104.834 -193.167 186.501 -255.5s174.167 -93.5 277.5 -93.5c98.667 0 192 25 280 75v392c0 51.333 -2 85.666 -6 102.999c-8.66699 38 -27.667 64.333 -57 79c-21.333 10.667 -59.666 16 -114.999 16v38h525v-38h-25c-52 0 -87.667 -17.333 -107 -52
c-13.333 -24 -20 -72.667 -20 -146v-415c-148.667 -80 -307.334 -120 -476.001 -120c-262 0 -461 84 -597 252c-102 126 -153 271.333 -153 436c0 119.333 28.667 233.666 86 342.999c135.333 258 346 387 632 387c87.333 0 189.333 -21.667 306 -65c38 -14 63 -21 75 -21
c29.333 0 45.666 28.667 48.999 86h37zM731 16.0029h60.001l-50 -79c83.333 -21.333 125 -70 125 -146c0 -55.333 -22.667 -100 -68 -134c-40.667 -31.333 -89.667 -47 -147 -47c-24.667 0 -56 2.33301 -94 7v43c18.667 -2.66699 34.667 -4 48 -4
c32 0 60.167 10.5 84.5 31.5s36.5 47.167 36.5 78.5c0 21.333 -8 39 -24 53s-34.667 21 -56 21c-6.66699 0 -15.334 -0.666992 -26.001 -2z" />
    <glyph glyph-name="gcommaaccent" unicode="&#x123;" horiz-adv-x="1014" 
d="M292 334c-116 56.667 -174.002 148.999 -174.002 276.999c0 100 36.333 181 109 243c69.333 59.333 154.666 89 255.999 89c87.333 0 163 -21.333 227 -64h194c28.667 0 45.334 -1 50.001 -3c10.667 -4.66699 16 -18 16 -40c0 -25.333 -5 -40 -15 -44
c-5.33301 -2 -22.333 -3 -51 -3h-119c37.333 -48 56 -109.333 56 -184c0 -96.667 -37 -173.667 -111 -231c-67.333 -52.667 -150.666 -79 -249.999 -79c-45.333 0 -91.666 6.66699 -138.999 20c-50 -43.333 -75 -81.666 -75 -114.999c0 -29.333 27 -48 81 -56
c19.333 -2.66699 66 -5 140 -7c138 -3.33301 227 -8 267 -14c60 -8.66699 108 -30 144 -64c40 -37.333 60 -85 60 -143c0 -75.333 -35.333 -146 -106 -212c-104 -97.333 -239.667 -146 -407 -146c-129.333 0 -238 29 -326 87c-50 32.667 -75 67.334 -75 104.001
c0 33.333 27 83.666 81 150.999c5.33301 6.66699 39.333 42.667 102 108c-63.333 38 -95 75 -95 111c0 54 53.333 125.667 160 215zM465.998 894.999c-61.333 0 -107 -26 -137 -78c-24.667 -42 -37 -96 -37 -162c0 -105.333 22.667 -187 68 -245
c34.667 -44 78.667 -66 132 -66c116 0 174 78.667 174 236c0 106 -23 189 -69 249c-34 44 -77.667 66 -131 66zM281.998 -0.000976562c-63.333 -68.667 -95 -127.333 -95 -176c0 -32 19.333 -60 58 -84c66.667 -41.333 163 -62 289 -62c82 0 155 13 219 39
c88 36 132 89.333 132 160c0 46 -34.333 76 -103 90c-22 4.66699 -73.333 8 -154 10c-146.667 4 -262 11.667 -346 23zM609.998 1494l0.000976562 -41c-42.667 0 -81.334 -12.667 -116.001 -38c-38.667 -27.333 -58 -61.666 -58 -102.999c0 -22 7.33301 -33 22 -33
c5.33301 0 13.666 3 24.999 9c17.333 9.33301 31.333 14 42 14c56.667 0 85 -29 85 -87c0 -28.667 -10.167 -51.834 -30.5 -69.501s-45.166 -26.5 -74.499 -26.5c-42.667 0 -76 16.667 -100 50c-22 30 -33 67 -33 111c0 138 79.333 209.333 238 214z" />
    <glyph glyph-name="Hcircumflex" unicode="&#x124;" horiz-adv-x="1089" 
d="M1045 1430v-8.00098c-84.667 -46 -127 -109.333 -127 -190v-715l8 -32l-8 -8v-8l8 -31l-8 -8l8 -8v-159c6.66699 -148 41 -222 103 -222l16 -24l-16 -16h-40l-31 8l-32 -8h-16l-8 8l-8 -8h-24l-8 8l-8 -8h-16l-8 8l-7 -8h-143l-40 -8l-16 24c1.33301 12 25 27.667 71 47
c37.333 28.667 56 89.667 56 183v453l-24 8l-39 -8h-342v-445c0 -119.333 31.667 -193.333 95 -222c16 0 24 -5.33301 24 -16v-16h-397v16c74 38.667 111 107.334 111 206.001v564l-8 32l8 24l-8 31l8 32l-8 64h8l-8 8v143c0 169.333 -26.333 254 -79 254l-48 39l16 16h80
l47 -8l32 8v-8l8 8h227l11 -16c-84.667 -31.333 -127 -100 -127 -206v-365c0 -10.667 8 -16 24 -16l87 8l96 -8l95 8l103 -8l8 8v23l-8 96h8l-8 8v254c0 66.667 -16 117 -48 151l-7 8l-72 47c0 3.33301 2 6 6 8h423zM254 1571l232 355h118l232 -355h-58l-233 216l-233 -216
h-58z" />
    <glyph glyph-name="hcircumflex" unicode="&#x125;" horiz-adv-x="834" 
d="M227 1385l-0.000976562 -8.00098l7 8h38l23 -23v-15l-7 -23l7 -38v-114l-7 -8l7 -7v-472l221 175l-76 46l15 15h266l54 7l7 -7v-15c-70.667 -47.333 -106 -103.333 -106 -168v-30l7 -31l-7 -7v-8l7 -23l-7 -45l7 -77h-7l7 -7v-152l8 -38h-8l8 -8l-8 -23l8 -106h-8
c0 -56.667 35.667 -112.667 107 -168v-15h-23l-8 8l-7 -8h-191l-15 15v23l8 8l-8 7v8l8 38l-8 99h8l-8 7v579h-7l-244 -198l8 -38v-61l-8 -23l8 -38v-144c0 -162.667 25.333 -244 76 -244l7 -8c15.333 0 23 -5 23 -15l-15 -15h-175l-76 -8v8l-8 -8h-61l-15 16
c60.667 44.667 91.334 72.334 92.001 83.001l15 92v350l-8 45l8 31l-8 91l8 8l-8 38v342l-7 53h7l-7 8l7 38c0 86 -38 144.333 -114 175v8l8 7h137zM125.999 1499l232 355h118l232 -355h-58l-233 216l-233 -216h-58z" />
    <glyph glyph-name="Hbar" unicode="&#x126;" horiz-adv-x="1112" 
d="M1045 1430v-8.00098c-84.667 -46 -127 -109.333 -127 -190v-715l8 -32l-8 -8v-8l8 -31l-8 -8l8 -8v-159c6.66699 -148 41 -222 103 -222l16 -24l-16 -16h-40l-31 8l-32 -8h-16l-8 8l-8 -8h-24l-8 8l-8 -8h-16l-8 8l-7 -8h-143l-40 -8l-16 24c1.33301 12 25 27.667 71 47
c37.333 28.667 56 89.667 56 183v453l-24 8l-39 -8h-342v-445c0 -119.333 31.667 -193.333 95 -222c16 0 24 -5.33301 24 -16v-16h-397v16c74 38.667 111 107.334 111 206.001v564l-8 32l8 24l-8 31l8 32l-8 64h8l-8 8v143c0 169.333 -26.333 254 -79 254l-48 39l16 16h80
l47 -8l32 8v-8l8 8h227l11 -16c-84.667 -31.333 -127 -100 -127 -206v-365c0 -10.667 8 -16 24 -16l87 8l96 -8l95 8l103 -8l8 8v23l-8 96h8l-8 8v254c0 66.667 -16 117 -48 151l-7 8l-72 47c0 3.33301 2 6 6 8h423zM44 1231h1024v-60h-1024v60z" />
    <glyph glyph-name="hbar" unicode="&#x127;" horiz-adv-x="1112" 
d="M44 1218h1024v-60h-1024v60zM227 1385l-0.000976562 -8.00098l8 8h38l22 -23v-15l-7 -23l7 -38v-114l-7 -8l7 -7v-472l221 175l-76 46l15 15h267l53 7l7 -7v-15c-70.667 -47.333 -106 -103.333 -106 -168v-30l7 -31l-7 -7v-8l7 -23l-7 -45l7 -77h-7l7 -7v-152l8 -38h-8
l8 -8l-8 -23l8 -106h-8c0 -56.667 35.667 -112.667 107 -168v-15h-23l-7 8l-8 -8h-190l-16 15v23l8 8l-8 7v8l8 38l-8 99h8l-8 7v579h-7l-244 -198l8 -38v-61l-8 -23l8 -38v-144c0 -162.667 25.333 -244 76 -244l8 -8c15.333 0 23 -5 23 -15l-16 -15h-175l-76 -8v8l-7 -8
h-61l-16 16c60.667 44.667 91.334 72.334 92.001 83.001l15 92v350l-8 45l8 31l-8 91l8 8l-8 38v342l-7 53h7l-7 8l7 38c0 86 -38 144.333 -114 175v8l8 7h137z" />
    <glyph glyph-name="Itilde" unicode="&#x128;" horiz-adv-x="662" 
d="M546 1445l8 -7.99805v-8c-95.333 -65.333 -143 -126 -143 -182v-405l8 -48l-8 -24l8 -48v-15h-8l8 -80v-222c0 -238.667 31.667 -358 95 -358c0 -10 13.333 -15 40 -15l8 -8v-8l-16 -16h-310l-79 -8v8l-8 -8h-24l-16 16c0 9.33301 29 27.666 87 54.999
c32 37.333 48 74.666 48 111.999v682l-8 88l8 8v8l-8 47v40l8 8l-8 8v32l8 8l-8 8v135c0 55.333 -45 113.333 -135 174l16 16h127l8 -8l8 8h190zM618 1874c-13.333 -68.667 -36.1689 -120 -68.502 -154s-74.5 -51 -126.5 -51h-4c-33.333 0 -71 7.66699 -113 23
c-44 16 -82 24 -114 24c-26 0 -46.167 -6.83301 -60.5 -20.5s-25.5 -37.5 -33.5 -71.5h-54c12.667 70.667 35.334 123.5 68.001 158.5s75.667 52.5 129 52.5c30.667 -0.666992 68.334 -8.66699 113.001 -24c42.667 -15.333 80 -23 112 -23h4c24 0 43.333 6.66699 58 20
s26.667 35.333 36 66h54z" />
    <glyph glyph-name="itilde" unicode="&#x129;" horiz-adv-x="662" 
d="M413 223c0 -115.333 33.333 -173 100 -173h46v-50h-442v50h46c66.667 0 100 57.667 100 173v432c0 51.333 -37 77 -111 77h-48v44c148 46 235 106.667 261 182h48v-735zM618 1382c-13.333 -68.667 -36.1689 -120 -68.502 -154s-74.5 -51 -126.5 -51h-4
c-33.333 0 -71 7.66699 -113 23c-44 16 -82 24 -114 24c-26 0 -46.167 -6.83301 -60.5 -20.5s-25.5 -37.5 -33.5 -71.5h-54c12.667 70.667 35.334 123.5 68.001 158.5s75.667 52.5 129 52.5c30.667 -0.666992 68.334 -8.66699 113.001 -24c42.667 -15.333 80 -23 112 -23h4
c24 0 43.333 6.66699 58 20s26.667 35.333 36 66h54z" />
    <glyph glyph-name="Imacron" unicode="&#x12a;" horiz-adv-x="604" 
d="M517 1445l8 -7.99805v-8c-95.333 -65.333 -143 -126 -143 -182v-405l8 -48l-8 -24l8 -48v-15h-8l8 -80v-222c0 -238.667 31.667 -358 95 -358c0 -10 13.333 -15 40 -15l8 -8v-8l-16 -16h-310l-79 -8v8l-8 -8h-24l-16 16c0 9.33301 29 27.666 87 54.999
c32 37.333 48 74.666 48 111.999v682l-8 88l8 8v8l-8 47v40l8 8l-8 8v32l8 8l-8 8v135c0 55.333 -45 113.333 -135 174l16 16h127l8 -8l8 8h190zM44 1687v125h516v-125h-516z" />
    <glyph glyph-name="imacron" unicode="&#x12b;" horiz-adv-x="604" 
d="M384 223c0 -115.333 33.333 -173 100 -173h46v-50h-442v50h46c66.667 0 100 57.667 100 173v432c0 51.333 -37 77 -111 77h-48v44c148 46 235 106.667 261 182h48v-735zM44 1195v125h516v-125h-516z" />
    <glyph glyph-name="Ibreve" unicode="&#x12c;" horiz-adv-x="672" 
d="M551 1445l8 -7.99805v-8c-95.333 -65.333 -143 -126 -143 -182v-405l8 -48l-8 -24l8 -48v-15h-8l8 -80v-222c0 -238.667 31.667 -358 95 -358c0 -10 13.333 -15 40 -15l8 -8v-8l-16 -16h-310l-79 -8v8l-8 -8h-24l-16 16c0 9.33301 29 27.666 87 54.999
c32 37.333 48 74.666 48 111.999v682l-8 88l8 8v8l-8 47v40l8 8l-8 8v32l8 8l-8 8v135c0 55.333 -45 113.333 -135 174l16 16h127l8 -8l8 8h190zM44 1841l50.998 0.00292969c11.333 -48.667 36.333 -84.334 75 -107.001s94.334 -34 167.001 -34s128 11.167 166 33.5
s62.667 58.166 74 107.499h51c-13.333 -88.667 -44.666 -155.834 -93.999 -201.501s-115 -68.5 -197 -68.5c-81.333 0 -147 23 -197 69s-82 113 -96 201z" />
    <glyph glyph-name="ibreve" unicode="&#x12d;" horiz-adv-x="672" 
d="M418 223c0 -115.333 33.333 -173 100 -173h46v-50h-442v50h46c66.667 0 100 57.667 100 173v432c0 51.333 -37 77 -111 77h-48v44c148 46 235 106.667 261 182h48v-735zM44 1349l50.998 0.00292969c11.333 -48.667 36.333 -84.334 75 -107.001s94.334 -34 167.001 -34
s128 11.167 166 33.5s62.667 58.166 74 107.499h51c-13.333 -88.667 -44.666 -155.834 -93.999 -201.501s-115 -68.5 -197 -68.5c-81.333 0 -147 23 -197 69s-82 113 -96 201z" />
    <glyph glyph-name="Iogonek" unicode="&#x12e;" horiz-adv-x="549" 
d="M489 1445l8 -7.99805v-8c-95.333 -65.333 -143 -126 -143 -182v-405l8 -48l-8 -24l8 -48v-15h-8l8 -80v-222c0 -238.667 31.667 -358 95 -358c0 -10 13.333 -15 40 -15l8 -8v-8l-16 -16h-310l-79 -8v8l-8 -8h-24l-16 16c0 9.33301 29 27.666 87 54.999
c32 37.333 48 74.666 48 111.999v682l-8 88l8 8v8l-8 47v40l8 8l-8 8v32l8 8l-8 8v135c0 55.333 -45 113.333 -135 174l16 16h127l8 -8l8 8h190zM408 0.00195312c-47.333 -41.333 -84.168 -81.1699 -110.501 -119.503s-39.5 -75.833 -39.5 -112.5
c0 -31.333 9 -56.333 27 -75s42.333 -28 73 -28c26.667 0 49.834 5.16699 69.501 15.5s36.167 26.5 49.5 48.5l28 -16c-24 -42 -54.167 -74.333 -90.5 -97s-76.166 -34 -119.499 -34c-46.667 0 -84.667 11.833 -114 35.5s-44 53.834 -44 90.501
c0 50.667 20.167 102.834 60.5 156.501s94.166 98.834 161.499 135.501h49z" />
    <glyph glyph-name="iogonek" unicode="&#x12f;" horiz-adv-x="456" 
d="M216 1280c60 -14 90 -41.667 90 -83v-23c0 -55.333 -32.667 -83 -98 -83h-7c-52.667 0 -83 32.667 -91 98c12.667 60.667 48 91 106 91zM65 917l113 -7.00098h76l37 7l15 -22v-144l-7 -8l7 -7v-280l8 -45l-8 -8l8 -38v-38l-8 -37c0 -161.333 25.333 -242 76 -242l30 -30
l-15 -16h-249l-46 -7c-24.667 6.66699 -37 14.334 -37 23.001c70 36 105 81.333 105 136v219l-7 68l7 7v8l-7 30l7 8v7l-7 23h7l-7 8v37l7 8l-7 8v158c0 79.333 -30.333 127.333 -91 144l-15 15l8 8v7zM315 -0.000976562
c-47.333 -41.333 -84.168 -81.1699 -110.501 -119.503s-39.5 -75.833 -39.5 -112.5c0 -31.333 9 -56.333 27 -75s42.333 -28 73 -28c26.667 0 49.834 5.16699 69.501 15.5s36.167 26.5 49.5 48.5l28 -16c-24 -42 -54.167 -74.333 -90.5 -97s-76.166 -34 -119.499 -34
c-46.667 0 -84.667 11.833 -114 35.5s-44 53.834 -44 90.501c0 50.667 20.167 102.834 60.5 156.501s94.166 98.834 161.499 135.501h49z" />
    <glyph glyph-name="Idotaccent" unicode="&#x130;" horiz-adv-x="549" 
d="M489 1445l8 -7.99805v-8c-95.333 -65.333 -143 -126 -143 -182v-405l8 -48l-8 -24l8 -48v-15h-8l8 -80v-222c0 -238.667 31.667 -358 95 -358c0 -10 13.333 -15 40 -15l8 -8v-8l-16 -16h-310l-79 -8v8l-8 -8h-24l-16 16c0 9.33301 29 27.666 87 54.999
c32 37.333 48 74.666 48 111.999v682l-8 88l8 8v8l-8 47v40l8 8l-8 8v32l8 8l-8 8v135c0 55.333 -45 113.333 -135 174l16 16h127l8 -8l8 8h190zM181 1781l69 71.999c4 4 8.33301 7 13 9s9.33398 3 14.001 3c4 0 8.16699 -1 12.5 -3s8.5 -5 12.5 -9l71 -76
c3.33301 -2.66699 5.66602 -6 6.99902 -10s2 -8.66699 2 -14c-0.666992 -6 -1.66699 -11 -3 -15s-4 -8 -8 -12l-71 -76c-8 -7.33301 -13.333 -11.833 -16 -13.5s-5 -2.5 -7 -2.5c-6.66699 0 -12.167 0.833008 -16.5 2.5s-7.83301 4.5 -10.5 8.5l-75 87
c-2.66699 2.66699 -4.66699 5.83398 -6 9.50098s-2 8.16699 -2 13.5c0 4 1 8.16699 3 12.5s5.66699 8.83301 11 13.5z" />
    <glyph glyph-name="dotlessi" unicode="&#x131;" horiz-adv-x="543" 
d="M353 223c0 -115.333 33.333 -173 100 -173h46v-50h-442v50h46c66.667 0 100 57.667 100 173v432c0 51.333 -37 77 -111 77h-48v44c148 46 235 106.667 261 182h48v-735z" />
    <glyph glyph-name="IJ" unicode="&#x132;" horiz-adv-x="1134" 
d="M489 1445l8 -7.99805v-8c-95.333 -65.333 -143 -126 -143 -182v-405l8 -48l-8 -24l8 -48v-15h-8l8 -80v-222c0 -238.667 31.667 -358 95 -358c0 -10 13.333 -15 40 -15l8 -8v-8l-16 -16h-310l-79 -8v8l-8 -8h-24l-16 16c0 9.33301 29 27.666 87 54.999
c32 37.333 48 74.666 48 111.999v682l-8 88l8 8v8l-8 47v40l8 8l-8 8v32l8 8l-8 8v135c0 55.333 -45 113.333 -135 174l16 16h127l8 -8l8 8h190zM629 1433l79.999 0.000976562l8 -8l8 8h8l31 -8l32 8l32 -8l40 8l8 -8h8l8 8h23v-8l80 8h79l16 -16
c-95.333 -50.667 -143 -103.667 -143 -159l-8 -119v-190l8 -119h-8l8 -8l-8 -40l8 -8v-8l-8 -8v-8l8 -47v-16l-8 -8l8 -8l-8 -80v-31l8 -159h-8l8 -24l-8 -8l8 -40v-87c0 -38 31.667 -112 95 -222l24 -104c0 -116 -68.667 -235 -206 -357l-40 -48h-95l-24 8l-40 -8h-222
l-16 16c124 207.333 214 324 270 350l48 8h8c28.667 0 52.334 -16 71.001 -48v-48l-40 -39h-23l-56 16c-42.667 -51.333 -64 -83.333 -64 -96h199c52.667 36 79 89 79 159c0 46 -47.667 144 -143 294l-8 48v984l-7 32l7 24c0 91.333 -47.333 154.666 -142 189.999l-8 8v8z
" />
    </font>
</defs>
</svg>
